<svg id="AllianceBlock_logo" xmlns="http://www.w3.org/2000/svg" width="190" height="49.646" viewBox="0 0 190 49.646">
  <rect id="Rectangle_1270" data-name="Rectangle 1270" width="45.895" height="49.245" transform="translate(0 0.401)" fill="none"/>
  <g id="Group_2884" data-name="Group 2884" transform="translate(57.277 15.376)">
    <path id="Path_146656" data-name="Path 146656" d="M111.656,29.262l5.332,17.377h-2.441l-1.141-4.032h-6.394l-1.141,4.032h-2.307l5.306-17.377Zm-1.433,2.07-2.652,9.258h5.279Z" transform="translate(-103.565 -28.466)" fill="#fff"/>
    <path id="Path_146657" data-name="Path 146657" d="M134.091,27.918V46.037h-2.255V27.918Z" transform="translate(-116.211 -27.865)" fill="#fff"/>
    <path id="Path_146658" data-name="Path 146658" d="M144.891,27.918V46.037h-2.255V27.918Z" transform="translate(-121.042 -27.865)" fill="#fff"/>
    <path id="Path_146659" data-name="Path 146659" d="M155.372,28.14a1.107,1.107,0,0,1,.385.9v.77a1.066,1.066,0,0,1-.385.888,1.736,1.736,0,0,1-1.1.305A1.686,1.686,0,0,1,153.2,30.7a1.065,1.065,0,0,1-.385-.888v-.77a1.106,1.106,0,0,1,.385-.9,1.637,1.637,0,0,1,1.074-.318A1.684,1.684,0,0,1,155.372,28.14Zm.04,4.908V45.994h-2.255V33.048Z" transform="translate(-125.594 -27.822)" fill="#fff"/>
    <path id="Path_146660" data-name="Path 146660" d="M170.98,37.723a4.375,4.375,0,0,1,1.048,3.25v8.993H169.88V47.9q-1.539,2.388-3.475,2.388a3.077,3.077,0,0,1-2.454-1.061,4.279,4.279,0,0,1-.915-2.892v-.743a3.509,3.509,0,0,1,1.088-2.639,4.027,4.027,0,0,1,2.918-1.048,14.822,14.822,0,0,1,2.732.345V40.787a1.841,1.841,0,0,0-2.122-2.149,22.611,22.611,0,0,0-3.581.4V37.1a25.913,25.913,0,0,1,3.581-.4A4.634,4.634,0,0,1,170.98,37.723Zm-5.08,6.513a2.226,2.226,0,0,0-.584,1.645v.292a2.38,2.38,0,0,0,.451,1.538,1.407,1.407,0,0,0,1.141.558,2.34,2.34,0,0,0,1.472-.624,6.109,6.109,0,0,0,1.393-1.764V43.838a12.015,12.015,0,0,0-2.175-.186A2.3,2.3,0,0,0,165.9,44.236Z" transform="translate(-130.167 -31.794)" fill="#fff"/>
    <path id="Path_146661" data-name="Path 146661" d="M194.05,37.856a5.16,5.16,0,0,1,.915,3.276v8.834H192.71V41.451q0-2.653-1.724-2.653a2.65,2.65,0,0,0-1.565.584,5.118,5.118,0,0,0-1.38,1.592v8.993h-2.255V37.02h2.123v1.937a5.712,5.712,0,0,1,1.6-1.671,3.437,3.437,0,0,1,1.923-.584A3.141,3.141,0,0,1,194.05,37.856Z" transform="translate(-140.343 -31.794)" fill="#fff"/>
    <path id="Path_146662" data-name="Path 146662" d="M216.142,37.047l-.053,1.99a12.4,12.4,0,0,0-2.653-.345,2.482,2.482,0,0,0-1.9.69,2.754,2.754,0,0,0-.65,1.963v4.271a2.719,2.719,0,0,0,.676,2,2.529,2.529,0,0,0,1.87.676,9.225,9.225,0,0,0,1.3-.08q.557-.08,1.354-.265l.053,1.99a13.5,13.5,0,0,1-2.732.345q-4.775,0-4.775-4.828V41.53q0-4.828,4.8-4.828A12.344,12.344,0,0,1,216.142,37.047Z" transform="translate(-150.564 -31.794)" fill="#fff"/>
    <path id="Path_146663" data-name="Path 146663" d="M235.26,37.922a4.91,4.91,0,0,1,1.167,3.528v2.732h-6.818v1.565a2.54,2.54,0,0,0,.65,1.95,2.973,2.973,0,0,0,2.056.6,17.712,17.712,0,0,0,3.449-.424l.053,1.963a22.576,22.576,0,0,1-3.528.451,5.238,5.238,0,0,1-3.78-1.14,4.776,4.776,0,0,1-1.154-3.529V41.451a5.019,5.019,0,0,1,1.128-3.528,4.384,4.384,0,0,1,3.382-1.22A4.481,4.481,0,0,1,235.26,37.922Zm-5.041,1.313a2.631,2.631,0,0,0-.61,1.87v1.273h4.563V41.185a2.729,2.729,0,0,0-.623-1.937,2.2,2.2,0,0,0-1.685-.663A2.15,2.15,0,0,0,230.219,39.236Z" transform="translate(-158.937 -31.794)" fill="#fff"/>
    <path id="Path_146664" data-name="Path 146664" d="M258.443,29.827a3.73,3.73,0,0,1,1.459,3.1v.584a3.85,3.85,0,0,1-2.441,3.847,3.9,3.9,0,0,1,2.322,1.366,4.022,4.022,0,0,1,.835,2.587V41.9a4.332,4.332,0,0,1-1.552,3.5,7.161,7.161,0,0,1-4.683,1.3q-1.776,0-4.854-.159V28.792q2.44-.105,4.669-.106A6.784,6.784,0,0,1,258.443,29.827Zm-6.658.875v5.943h2.6a3.461,3.461,0,0,0,2.428-.769,2.776,2.776,0,0,0,.835-2.149v-.451a2.313,2.313,0,0,0-.9-1.99,4.954,4.954,0,0,0-2.892-.663Q252.9,30.623,251.785,30.7Zm0,7.773v6.1q.875.08,1.445.119t1.154.04a4.755,4.755,0,0,0,3.012-.783,2.655,2.655,0,0,0,.968-2.189v-.557q0-2.732-3.82-2.733Z" transform="translate(-168.857 -28.208)" fill="#fff"/>
    <path id="Path_146665" data-name="Path 146665" d="M276.889,27.918V46.037h-2.255V27.918Z" transform="translate(-180.086 -27.865)" fill="#fff"/>
    <path id="Path_146666" data-name="Path 146666" d="M293.137,37.962a5.1,5.1,0,0,1,1.154,3.568v3.926a5.094,5.094,0,0,1-1.154,3.568,5.533,5.533,0,0,1-7.03,0,5.094,5.094,0,0,1-1.154-3.568V41.53a5.1,5.1,0,0,1,1.154-3.568,5.533,5.533,0,0,1,7.03,0Zm-5.293,1.34a2.976,2.976,0,0,0-.637,2.043v4.3a2.976,2.976,0,0,0,.637,2.043,2.564,2.564,0,0,0,3.555,0,2.978,2.978,0,0,0,.637-2.043V41.318a2.925,2.925,0,0,0-.637-2.029,2.58,2.58,0,0,0-3.555.013Z" transform="translate(-184.702 -31.794)" fill="#fff"/>
    <path id="Path_146667" data-name="Path 146667" d="M315.117,37.047l-.053,1.99a12.4,12.4,0,0,0-2.653-.345,2.482,2.482,0,0,0-1.9.69,2.754,2.754,0,0,0-.65,1.963v4.271a2.717,2.717,0,0,0,.676,2,2.528,2.528,0,0,0,1.87.676,9.225,9.225,0,0,0,1.3-.08q.557-.08,1.353-.265l.053,1.99a13.5,13.5,0,0,1-2.733.345q-4.775,0-4.775-4.828V41.53q0-4.828,4.8-4.828A12.344,12.344,0,0,1,315.117,37.047Z" transform="translate(-194.836 -31.794)" fill="#fff"/>
    <path id="Path_146668" data-name="Path 146668" d="M329.064,27.918v10.85l4.245-5.677h2.52l-4.4,5.677,4.722,7.269h-2.706l-4.377-6.951v6.951h-2.255V27.918Z" transform="translate(-203.424 -27.865)" fill="#fff"/>
  </g>
  <g id="Group_2885" data-name="Group 2885" transform="translate(0.038)">
    <path id="Path_146669" data-name="Path 146669" d="M8.643,28.444a2.033,2.033,0,0,1,.048-.433L0,23.155V46.824L9.475,30.085A2.041,2.041,0,0,1,8.643,28.444Z" transform="translate(0 -10.357)" fill="#fff"/>
    <path id="Path_146670" data-name="Path 146670" d="M10.993,16.036a2.039,2.039,0,0,1,.837.182L21.114,0,.669,11.882l8.745,4.911A2.038,2.038,0,0,1,10.993,16.036Z" transform="translate(-0.299)" fill="#fff"/>
    <path id="Path_146671" data-name="Path 146671" d="M22.679,18.414a2.046,2.046,0,0,1-.051.442l9.027,5.029V.732L22.21,17.123A2.032,2.032,0,0,1,22.679,18.414Z" transform="translate(-9.935 -0.327)" fill="#fff"/>
    <path id="Path_146672" data-name="Path 146672" d="M9.647,59.739,1.3,64.395,21.682,75.966S15.057,65.213,12.066,60.4a2.037,2.037,0,0,1-2.419-.658Z" transform="translate(-0.582 -26.722)" fill="#fff"/>
    <path id="Path_146673" data-name="Path 146673" d="M22.291,54.092l9.4,15.342V47.11L22.58,52.138a1.993,1.993,0,0,1-.289,1.953Z" transform="translate(-9.971 -21.073)" fill="#fff"/>
    <path id="Path_146674" data-name="Path 146674" d="M20.279,35.687l.007,9.743a2.039,2.039,0,0,1,.856.465l9.547-5.5-9.281-5.467A2.044,2.044,0,0,1,20.279,35.687Z" transform="translate(-9.071 -15.623)" fill="#fff"/>
    <path id="Path_146675" data-name="Path 146675" d="M11.425,46.269V36.807L2.785,52.44l7.138-3.856a2,2,0,0,1-.034-.338A2.047,2.047,0,0,1,11.425,46.269Z" transform="translate(-1.246 -16.464)" fill="#fff"/>
    <path id="Path_146676" data-name="Path 146676" d="M65.388,30.085l9.475,16.739V23.155l-8.691,4.856a2.023,2.023,0,0,1-.784,2.074Z" transform="translate(-29.249 -10.357)" fill="#fff"/>
    <path id="Path_146677" data-name="Path 146677" d="M56.571,16.793l8.744-4.911L44.871,0l9.284,16.218a2.021,2.021,0,0,1,2.416.575Z" transform="translate(-20.071)" fill="#fff"/>
    <path id="Path_146678" data-name="Path 146678" d="M52.677,17.123,43.232.732V23.885l9.027-5.029a2,2,0,0,1,.418-1.733Z" transform="translate(-19.338 -0.327)" fill="#fff"/>
    <path id="Path_146679" data-name="Path 146679" d="M54.76,60.555a2.044,2.044,0,0,1-.79-.159c-2.991,4.817-9.617,15.57-9.617,15.57L64.736,64.395l-8.347-4.656A2.041,2.041,0,0,1,54.76,60.555Z" transform="translate(-19.84 -26.722)" fill="#fff"/>
    <path id="Path_146680" data-name="Path 146680" d="M52.344,52.138,43.232,47.11V69.434l9.4-15.342a1.995,1.995,0,0,1-.288-1.953Z" transform="translate(-19.338 -21.073)" fill="#fff"/>
    <path id="Path_146681" data-name="Path 146681" d="M52.7,34.927l-9.281,5.467,9.547,5.5a2.032,2.032,0,0,1,.856-.465l.007-9.743A2.042,2.042,0,0,1,52.7,34.927Z" transform="translate(-19.422 -15.623)" fill="#fff"/>
    <path id="Path_146682" data-name="Path 146682" d="M65.651,48.247a2.064,2.064,0,0,1-.034.338l7.138,3.856-8.64-15.633v9.462A2.047,2.047,0,0,1,65.651,48.247Z" transform="translate(-28.679 -16.464)" fill="#fff"/>
  </g>
</svg>
