<svg id="Join-icons-cta" xmlns="http://www.w3.org/2000/svg" width="32" height="32" viewBox="0 0 32 32">
  <rect id="cell" width="32" height="32" fill="none"/>
  <g id="developer" transform="translate(-46.46 -38.334)">
    <path id="Path_146504" data-name="Path 146504" d="M50.46,45.334h24V60.491H70.739l-2.965,5.136-2.965-5.136H50.46Z" fill="none" stroke="#878888" stroke-miterlimit="10" stroke-width="1"/>
    <g id="Group_2730" data-name="Group 2730" transform="translate(55.172 49.096)">
      <path id="Path_146505" data-name="Path 146505" d="M72.655,66.787V66.27l4.158-2.117v.826l-3.189,1.536.026-.052v.129l-.026-.052,3.189,1.536V68.9Z" transform="translate(-72.655 -62.19)" fill="#878888" stroke="#878888" stroke-width="0.5"/>
      <path id="Path_146506" data-name="Path 146506" d="M85.386,60.844l-2.13,7.914h-.7l2.13-7.914Z" transform="translate(-76.684 -60.844)" fill="#878888" stroke="#878888" stroke-width="0.5"/>
      <path id="Path_146507" data-name="Path 146507" d="M94.377,66.787,90.219,68.9v-.827l3.19-1.536-.026.052v-.129l.026.052-3.19-1.536v-.826l4.158,2.117Z" transform="translate(-79.802 -62.19)" fill="#878888" stroke="#878888" stroke-width="0.5"/>
    </g>
  </g>
</svg>
