<svg id="Members-dlab" xmlns="http://www.w3.org/2000/svg" width="91.508" height="39.302" viewBox="0 0 91.508 39.302">
  <path id="Path_146514" data-name="Path 146514" d="M54.1,16.646V14.5h6.6V33.077H54.1Z" transform="translate(-39.046 -14.5)" fill="#fff"/>
  <path id="Path_146515" data-name="Path 146515" d="M96.6,79.346V77.2h6.6V95.777H96.6Z" transform="translate(-67.934 -57.117)" fill="#fff"/>
  <path id="Path_146516" data-name="Path 146516" d="M225.1,16.646V14.5h6.6V33.077h-6.6Z" transform="translate(-155.276 -14.5)" fill="#fff"/>
  <path id="Path_146517" data-name="Path 146517" d="M96.6,16.646V14.5h6.6V33.077H96.6Z" transform="translate(-67.934 -14.5)" fill="#fff"/>
  <path id="Path_146518" data-name="Path 146518" d="M157.252,75.977V94.554h-6.6V92.5h-.064a5.145,5.145,0,0,1-2.338,2.018,8.061,8.061,0,0,1-3.267.673,8.737,8.737,0,0,1-6.726-2.915,10.13,10.13,0,0,1-2.658-7.014,9.969,9.969,0,0,1,2.626-6.982,8.656,8.656,0,0,1,6.694-2.883,7.119,7.119,0,0,1,5.765,2.434V76.009h6.566Zm-7.495,6.31a4.26,4.26,0,0,0-7.367,2.979,4.031,4.031,0,0,0,1.153,2.979,4.2,4.2,0,0,0,3.107,1.185,4.01,4.01,0,0,0,4.26-4.164A4.387,4.387,0,0,0,149.757,82.286Z" transform="translate(-94.442 -55.893)" fill="#fff"/>
  <path id="Path_146519" data-name="Path 146519" d="M28.752,75.977V94.554h-6.6V92.5H22.09a5.145,5.145,0,0,1-2.338,2.018,8.062,8.062,0,0,1-3.267.673,8.737,8.737,0,0,1-6.726-2.915A10.13,10.13,0,0,1,7.1,85.265a9.969,9.969,0,0,1,2.626-6.982A8.656,8.656,0,0,1,16.421,75.4a7.119,7.119,0,0,1,5.765,2.434V76.009h6.566Zm-7.495,6.31a4.1,4.1,0,0,0-3.107-1.217,4.058,4.058,0,0,0-4.26,4.2,4.031,4.031,0,0,0,1.153,2.979,4.2,4.2,0,0,0,3.107,1.185,4.01,4.01,0,0,0,4.26-4.164A4.545,4.545,0,0,0,21.257,82.286Z" transform="translate(-7.1 -55.893)" fill="#fff"/>
  <path id="Path_146520" data-name="Path 146520" d="M231.766,75.909v1.826a7.218,7.218,0,0,1,5.765-2.434,8.7,8.7,0,0,1,6.694,2.883,9.968,9.968,0,0,1,2.626,6.982,10.13,10.13,0,0,1-2.658,7.014,8.643,8.643,0,0,1-6.726,2.915,8.061,8.061,0,0,1-3.267-.673,4.987,4.987,0,0,1-2.338-2.018H231.8v2.05h-6.6V75.877h6.566Zm-.224,9.321a4.031,4.031,0,0,0,1.153,2.979,4.2,4.2,0,0,0,3.107,1.185,4.01,4.01,0,0,0,4.26-4.164,4.26,4.26,0,1,0-8.52,0Z" transform="translate(-155.344 -55.826)" fill="#fff"/>
</svg>
