<svg id="fantom_logo" xmlns="http://www.w3.org/2000/svg" width="137.316" height="29.756" viewBox="0 0 137.316 29.756">
  <g id="Group_2886" data-name="Group 2886">
    <path id="Path_146683" data-name="Path 146683" d="M31.9,10.815l-7.373-3.9a3.028,3.028,0,0,0-2.481,0l-7.373,3.9a1.344,1.344,0,0,0-.6.567H14v.39h0v9.535h0v9.96h0v.39h.106a1.344,1.344,0,0,0,.6.567l7.373,3.9a2.781,2.781,0,0,0,1.241.284,2.9,2.9,0,0,0,1.241-.284l7.373-3.9a1.344,1.344,0,0,0,.6-.567h.106V11.382h-.106A1.674,1.674,0,0,0,31.9,10.815ZM22.507,17.3a2.442,2.442,0,0,1,.284-.106v8.188c-.106-.035-.177-.071-.284-.106l-7.373-3.9a.489.489,0,0,1-.142-.106.489.489,0,0,1,.142-.106Zm1.276,8.081V17.195c.106.035.177.071.284.106l7.373,3.9a.489.489,0,0,1,.142.106.489.489,0,0,1-.142.106l-7.373,3.9A.668.668,0,0,1,23.783,25.383Zm.957-8.826,6.876-3.615v7.266Zm-9.748,3.615V12.906l6.876,3.615Zm0,2.268,7.089,3.722c.071.035.177.071.248.106-.071.035-.177.071-.248.106L14.992,30.1Zm9.535,3.722,7.089-3.722v7.692L24.527,26.41c-.071-.035-.177-.071-.248-.106A.889.889,0,0,0,24.527,26.162ZM15.134,11.7l7.373-3.9a1.986,1.986,0,0,1,1.56,0l7.373,3.9a.489.489,0,0,1,.142.106.489.489,0,0,1-.142.106l-7.373,3.9a1.986,1.986,0,0,1-1.56,0l-7.373-3.9a.489.489,0,0,1-.142-.106A.489.489,0,0,1,15.134,11.7Zm16.3,19.672-7.373,3.9a1.986,1.986,0,0,1-1.56,0l-7.373-3.9a.489.489,0,0,1-.142-.106.489.489,0,0,1,.142-.106l7.373-3.9a1.986,1.986,0,0,1,1.56,0l7.373,3.9a.489.489,0,0,1,.142.106A.489.489,0,0,1,31.439,31.373Z" transform="translate(-10.81 -6.65)" fill="#fff"/>
    <path id="Path_146684" data-name="Path 146684" d="M67.509,10.506l-.177-.106-.532.851.177.106c1.311.78,1.737,1.028,1.737,2.871h.992C69.707,11.853,68.891,11.357,67.509,10.506Z" transform="translate(-44.895 -9.071)" fill="#fff"/>
    <path id="Path_146685" data-name="Path 146685" d="M5.992,75.1H5c0,2.375.851,2.871,2.2,3.722l.177.106.532-.851-.177-.106C6.418,77.191,5.992,76.908,5.992,75.1Z" transform="translate(-5 -50.838)" fill="#fff"/>
  </g>
  <path id="fantom" d="M101.009,35.006V21.431h3.757V18.95h-3.757V17.177c0-2.02.886-3.048,2.658-3.048a5.531,5.531,0,0,1,1.63.248h0V11.719a8.117,8.117,0,0,0-2.339-.319,5.055,5.055,0,0,0-3.828,1.418,5.707,5.707,0,0,0-1.347,4.076h0V18.95H94.7v2.481h3.084V35.006Zm13.257.213a6.3,6.3,0,0,0,3.226-.78,5.01,5.01,0,0,0,2.091-2.2h0v2.765h3.19V18.914h-3.19v2.623a5.53,5.53,0,0,0-2.091-2.233,6.3,6.3,0,0,0-3.226-.78,6.517,6.517,0,0,0-3.686,1.063,7.26,7.26,0,0,0-2.552,2.977,10.144,10.144,0,0,0-.922,4.4,9.874,9.874,0,0,0,.886,4.36,6.642,6.642,0,0,0,2.517,2.871A7.026,7.026,0,0,0,114.266,35.219Zm.744-2.552a4.232,4.232,0,0,1-3.438-1.489,6.5,6.5,0,0,1-1.241-4.218,6.716,6.716,0,0,1,1.241-4.289,4.113,4.113,0,0,1,3.4-1.56,4.161,4.161,0,0,1,3.4,1.489,6.791,6.791,0,0,1,1.205,4.289,6.539,6.539,0,0,1-1.205,4.253A4.116,4.116,0,0,1,115.01,32.667Zm15.667,2.339V25.861a4.722,4.722,0,0,1,1.241-3.4,4.325,4.325,0,0,1,3.261-1.276,3.171,3.171,0,0,1,2.588.957,4.749,4.749,0,0,1,.815,3.048h0v9.818h3.226V24.975c0-4.289-1.914-6.451-5.778-6.451a6.682,6.682,0,0,0-3.3.815,5.482,5.482,0,0,0-2.233,2.339h0l-.284-2.765H127.2a34.976,34.976,0,0,1,.248,4.537h0V35.006Zm21.941.213a7.331,7.331,0,0,0,2.41-.354h0V32.242a5.651,5.651,0,0,1-1.7.248,2.7,2.7,0,0,1-1.985-.673,3.236,3.236,0,0,1-.709-2.339h0V21.431h4.431V18.95h-4.431V13.775l-3.226,1.1v4.005h-3.119V21.36h3.119v8.33a5.564,5.564,0,0,0,1.382,4.076A5.155,5.155,0,0,0,152.618,35.219Zm12.3,0a8.229,8.229,0,0,0,4.112-1.028,6.84,6.84,0,0,0,2.765-2.906,9.561,9.561,0,0,0,.957-4.4,9.818,9.818,0,0,0-.957-4.431,6.647,6.647,0,0,0-2.765-2.906,8.229,8.229,0,0,0-4.112-1.028,8.365,8.365,0,0,0-4.147,1.028,6.84,6.84,0,0,0-2.765,2.906,9.713,9.713,0,0,0-.957,4.431,9.459,9.459,0,0,0,.957,4.4,6.84,6.84,0,0,0,2.765,2.906A8.007,8.007,0,0,0,164.918,35.219Zm-.035-2.552a4.241,4.241,0,0,1-3.4-1.453,6.557,6.557,0,0,1-1.205-4.324,6.712,6.712,0,0,1,1.205-4.289,4.161,4.161,0,0,1,3.4-1.489A4.09,4.09,0,0,1,168.25,22.6a6.791,6.791,0,0,1,1.205,4.289,6.9,6.9,0,0,1-1.17,4.324A4.045,4.045,0,0,1,164.882,32.667Zm14.852,2.339V25.9a5.106,5.106,0,0,1,1.1-3.474,3.638,3.638,0,0,1,2.942-1.276,2.663,2.663,0,0,1,2.3.957,5.241,5.241,0,0,1,.709,3.013h0v9.889h3.226V25.9a5.282,5.282,0,0,1,1.063-3.474,3.614,3.614,0,0,1,2.907-1.276,2.663,2.663,0,0,1,2.3.957A5.241,5.241,0,0,1,197,25.117h0v9.889h3.226V24.975c0-4.289-1.772-6.451-5.352-6.451a6.277,6.277,0,0,0-3.19.815,5.545,5.545,0,0,0-2.162,2.268q-1.17-3.084-4.891-3.084a5.671,5.671,0,0,0-3.048.815,5.257,5.257,0,0,0-2.02,2.268h0l-.284-2.694H176.26a34.977,34.977,0,0,1,.248,4.537h0V35.006Z" transform="translate(-62.905 -9.717)" fill="#fff"/>
</svg>
