<svg id="Glitch-logo" xmlns="http://www.w3.org/2000/svg" width="140" height="43.708" viewBox="0 0 140 43.708">
  <g id="Layer_2_1_">
    <g id="Layer_1-2">
      <path id="Path_146686" data-name="Path 146686" d="M96.287,57.941A1.092,1.092,0,0,0,95.2,56.85H75.237a1.092,1.092,0,0,0-1.091,1.091v.3h1.381v1.214H74.147v8.034H72.74V68.7h1.379v8.034H75.5v.59a1.083,1.083,0,0,0,.2.629H74.323a1.1,1.1,0,0,0,.9.473H95.18a1.1,1.1,0,0,0,.895-.473h1.381a1.1,1.1,0,0,0,.2-.629v-.584H96.273V68.706H94.911V67.484H96.29v-.229A1.092,1.092,0,0,0,95.2,66.164h-6.28a1.092,1.092,0,0,0-1.091,1.091v.229H86.447V68.7h1.381v.235a1.092,1.092,0,0,0,1.091,1.091h2.4a1.092,1.092,0,0,1,1.091,1.091v2.326a1.092,1.092,0,0,1-1.091,1.091H79.107a1.092,1.092,0,0,1-1.091-1.091V68.706H76.635V67.484h1.381V60.709H95.227a1.092,1.092,0,0,0,1.091-1.091v-.162H97.7V58.243H96.318Z" transform="translate(-58.04 -47.236)" fill="#5b5b5b"/>
      <path id="Path_146687" data-name="Path 146687" d="M81.636,42.72V34.687h1.381V33.473H81.636V25.437H80.257v-.786a2.505,2.505,0,0,0-.045-.433h1.379a2.179,2.179,0,0,0-2.136-1.748H43.022a2.18,2.18,0,0,0-2.136,1.748H39.5a2.5,2.5,0,0,0-.045.433v.786h1.381v8.036h1.381v1.214H40.841V42.72H39.46v1.216h1.381V51.97h1.381v1.216H40.841V56.6H39.46v1.216h1.381v3.414a2.153,2.153,0,0,0,.473,1.216,2.176,2.176,0,0,0,1.695.822H79.458a2.176,2.176,0,0,0,1.695-.822,2.153,2.153,0,0,0,.473-1.216V57.812H80.246V56.6h1.379V53.187h1.381V51.973H81.625V43.94H80.246V42.718h1.39ZM77.769,43.94v8.034h1.379V53.19H77.769V56.6H76.387v.615a2.214,2.214,0,0,1-.1.6h1.379a2.179,2.179,0,0,1-2.086,1.577H46.892a2.179,2.179,0,0,1-2.086-1.577H43.425a2.214,2.214,0,0,1-.1-.6V56.6h1.381V53.19H46.09V51.973H44.711V43.94H43.33V42.718h1.381V34.687H46.09V33.473H44.711V28.524a2.18,2.18,0,0,1,2.181-2.181H75.585a2.18,2.18,0,0,1,2.181,2.181v4.949h1.379v1.214H77.771V42.72H76.39v1.216Z" transform="translate(-34.066 -22.47)" fill="#5b5b5b"/>
      <path id="Path_146688" data-name="Path 146688" d="M88.173,57.941a1.092,1.092,0,0,0-1.091-1.091H67.123a1.092,1.092,0,0,0-1.091,1.091v.3h2.047v1.214H66.019v8.034H64.64V68.7h1.379v8.034H67.4v.59a1.083,1.083,0,0,0,.2.629H66.223a1.1,1.1,0,0,0,.9.473H87.08a1.1,1.1,0,0,0,.895-.473h1.381a1.1,1.1,0,0,0,.2-.629v-.584H88.173V68.706H86.795V67.484h1.379v-.229a1.092,1.092,0,0,0-1.091-1.091H80.8a1.092,1.092,0,0,0-1.091,1.091v.229H78.33V68.7h1.381v.235A1.092,1.092,0,0,0,80.8,70.026h2.4A1.092,1.092,0,0,1,84.3,71.116v2.326a1.092,1.092,0,0,1-1.091,1.091H70.993A1.092,1.092,0,0,1,69.9,73.443V68.706H68.521V67.484H69.9V60.709H87.113A1.092,1.092,0,0,0,88.2,59.618v-.162h2.047V58.243H88.2Z" transform="translate(-52.205 -47.236)" fill="#afafaf"/>
      <path id="Path_146689" data-name="Path 146689" d="M66.1,51.973V43.94H64.718V42.718H66.1V34.687h1.046V33.473H66.1V25.437H64.05v-.786a2.055,2.055,0,0,0-.045-.433h2.047a2.179,2.179,0,0,0-2.136-1.748H27.483a2.18,2.18,0,0,0-2.136,1.748H23.3a2.257,2.257,0,0,0-.045.433v.786H25.3v8.036h1.711v1.214H25.3V42.72H22.59v1.216H25.3V51.97h1.379v1.216H25.3V56.6H23.591v1.216H25.3v3.414a2.153,2.153,0,0,0,.473,1.216,2.176,2.176,0,0,0,1.695.822H63.919a2.176,2.176,0,0,0,1.695-.822,2.153,2.153,0,0,0,.473-1.216V57.812H64.707V56.6h1.379V53.187H67.8V51.973H66.1Zm-3.87,1.216V56.6H60.848v.615a2.214,2.214,0,0,1-.1.6h1.379a2.179,2.179,0,0,1-2.086,1.577H31.353a2.179,2.179,0,0,1-2.086-1.577H27.551a2.214,2.214,0,0,1-.1-.6V56.6h1.711V53.19h1.381V51.973H29.167V43.94H26.454V42.718h2.712V34.687h1.717V33.473H29.167V28.524a2.18,2.18,0,0,1,2.181-2.181H60.04a2.18,2.18,0,0,1,2.181,2.181v4.949h1.046v1.214H62.221V42.72H60.843v1.216h1.379V51.97h1.717v1.216Z" transform="translate(-21.913 -22.47)" fill="#afafaf"/>
      <path id="Path_146690" data-name="Path 146690" d="M91.556,57.941a1.092,1.092,0,0,0-1.091-1.091H70.506a1.092,1.092,0,0,0-1.091,1.091v.3h1.379v1.214H69.4v8.034H68.02V68.7H69.4v8.034h1.393v.59a1.083,1.083,0,0,0,.2.629H69.605a1.1,1.1,0,0,0,.9.473H90.46a1.09,1.09,0,0,0,.9-.473h1.381a1.1,1.1,0,0,0,.2-.629v-.584H91.556V68.706H90.175V67.484h1.381v-.229a1.092,1.092,0,0,0-1.091-1.091H84.182a1.092,1.092,0,0,0-1.091,1.091v.229H81.7V68.7h1.379v.235a1.092,1.092,0,0,0,1.091,1.091h2.41a1.092,1.092,0,0,1,1.091,1.091v2.326a1.092,1.092,0,0,1-1.091,1.091h-12.2a1.092,1.092,0,0,1-1.091-1.091V68.706h-1.4V67.484h1.381V60.709H90.477a1.092,1.092,0,0,0,1.091-1.091v-.162h1.381V58.243H91.567Z" transform="translate(-54.64 -47.236)" fill="#fff"/>
      <path id="Path_146691" data-name="Path 146691" d="M76.871,42.72V34.687H78.25V33.473H76.871V25.437H75.5v-.786a2.055,2.055,0,0,0-.045-.433h1.381a2.18,2.18,0,0,0-2.142-1.748H38.255a2.18,2.18,0,0,0-2.142,1.748H34.735a2.257,2.257,0,0,0-.045.433v.786h1.379v8.036H37.45v1.214H36.069V42.72H34.693v1.216h1.379V51.97h1.381v1.216H36.071V56.6H34.693v1.216h1.379v3.414a2.18,2.18,0,0,0,2.181,2.038H74.685a2.182,2.182,0,0,0,1.7-.822,2.153,2.153,0,0,0,.473-1.216V57.812H75.5V56.6h1.381V53.187h1.379V51.973H76.877V43.94H75.5V42.718h1.376ZM73,43.937V51.97H74.38v1.216H73V56.6H71.62v.615a2.115,2.115,0,0,1-.1.6H72.9a2.179,2.179,0,0,1-2.086,1.577h-28.7a2.179,2.179,0,0,1-2.086-1.577H38.658a2.112,2.112,0,0,1-.1-.6V56.6h1.379V53.187h1.39V51.973H39.95V43.94H38.566V42.718h1.379V34.687h1.39V33.473H39.95V28.524a2.18,2.18,0,0,1,2.181-2.181h28.7a2.18,2.18,0,0,1,2.181,2.181v4.949h1.381v1.214H73.007V42.72H71.629v1.216Z" transform="translate(-30.63 -22.47)" fill="#fff"/>
      <rect id="Rectangle_1271" data-name="Rectangle 1271" width="2.676" height="0.607" transform="translate(0 30.113)" fill="#afafaf"/>
      <rect id="Rectangle_1272" data-name="Rectangle 1272" width="2.676" height="0.607" transform="translate(47.992 19.574)" fill="#5b5b5b"/>
      <path id="Path_146692" data-name="Path 146692" d="M251.609,81.858h-.154a6.056,6.056,0,0,1-.47.881,3.071,3.071,0,0,1-1.639,1.27,3.945,3.945,0,0,1-1.3.2,3.875,3.875,0,0,1-3.56-2.022,11.21,11.21,0,0,1-1.2-5.707,10.6,10.6,0,0,1,1.367-5.906,4.7,4.7,0,0,1,4.192-2.041,5.742,5.742,0,0,1,1.943.3,4.426,4.426,0,0,1,1.421.808,4.547,4.547,0,0,1,.979,1.174,7.442,7.442,0,0,1,.629,1.454l-2.181.727a8.969,8.969,0,0,0-.391-.945,3.272,3.272,0,0,0-.531-.791,2.229,2.229,0,0,0-.761-.542,2.647,2.647,0,0,0-1.091-.2,2.444,2.444,0,0,0-2.29,1.228,6.637,6.637,0,0,0-.7,3.319v2.413a10.96,10.96,0,0,0,.154,1.913,4.4,4.4,0,0,0,.509,1.49,2.514,2.514,0,0,0,2.332,1.317,2.582,2.582,0,0,0,2.033-.791,2.921,2.921,0,0,0,.7-2.027V78.024h-2.942V76.206h5.148v7.743h-2.2V81.858Z" transform="translate(-180.9 -55.648)" fill="#fff"/>
      <path id="Path_146693" data-name="Path 146693" d="M293.62,80.335h3.711v-12.2H293.62V66.2H299.7V80.335h3.711v1.929H293.62Z" transform="translate(-217.156 -53.972)" fill="#fff"/>
      <path id="Path_146694" data-name="Path 146694" d="M343.76,79.825h3.814V72.488H343.76V70.553h6.18v9.272h3.585v1.929h-9.762V79.825Zm5.016-11.311a1.751,1.751,0,0,1-1.272-.364,1.273,1.273,0,0,1-.363-.912v-.461a1.274,1.274,0,0,1,.363-.912,1.709,1.709,0,0,1,1.25-.364,1.732,1.732,0,0,1,1.27.364,1.251,1.251,0,0,1,.363.912v.453a1.246,1.246,0,0,1-.363.912A1.693,1.693,0,0,1,348.776,68.514Z" transform="translate(-253.276 -53.462)" fill="#fff"/>
      <path id="Path_146695" data-name="Path 146695" d="M393.448,84.613a2.781,2.781,0,0,1-2.181-.789,2.978,2.978,0,0,1-.693-2.047V75.346H387.12V73.411h2.452a1.266,1.266,0,0,0,.889-.252,1.211,1.211,0,0,0,.263-.9v-2.8h2.215v3.951h4.776v1.935H392.95v7.337h4.776v1.929Z" transform="translate(-284.512 -56.32)" fill="#fff"/>
      <path id="Path_146696" data-name="Path 146696" d="M443.287,94.413A5.8,5.8,0,0,1,441.036,94a4.571,4.571,0,0,1-1.669-1.172,5.108,5.108,0,0,1-1.026-1.846,8.413,8.413,0,0,1,0-4.874,5.1,5.1,0,0,1,1.026-1.818,4.638,4.638,0,0,1,1.669-1.172,5.734,5.734,0,0,1,2.229-.414,4.805,4.805,0,0,1,2.788.727,4.491,4.491,0,0,1,1.574,1.9l-1.843,1a2.736,2.736,0,0,0-.923-1.236,2.616,2.616,0,0,0-1.6-.459,2.666,2.666,0,0,0-2.086.817,3.141,3.141,0,0,0-.727,2.181v1.854a3.142,3.142,0,0,0,.727,2.181,2.708,2.708,0,0,0,2.131.828,2.842,2.842,0,0,0,1.706-.475,3.352,3.352,0,0,0,1.051-1.3l1.731,1.043a4.563,4.563,0,0,1-1.65,1.907A5.057,5.057,0,0,1,443.287,94.413Z" transform="translate(-321.15 -65.858)" fill="#fff"/>
      <path id="Path_146697" data-name="Path 146697" d="M486.85,66.2h2.366v6.775h.109a4.372,4.372,0,0,1,.447-.836,2.742,2.742,0,0,1,.663-.693,3.248,3.248,0,0,1,.926-.47,3.8,3.8,0,0,1,1.214-.173,3.6,3.6,0,0,1,2.737,1.091,4.375,4.375,0,0,1,1.043,3.149v7.226h-2.368V75.405q0-2.672-2.324-2.67a3.279,3.279,0,0,0-.889.12,2.651,2.651,0,0,0-.78.364,1.836,1.836,0,0,0-.554.61,1.69,1.69,0,0,0-.207.847v7.6h-2.366Z" transform="translate(-356.354 -53.972)" fill="#fff"/>
    </g>
  </g>
</svg>
