<svg id="Features-graph_1-DAO-Governed" xmlns="http://www.w3.org/2000/svg" xmlns:xlink="http://www.w3.org/1999/xlink" width="480" height="480" viewBox="0 0 480 480">
  <defs>
    <clipPath id="clip-path">
      <rect id="cell" width="480" height="480" fill="#fff" stroke="#707070" stroke-width="1"/>
    </clipPath>
  </defs>
  <g id="Mask_Group_2" data-name="Mask Group 2" clip-path="url(#clip-path)">
    <g id="_1-DAO-governed" data-name="1-DAO-governed">
      <path id="Path_145734" data-name="Path 145734" d="M321.985,47.66H127.4L30.13,216.17,127.4,384.68h194.58l97.29-168.51Z" transform="translate(15.065 23.83)" fill="none"/>
      <path id="Path_145735" data-name="Path 145735" d="M321.985,384.68,127.435,47.66m0,337.02V47.66M419.23,216.17,127.435,47.66m194.535,0L127.435,384.68m194.565,0V47.66M30.13,216.17,321.94,47.66m97.29,168.51H30.64m96.795,168.51L321.985,47.66M127.435,384.68V47.66M419.23,216.17,127.435,384.68m194.535,0L127.435,47.66M322,47.66V384.68M30.13,216.17,321.94,384.68" transform="translate(15.065 23.83)" fill="none" stroke="#707070" stroke-miterlimit="10" stroke-width="1"/>
      <circle id="Ellipse_1" data-name="Ellipse 1" cx="16" cy="16" r="16" transform="translate(126.47 55.49)" fill="#030303" stroke="#7ce3cb" stroke-miterlimit="10" stroke-width="1"/>
      <circle id="Ellipse_69" data-name="Ellipse 69" cx="16" cy="16" r="16" transform="translate(126.47 392.49)" fill="#030303" stroke="#7ce3cb" stroke-miterlimit="10" stroke-width="1"/>
      <circle id="Ellipse_70" data-name="Ellipse 70" cx="16" cy="16" r="16" transform="translate(29.47 224.49)" fill="#030303" stroke="#7ce3cb" stroke-miterlimit="10" stroke-width="1"/>
      <circle id="Ellipse_71" data-name="Ellipse 71" cx="16" cy="16" r="16" transform="translate(418.47 224.49)" fill="#030303" stroke="#7ce3cb" stroke-miterlimit="10" stroke-width="1"/>
      <circle id="Ellipse_67" data-name="Ellipse 67" cx="16" cy="16" r="16" transform="translate(319.47 55.49)" fill="#030303" stroke="#7ce3cb" stroke-miterlimit="10" stroke-width="1"/>
      <circle id="Ellipse_68" data-name="Ellipse 68" cx="16" cy="16" r="16" transform="translate(319.47 392.49)" fill="#030303" stroke="#7ce3cb" stroke-miterlimit="10" stroke-width="1"/>
      <g id="Group_2481" data-name="Group 2481" transform="translate(139.455 124.815)">
        <circle id="Ellipse_7" data-name="Ellipse 7" cx="3" cy="3" r="3" transform="translate(97.545 224.67)" fill="#030303" stroke="#7ce3cb" stroke-miterlimit="10" stroke-width="1"/>
        <circle id="Ellipse_8" data-name="Ellipse 8" cx="3" cy="3" r="3" transform="translate(0 168.345)" fill="#030303" stroke="#7ce3cb" stroke-miterlimit="10" stroke-width="1"/>
        <circle id="Ellipse_9" data-name="Ellipse 9" cx="3" cy="3" r="3" transform="translate(194.565 112.185)" fill="#030303" stroke="#7ce3cb" stroke-miterlimit="10" stroke-width="1"/>
        <circle id="Ellipse_10" data-name="Ellipse 10" cx="3" cy="3" r="3" transform="translate(194.565 168.24)" fill="#030303" stroke="#7ce3cb" stroke-miterlimit="10" stroke-width="1"/>
        <circle id="Ellipse_11" data-name="Ellipse 11" cx="3" cy="3" r="3" transform="translate(194.399 55.92)" fill="#030303" stroke="#7ce3cb" stroke-miterlimit="10" stroke-width="1"/>
        <circle id="Ellipse_12" data-name="Ellipse 12" cx="3" cy="3" r="3" transform="translate(145.934 196.41)" fill="#030303" stroke="#7ce3cb" stroke-miterlimit="10" stroke-width="1"/>
        <circle id="Ellipse_13" data-name="Ellipse 13" cx="3" cy="3" r="3" transform="translate(48.675 196.41)" fill="#030303" stroke="#7ce3cb" stroke-miterlimit="10" stroke-width="1"/>
        <circle id="Ellipse_14" data-name="Ellipse 14" cx="3" cy="3" r="3" transform="translate(97.02 112.335)" fill="#030303" stroke="#7ce3cb" stroke-miterlimit="10" stroke-width="1"/>
        <circle id="Ellipse_15" data-name="Ellipse 15" cx="3" cy="3" r="3" transform="translate(145.95 27.93)" fill="#030303" stroke="#7ce3cb" stroke-miterlimit="10" stroke-width="1"/>
        <circle id="Ellipse_16" data-name="Ellipse 16" cx="3" cy="3" r="3" transform="translate(97.545)" fill="#030303" stroke="#7ce3cb" stroke-miterlimit="10" stroke-width="1"/>
        <circle id="Ellipse_17" data-name="Ellipse 17" cx="3" cy="3" r="3" transform="translate(48.66 27.93)" fill="#030303" stroke="#7ce3cb" stroke-miterlimit="10" stroke-width="1"/>
        <circle id="Ellipse_18" data-name="Ellipse 18" cx="3" cy="3" r="3" transform="translate(0.179 55.92)" fill="#030303" stroke="#7ce3cb" stroke-miterlimit="10" stroke-width="1"/>
        <circle id="Ellipse_19" data-name="Ellipse 19" cx="3" cy="3" r="3" transform="translate(0.179 112.185)" fill="#030303" stroke="#7ce3cb" stroke-miterlimit="10" stroke-width="1"/>
      </g>
      <rect id="Rectangle_1171" data-name="Rectangle 1171" width="480" height="480" fill="none"/>
    </g>
  </g>
</svg>
