<svg id="Members-curvegrid" xmlns="http://www.w3.org/2000/svg" width="145.8" height="32.137" viewBox="0 0 145.8 32.137">
  <path id="Combined-Shape" d="M17.249,8.624H10.167A9.034,9.034,0,0,1,11.1,7.347a8.549,8.549,0,0,1,6.146-2.9V8.624Zm.784,0V4.446a6.265,6.265,0,0,1,1.441.245,8.294,8.294,0,0,1,1.631.664,6.78,6.78,0,0,1,1.351.948,5.4,5.4,0,0,1,.932,1.075l1.957-1.486a8.285,8.285,0,0,0-3.51-2.719,11.027,11.027,0,0,0-3.8-.818V0h-.784V2.361a11.433,11.433,0,0,0-4.065.876,11.072,11.072,0,0,0-3.634,2.45A11.259,11.259,0,0,0,7.142,9.4a12.445,12.445,0,0,0-.87,4.71,12.445,12.445,0,0,0,.87,4.71,11.259,11.259,0,0,0,2.407,3.715,11.072,11.072,0,0,0,3.634,2.45,11.433,11.433,0,0,0,4.065.876v.793h.784v-.788a10.225,10.225,0,0,0,2.3-.312,10.6,10.6,0,0,0,2.283-.869,8.737,8.737,0,0,0,1.879-1.312,8.629,8.629,0,0,0,1.382-1.612L24.04,20.435a7.593,7.593,0,0,1-1.351,1.628,6.325,6.325,0,0,1-1.553,1.027,7.071,7.071,0,0,1-1.677.537,9.45,9.45,0,0,1-1.426.153V18.033h8.624v8.624H0V0H26.657V8.624Zm-.784,9.408v5.743a8.549,8.549,0,0,1-6.146-2.9,9.3,9.3,0,0,1-1.7-2.845Z" transform="translate(0 0)" fill="#fff"/>
  <path id="Combined-Shape-2" data-name="Combined-Shape" d="M17,20.92V17h3.92v3.92Z" transform="translate(-3.672 -3.672)" fill="#fff"/>
  <path id="Combined-Shape-3" data-name="Combined-Shape" d="M31.624,20.92V17H23v3.92Z" transform="translate(-4.967 -3.672)" fill="#fff"/>
  <path id="urvegrid" d="M140.229,16.989a6.733,6.733,0,0,0,.4,2.341,5.628,5.628,0,0,0,1.138,1.892,5.346,5.346,0,0,0,1.779,1.267,5.724,5.724,0,0,0,2.357.465,6.1,6.1,0,0,0,2.389-.465,5.9,5.9,0,0,0,1.908-1.267,5.729,5.729,0,0,0,1.25-1.892,6.33,6.33,0,0,0,0-4.682,5.729,5.729,0,0,0-1.25-1.892,5.9,5.9,0,0,0-1.908-1.267,6.1,6.1,0,0,0-2.389-.465,5.724,5.724,0,0,0-2.357.465,5.346,5.346,0,0,0-1.779,1.267,5.628,5.628,0,0,0-1.138,1.892A6.733,6.733,0,0,0,140.229,16.989Zm13.691,7.5H151.8v-2.5h-.064a5.507,5.507,0,0,1-1.218,1.315,7.564,7.564,0,0,1-1.475.9,7.055,7.055,0,0,1-1.587.513,8.088,8.088,0,0,1-1.555.16,8.477,8.477,0,0,1-3.222-.593,7.438,7.438,0,0,1-4.168-4.153,8.623,8.623,0,0,1,0-6.286,7.438,7.438,0,0,1,4.168-4.153A8.477,8.477,0,0,1,145.9,9.1a8.088,8.088,0,0,1,1.555.16,7.055,7.055,0,0,1,1.587.513,7.564,7.564,0,0,1,1.475.9,5.507,5.507,0,0,1,1.218,1.315h.064V.249h2.116ZM134.33,3.712a1.422,1.422,0,0,1-.481,1.106,1.509,1.509,0,0,1-2.116,0,1.422,1.422,0,0,1-.481-1.106,1.422,1.422,0,0,1,.481-1.106,1.509,1.509,0,0,1,2.116,0A1.422,1.422,0,0,1,134.33,3.712Zm-.481,20.781h-2.116V9.485h2.116ZM120.831,14.167q0-.994-.048-2.02t-.08-2.662h2.084v2.79h.064a4.666,4.666,0,0,1,.641-1.171,5.024,5.024,0,0,1,1.01-1.01,4.959,4.959,0,0,1,1.379-.722,5.41,5.41,0,0,1,1.779-.273,5.743,5.743,0,0,1,1.571.192l-.417,2.085a3.559,3.559,0,0,0-1.218-.16,4.349,4.349,0,0,0-2.084.465,4.621,4.621,0,0,0-1.443,1.187,4.93,4.93,0,0,0-.85,1.555,5.155,5.155,0,0,0-.273,1.6v8.467h-2.116ZM102.556,16.8a5.753,5.753,0,0,0,.433,2.229,5.862,5.862,0,0,0,1.186,1.828,5.751,5.751,0,0,0,1.763,1.251,5.187,5.187,0,0,0,2.2.465,5.879,5.879,0,0,0,4.04-1.587,5.105,5.105,0,0,0,1.234-1.812,5.835,5.835,0,0,0,.4-2.373,6.385,6.385,0,0,0-.385-2.229A5.345,5.345,0,0,0,112.3,12.74a5.417,5.417,0,0,0-1.8-1.251,5.837,5.837,0,0,0-2.373-.465,5.187,5.187,0,0,0-2.2.465,5.751,5.751,0,0,0-1.763,1.251,5.862,5.862,0,0,0-1.186,1.828A5.753,5.753,0,0,0,102.556,16.8Zm-.385,10.711a6.758,6.758,0,0,0,2.421,2,7.25,7.25,0,0,0,3.318.754,7.118,7.118,0,0,0,2.725-.465,4.722,4.722,0,0,0,1.812-1.267,4.878,4.878,0,0,0,.994-1.876,8.372,8.372,0,0,0,.3-2.293V21.671h-.064a5.778,5.778,0,0,1-2.5,2.181,7.715,7.715,0,0,1-3.11.641,8.086,8.086,0,0,1-3.062-.577,7.786,7.786,0,0,1-2.485-1.587,7.311,7.311,0,0,1-1.667-2.421,7.6,7.6,0,0,1-.609-3.047,7.97,7.97,0,0,1,.577-3.047,7.833,7.833,0,0,1,1.587-2.469,7.153,7.153,0,0,1,2.4-1.652,7.743,7.743,0,0,1,3.062-.593,8.515,8.515,0,0,1,1.427.128,6.725,6.725,0,0,1,1.507.449,6.942,6.942,0,0,1,2.87,2.309h.064v-2.5h2.116V24.365a12.069,12.069,0,0,1-.3,2.6,6.41,6.41,0,0,1-1.186,2.534,6.748,6.748,0,0,1-2.453,1.924,9.368,9.368,0,0,1-4.1.77,10.3,10.3,0,0,1-4.008-.738,9.311,9.311,0,0,1-3.206-2.277ZM94.783,16.15a4.741,4.741,0,0,0-1.266-3.434A4.69,4.69,0,0,0,89.974,11.4a5.052,5.052,0,0,0-1.962.4,5.521,5.521,0,0,0-1.661,1.06,5.317,5.317,0,0,0-1.139,1.519,3.917,3.917,0,0,0-.427,1.772ZM84.722,17.859a6.356,6.356,0,0,0,.538,2.089,5.459,5.459,0,0,0,2.847,2.816,5.115,5.115,0,0,0,2.056.411,5.276,5.276,0,0,0,2.895-.775,5.793,5.793,0,0,0,1.851-1.788l1.614,1.329A8.026,8.026,0,0,1,93.6,24.346a8.182,8.182,0,0,1-3.433.728,7.872,7.872,0,0,1-3.053-.585,7.151,7.151,0,0,1-2.42-1.63,7.721,7.721,0,0,1-1.6-2.468,8.079,8.079,0,0,1-.585-3.1,8.277,8.277,0,0,1,.569-3.1,7.508,7.508,0,0,1,1.582-2.468,7.274,7.274,0,0,1,2.373-1.63A7.364,7.364,0,0,1,89.974,9.5a7.214,7.214,0,0,1,3.006.6,6.669,6.669,0,0,1,2.23,1.6,6.84,6.84,0,0,1,1.376,2.342,8.544,8.544,0,0,1,.475,2.864v.949ZM74.535,24.694H72.193L66.182,9.884h2.5L73.4,22.352h.063L78.173,9.884h2.373ZM55.408,14.5q0-.981-.047-1.994t-.079-2.627h2.056v2.753H57.4a4.6,4.6,0,0,1,.633-1.155,4.958,4.958,0,0,1,1-1,4.893,4.893,0,0,1,1.36-.712A5.338,5.338,0,0,1,62.147,9.5a5.667,5.667,0,0,1,1.55.19l-.411,2.057a3.512,3.512,0,0,0-1.2-.158,4.291,4.291,0,0,0-2.056.459A4.56,4.56,0,0,0,58.6,13.223a4.865,4.865,0,0,0-.838,1.535A5.087,5.087,0,0,0,57.5,16.34v8.354H55.408Zm-7.119,10.19q-.063-.6-.079-1.187t-.016-1.187h-.063a4.871,4.871,0,0,1-.886,1.108,5.833,5.833,0,0,1-1.2.87,6.562,6.562,0,0,1-1.408.57,5.5,5.5,0,0,1-1.471.206,5.4,5.4,0,0,1-4.208-1.5,6.173,6.173,0,0,1-1.36-4.288v-9.4h2.088v8.2a11.22,11.22,0,0,0,.19,2.184,4.14,4.14,0,0,0,.649,1.6,2.849,2.849,0,0,0,1.234.981,4.958,4.958,0,0,0,1.946.332,8.008,8.008,0,0,0,.886-.127,3.854,3.854,0,0,0,1.534-.7,5.029,5.029,0,0,0,1.44-1.709,6.571,6.571,0,0,0,.633-3.165V9.884h2.088V21.435q0,.6.047,1.519t.111,1.74Z" transform="translate(-8.12 -0.054)" fill="#fff"/>
</svg>
