<svg id="Members-hashed_logo" xmlns="http://www.w3.org/2000/svg" width="99" height="25.377" viewBox="0 0 99 25.377">
  <path id="Path_146597" data-name="Path 146597" d="M339.35,220.626c.277-1.337.547-2.657.841-3.969.942-4.482,1.9-8.964,2.834-13.454.067-.311.185-.412.5-.412,2.195,0,4.381,0,6.576.067a4.818,4.818,0,0,1,1.867.471c1.421.673,1.758,2,1.825,3.422a19.274,19.274,0,0,1-.563,4.8,21.3,21.3,0,0,1-1.438,4.97A6.652,6.652,0,0,1,347,220.5a7.627,7.627,0,0,1-1.514.143h-5.811Zm4.289-2.75h2.321a2.287,2.287,0,0,0,1.808-1.169,6.838,6.838,0,0,0,.774-1.623c.429-1.572.841-3.162,1.144-4.759a16.045,16.045,0,0,0,.3-3.153,1.556,1.556,0,0,0-1.682-1.682h-1.522c-.5,0-.605.093-.69.53-.6,2.926-1.219,5.836-1.833,8.754-.16,1.051-.412,2.069-.622,3.111Z" transform="translate(-254.789 -195.625)" fill="#fff"/>
  <path id="Path_146598" data-name="Path 146598" d="M273.8,220.625h-3.7c.555-2.64,1.11-5.247,1.682-7.9h-4.2c-.193.891-.387,1.791-.58,2.708-.345,1.589-.69,3.187-1.009,4.785-.067.328-.168.446-.513.437H262.2c.252-1.211.488-2.38.732-3.54q1.463-6.9,2.918-13.808c.076-.378.2-.53.605-.513h3.2l-1.488,7.1h4.2c.252-1.2.513-2.422.774-3.641.219-1.043.437-2.077.673-3.111a.422.422,0,0,1,.294-.328h3.464C276.327,208.785,275.049,214.739,273.8,220.625Z" transform="translate(-242.514 -195.625)" fill="#fff"/>
  <path id="Path_146599" data-name="Path 146599" d="M319.277,212.7h-3.986c-.294,0-.311.185-.353.4-.5,2.355-1,4.709-1.5,7.072a2.142,2.142,0,0,1-.118.471H309.64c.2-.95.4-1.892.589-2.825,1.009-4.793,2.035-9.586,3.019-14.379.109-.5.294-.673.841-.648.841.05,1.682,0,2.472,0h.572l-1.5,7.114h2.91c.437,0,.992.118,1.278-.1s.244-.782.328-1.2c.387-1.8.774-3.591,1.144-5.4.067-.345.21-.454.563-.446H325.1c-1.261,5.979-2.523,11.9-3.759,17.827h-3.7Z" transform="translate(-250.062 -195.619)" fill="#fff"/>
  <path id="Path_146600" data-name="Path 146600" d="M291.624,220.623h-3.877l-.74-12.614h-.084l-.227.437q-2.859,5.886-5.71,11.773a.631.631,0,0,1-.681.42H277.06c.092-.219.16-.37.235-.521q4.1-8.409,8.2-16.894a.681.681,0,0,1,.723-.446h3.994c.3,0,.412.084.429.4q.5,8.628,1,17.247C291.641,220.488,291.633,220.539,291.624,220.623Z" transform="translate(-244.879 -195.623)" fill="#fff"/>
  <path id="Path_146601" data-name="Path 146601" d="M295.436,215.122h3.641c-.059.538-.151,1.051-.168,1.564-.042,1.034.446,1.522,1.488,1.539a2.363,2.363,0,0,0,2.523-2.3,1.951,1.951,0,0,0-.841-1.682c-.572-.471-1.186-.891-1.791-1.337-.37-.269-.757-.521-1.118-.79a4.389,4.389,0,0,1-1.774-5.39,5.575,5.575,0,0,1,4.558-4.078,10.6,10.6,0,0,1,3.784-.067,2.935,2.935,0,0,1,2.716,3.212,10.521,10.521,0,0,1-.252,1.682.382.382,0,0,1-.277.294H304.56c.042-.454.1-.841.109-1.236,0-1.076-.555-1.564-1.623-1.446a2.136,2.136,0,0,0-1.926,1.589,1.943,1.943,0,0,0,.7,2.3c.8.614,1.682,1.135,2.523,1.732a9.441,9.441,0,0,1,1.6,1.455,3.9,3.9,0,0,1,.79,3.532,5.687,5.687,0,0,1-3.851,4.776,10.873,10.873,0,0,1-5.172.294,4.2,4.2,0,0,1-1.085-.345,2.683,2.683,0,0,1-1.488-1.926,6.8,6.8,0,0,1,.3-3.372Z" transform="translate(-247.74 -195.57)" fill="#fff"/>
  <path id="Path_146602" data-name="Path 146602" d="M330.37,217.916h6.155l-.572,2.716H326.09c.219-1.043.429-2.077.647-3.111q1.514-7.139,3.019-14.3c.059-.286.126-.446.471-.446h8.956a1.077,1.077,0,0,1,.328.042c-.177.841-.336,1.682-.538,2.472,0,.1-.286.2-.446.2h-5.045c-.4,0-.538.109-.614.5-.244,1.295-.538,2.573-.841,3.919h5.483l-.345,1.724c-.21,1.043-.21,1.043-1.261,1.043h-4.045c-.16,0-.429.135-.454.244C331.06,214.578,330.723,216.209,330.37,217.916Z" transform="translate(-252.679 -195.624)" fill="#fff"/>
  <path id="Path_146603" data-name="Path 146603" d="M248.755,219.27l1.682-7.955h-3.784c-.454,0-.521.21-.589.538-.5,2.388-1.009,4.776-1.514,7.164a.4.4,0,0,1-.059.244h-3.683l1.682-7.921h-3.7c.193-.917.353-1.757.555-2.582,0-.092.278-.168.42-.177h2.859c.32,0,.471-.067.538-.412.261-1.32.555-2.632.841-4.011h-3.7c.185-.883.345-1.682.547-2.523,0-.1.261-.2.4-.2h2.9c.336,0,.463-.1.53-.437.42-2.077.841-4.154,1.3-6.239.076-.345.193-.5.58-.488h3.229l-1.488,7.114h4.2q.286-1.337.58-2.7c.286-1.354.572-2.7.841-4.045,0-.135.151-.345.235-.345h3.532l-1.5,7.131h3.692l-.563,2.733h-3.1c-.446,0-.664.084-.748.58-.219,1.261-.513,2.523-.79,3.835h3.7c-.185.9-.353,1.732-.555,2.523,0,.1-.261.193-.4.2h-2.9c-.345,0-.462.109-.53.437-.488,2.371-1,4.743-1.5,7.114-.059.311-.16.429-.479.42ZM246.8,208.557h3.986c.1,0,.261-.193.294-.328.151-.631.278-1.27.4-1.9s.294-1.413.446-2.136h-4.2c-.294,1.371-.58,2.716-.841,4.062a2.2,2.2,0,0,0-.084.311Z" transform="translate(-238.79 -194.27)" fill="#fff"/>
</svg>
