<svg id="Members-Pantera-logo" xmlns="http://www.w3.org/2000/svg" xmlns:xlink="http://www.w3.org/1999/xlink" width="151.2" height="11.292" viewBox="0 0 151.2 11.292">
  <defs>
    <clipPath id="clip-path">
      <rect id="Rectangle_1247" data-name="Rectangle 1247" width="151.2" height="11.292" fill="#fff"/>
    </clipPath>
  </defs>
  <g id="Group_2826" data-name="Group 2826">
    <path id="Path_146557" data-name="Path 146557" d="M35.079,1.462l.052.1,3.061,5.6H31.938ZM33.875,0l-6.2,11.291h2.015l1.36-2.545h8.034l1.361,2.545h2.014L36.257,0Z" transform="translate(-6.216)" fill="#fff"/>
    <path id="Path_146558" data-name="Path 146558" d="M72.172,0V9.451l-.1-.1L63.04,0H60.71V11.291h1.832V1.865l.105.1,9,9.325H74.03V0Z" transform="translate(-15.529 0)" fill="#fff"/>
    <path id="Path_146559" data-name="Path 146559" d="M91.792,0V1.588h5.653V3.5h-3.69V5.092h3.69v6.2H99.3v-6.2h3.69V3.5H99.3V1.588h5.653V0Z" transform="translate(-23.476 0)" fill="#fff"/>
    <path id="Path_146560" data-name="Path 146560" d="M122.705,0V11.291h12.271V9.7h-10.44V6.452h6.933V4.864h-6.933V1.588h10.44V0Z" transform="translate(-31.359 0)" fill="#fff"/>
    <path id="Path_146561" data-name="Path 146561" d="M190.813,1.462l.053.1,3.062,5.6h-6.254ZM189.584,0l-6.2,11.291H185.4l1.36-2.545h8.034l.026.025,1.334,2.521h2.014L191.99,0Z" transform="translate(-46.966)" fill="#fff"/>
    <g id="Group_2816" data-name="Group 2816">
      <g id="Group_2815" data-name="Group 2815" clip-path="url(#clip-path)">
        <path id="Path_146562" data-name="Path 146562" d="M9.25,0H0V11.292h1.79V6.932H9.25a3.486,3.486,0,0,0,3.478-3.478A3.5,3.5,0,0,0,9.25,0m0,5.343H1.789V1.589H9.25a1.878,1.878,0,0,1,0,3.755" transform="translate(0 0)" fill="#fff"/>
        <path id="Path_146563" data-name="Path 146563" d="M162.7,6.882a3.466,3.466,0,0,0-.6-6.881H152.84V11.292h1.79V6.932h5.847l.025.025,3.075,4.335h2.067l-3-4.41Zm-8.041-1.538V1.589h7.46a1.86,1.86,0,0,1,1.865,1.865,1.882,1.882,0,0,1-1.865,1.89Z" transform="translate(-38.691 0)" fill="#fff"/>
      </g>
    </g>
  </g>
</svg>
