<svg id="Features-graph_4-Platform-Native_mobile" xmlns="http://www.w3.org/2000/svg" width="184.754" height="184.526" viewBox="0 0 184.754 184.526">
  <rect id="cell" width="184" height="184" transform="translate(0.495 0.386)" fill="none"/>
  <g id="_4-Platform_Native_1" data-name="4-Platform Native_1" transform="translate(0.495 0.386)">
    <rect id="Rect치ngulo_1224" data-name="Rect치ngulo 1224" width="184" height="184" fill="none"/>
    <g id="parentesis" transform="translate(65.484 64.718)">
      <path id="Trazado_146397" data-name="Trazado 146397" d="M174.222,176.37,158.54,203.536,174.222,230.7" transform="translate(-160.54 -176.37)" fill="none" stroke="#878888" stroke-miterlimit="10" stroke-width="0.75"/>
      <path id="Trazado_146398" data-name="Trazado 146398" d="M280.51,230.7l15.682-27.166L280.51,176.37" transform="translate(-241.45 -176.37)" fill="none" stroke="#878888" stroke-miterlimit="10" stroke-width="0.75"/>
    </g>
    <g id="_4-Platform_Native" data-name=" 4-Platform Native" transform="translate(44.996 40.003)">
      <path id="Trazado_145780" data-name="Trazado 145780" d="M170.73,119.33v10.488l6.568,11.158" transform="translate(-149.58 -111.784)" fill="none" stroke="#878888" stroke-miterlimit="10" stroke-width="0.75"/>
      <path id="Trazado_145781" data-name="Trazado 145781" d="M299.378,119.33v10.558l-7.318,11.035" transform="translate(-227.893 -111.784)" fill="none" stroke="#878888" stroke-miterlimit="10" stroke-width="0.75"/>
      <path id="Trazado_145784" data-name="Trazado 145784" d="M121.081,225.9h6.844l10.024-8.616" transform="translate(-116.412 -174.076)" fill="none" stroke="#878888" stroke-miterlimit="10" stroke-width="0.75"/>
      <path id="Trazado_145784-2" data-name="Trazado 145784" d="M136.949,217.28h-6.844L120.081,225.9" transform="translate(-47.321 -164.839)" fill="none" stroke="#878888" stroke-miterlimit="10" stroke-width="0.75"/>
      <path id="Trazado_145787" data-name="Trazado 145787" d="M138.5,104.46l1.291,2.244h22.146l1.291-2.244" transform="translate(-129.692 -101.46)" fill="none" stroke="#878888" stroke-miterlimit="10" stroke-width="0.75"/>
      <path id="Trazado_145797" data-name="Trazado 145797" d="M91.5,233.031l2.244-1.3V209.594L91.5,208.3" transform="translate(-90.5 -168.535)" fill="none" stroke="#878888" stroke-miterlimit="10" stroke-width="0.75"/>
      <path id="Trazado_145797-2" data-name="Trazado 145797" d="M93.744,208.3,91.5,209.6v22.138l2.244,1.294" transform="translate(-0.447 -168.535)" fill="none" stroke="#878888" stroke-miterlimit="10" stroke-width="0.75"/>
      <path id="Trazado_145802" data-name="Trazado 145802" d="M277.11,104.46l1.3,2.244h22.138l1.294-2.244" transform="translate(-218.668 -101.46)" fill="none" stroke="#878888" stroke-miterlimit="10" stroke-width="0.75"/>
      <circle id="Elipse_41" data-name="Elipse 41" cx="1.149" cy="1.149" r="1.149" transform="translate(20.001 16.899)" fill="#030303" stroke="#7ce3cb" stroke-miterlimit="10" stroke-width="0.75"/>
      <circle id="Elipse_42" data-name="Elipse 42" cx="1.149" cy="1.149" r="1.149" transform="translate(10.37 50.672)" fill="#030303" stroke="#7ce3cb" stroke-miterlimit="10" stroke-width="0.75"/>
      <ellipse id="Elipse_42-2" data-name="Elipse 42" cx="1.149" cy="1.149" rx="1.149" ry="1.149" transform="translate(81.629 51.292)" fill="#030303" stroke="#7ce3cb" stroke-miterlimit="10" stroke-width="0.75"/>
      <circle id="Elipse_44" data-name="Elipse 44" cx="1.149" cy="1.149" r="1.149" transform="translate(70.336 16.899)" fill="#030303" stroke="#7ce3cb" stroke-miterlimit="10" stroke-width="0.75"/>
      <path id="Trazado_145809" data-name="Trazado 145809" d="M138.35,371.468l1.287-2.248h22.146l1.294,2.248" transform="translate(-129.217 -270.512)" fill="none" stroke="#878888" stroke-miterlimit="10" stroke-width="0.75"/>
      <path id="Trazado_145814" data-name="Trazado 145814" d="M277.11,371.468l1.3-2.248h22.138l1.294,2.248" transform="translate(-218.668 -270.129)" fill="none" stroke="#878888" stroke-miterlimit="10" stroke-width="0.75"/>
      <g id="cardano-logo" transform="translate(39.129 24.102)">
        <rect id="cell-2" data-name="cell" width="16.332" height="16.332" transform="translate(0)" fill="none"/>
        <path id="Trazado_146313" data-name="Trazado 146313" d="M481.973,40.638c.352-.17.782.224.6.549a.475.475,0,0,1-.731.134.409.409,0,0,1,.136-.683m-3.789.377a.339.339,0,1,1-.042.61.322.322,0,0,1,.042-.61m7.76.617a.321.321,0,0,1-.066-.621.343.343,0,1,1,.066.621m-6.9.873a.55.55,0,0,1,.813.486.561.561,0,0,1-.89.35.487.487,0,0,1,.077-.836m5.461.222a.574.574,0,0,1,.988-.022.526.526,0,0,1-.361.742c-.424.073-.826-.35-.627-.721m-2.991.7a.657.657,0,0,1,.655-.592.725.725,0,0,1,.561.337.577.577,0,0,1-.3.813.924.924,0,0,1-.482.039.649.649,0,0,1-.432-.6m-5.635.476c.327-.186.768.153.644.481a.471.471,0,0,1-.717.218.407.407,0,0,1,.073-.7m12.1,0a.434.434,0,1,1,.049.718.4.4,0,0,1-.049-.718m-4.88.587a1.145,1.145,0,0,1,1.262.407.975.975,0,0,1-.373,1.427,1.135,1.135,0,0,1-1.565-.523.993.993,0,0,1,.676-1.311m-2.684.05a1.146,1.146,0,0,1,1.434.444.973.973,0,0,1-.45,1.357,1.142,1.142,0,0,1-1.494-.435.984.984,0,0,1,.509-1.365m-2.688.849a.672.672,0,0,1,.658-.519.7.7,0,0,1,.639.591.655.655,0,0,1-.637.611.611.611,0,0,1-.66-.684m7.939-.453a.621.621,0,1,1-.048,1.03.577.577,0,0,1,.048-1.03m-6.344,1.593a1.139,1.139,0,0,1,1.238.484.956.956,0,0,1-.243,1.254,1.148,1.148,0,0,1-1.7-.331,1,1,0,0,1,.7-1.408m5.092,0a1.149,1.149,0,0,1,1.239.426.965.965,0,0,1-.314,1.379,1.152,1.152,0,0,1-1.57-.358,1,1,0,0,1,.644-1.447m-8.114.5c.406-.142.856.272.691.644a.566.566,0,0,1-.884.214.5.5,0,0,1,.193-.858m11,.54a.592.592,0,0,1,.579-.6c.278.041.549.248.526.528a.548.548,0,0,1-.8.447.694.694,0,0,1-.309-.371m-13-.357c.244-.1.546.1.49.347a.363.363,0,0,1-.633.156A.322.322,0,0,1,474.306,47.21Zm15.4-.006a.365.365,0,0,1,.516.154.326.326,0,0,1-.343.446.321.321,0,0,1-.172-.6m-9.053,1.362a1.089,1.089,0,0,1,1.337.952,1.075,1.075,0,0,1-1.3,1.023,1,1,0,0,1-.041-1.975m2.545,0a1.029,1.029,0,1,1,.085,1.977,1.016,1.016,0,0,1-.884-1.231,1.059,1.059,0,0,1,.8-.746m-4.907.376c.451-.071.874.394.691.79a.67.67,0,0,1-1.092.192.591.591,0,0,1,.4-.982m7.463.019a.639.639,0,0,1,.866.569.651.651,0,0,1-.987.491.581.581,0,0,1,.122-1.061m2.086,1.933a.421.421,0,0,1,.455-.581.562.562,0,0,1,.38.215c.021.161.057.353-.087.477a.468.468,0,0,1-.747-.111m-11.957-.505a.451.451,0,0,1,.675.421.468.468,0,0,1-.7.292.4.4,0,0,1,.02-.714M481.9,51a.635.635,0,0,1,.87.565.645.645,0,0,1-.989.49A.581.581,0,0,1,481.9,51m-2.789.6a.543.543,0,0,1,.765.472.526.526,0,0,1-.6.492.6.6,0,0,1-.5-.418.56.56,0,0,1,.341-.546m5.65.005a.53.53,0,1,1-.065.849.491.491,0,0,1,.065-.849m.982,2.244a.354.354,0,0,1,.28-.529c.2.038.418.179.375.4a.37.37,0,0,1-.655.132m-7.8-.189a.392.392,0,0,1,.431-.3.323.323,0,0,1,.135.6.384.384,0,0,1-.566-.305m3.763.2a.46.46,0,0,1,.654-.243.479.479,0,0,1,.241.359c-.021.071-.04.142-.059.214a.518.518,0,0,1-.381.207.423.423,0,0,1-.455-.536" transform="translate(-474.09 -39.967)" fill="#7ce3cb"/>
      </g>
      <g id="hyperledger-logo" transform="translate(39.132 67.268)">
        <g id="Grupo_2545" data-name="Grupo 2545" transform="translate(0 0.804)">
          <path id="Trazado_146314" data-name="Trazado 146314" d="M478.785,194.027a.078.078,0,0,1-.063-.033l-4.618-6.539a.079.079,0,0,1-.007-.077l3.345-7.276a.077.077,0,0,1,.063-.045l7.962-.737a.073.073,0,0,1,.07.032l4.618,6.539a.077.077,0,0,1,.007.077l-3.344,7.276a.077.077,0,0,1-.063.045l-7.962.736Zm-4.529-6.625,4.566,6.466,7.873-.728L490,185.945l-4.566-6.466-7.873.728Z" transform="translate(-474.09 -179.32)" fill="#7ce3cb"/>
          <path id="Trazado_146315" data-name="Trazado 146315" d="M486.049,195.653,484.771,189l-.006-7.274,6.227,1.833,6.457,4.017-4.8,4.263Zm-1.207-13.824.005,7.163,1.257,6.54,6.5-3.757,4.711-4.189-6.364-3.959Z" transform="translate(-481.382 -180.963)" fill="#7ce3cb"/>
          <circle id="Elipse_73" data-name="Elipse 73" cx="0.232" cy="0.232" r="0.232" transform="translate(9.48 2.436)" fill="#7ce3cb"/>
          <path id="Trazado_146316" data-name="Trazado 146316" d="M503.7,187.186a.479.479,0,1,1,.478-.479h0A.479.479,0,0,1,503.7,187.186Zm0-.492-.014.014a.015.015,0,0,0,.014.014Z" transform="translate(-493.99 -184.039)" fill="#7ce3cb"/>
          <circle id="Elipse_74" data-name="Elipse 74" cx="0.232" cy="0.232" r="0.232" transform="translate(11.028 10.599)" fill="#7ce3cb"/>
          <path id="Trazado_146317" data-name="Trazado 146317" d="M508.586,212.944a.479.479,0,1,1,.478-.479h0A.479.479,0,0,1,508.586,212.944Zm0-.493-.014.014a.014.014,0,0,0,.014.014Z" transform="translate(-497.326 -201.634)" fill="#7ce3cb"/>
          <circle id="Elipse_75" data-name="Elipse 75" cx="0.232" cy="0.232" r="0.232" transform="translate(4.52 14.397)" fill="#7ce3cb"/>
          <path id="Trazado_146318" data-name="Trazado 146318" d="M488.052,224.928a.479.479,0,1,1,.478-.479h0A.479.479,0,0,1,488.052,224.928Zm0-.492-.014.014a.014.014,0,0,0,.014.014Z" transform="translate(-483.3 -209.82)" fill="#7ce3cb"/>
          <circle id="Elipse_76" data-name="Elipse 76" cx="0.232" cy="0.232" r="0.232" transform="translate(3.19 7.874)" fill="#7ce3cb"/>
          <path id="Trazado_146319" data-name="Trazado 146319" d="M483.855,204.346a.478.478,0,1,1,.478-.479h0A.479.479,0,0,1,483.855,204.346Zm0-.492-.014.014a.015.015,0,0,0,.014.014Z" transform="translate(-480.434 -195.761)" fill="#7ce3cb"/>
          <circle id="Elipse_77" data-name="Elipse 77" cx="0.232" cy="0.232" r="0.232" transform="translate(15.77 6.397)" fill="#7ce3cb"/>
          <path id="Trazado_146320" data-name="Trazado 146320" d="M523.549,199.683a.478.478,0,1,1,.478-.479h0A.479.479,0,0,1,523.549,199.683Zm0-.492-.014.014a.015.015,0,0,0,.014.014Z" transform="translate(-507.548 -192.576)" fill="#7ce3cb"/>
          <circle id="Elipse_78" data-name="Elipse 78" cx="0.232" cy="0.232" r="0.232" transform="translate(3.19 0.582)" fill="#7ce3cb"/>
          <path id="Trazado_146321" data-name="Trazado 146321" d="M483.855,181.336a.478.478,0,1,1,.478-.479h0A.479.479,0,0,1,483.855,181.336Zm0-.492-.014.014a.014.014,0,0,0,.014.014Z" transform="translate(-480.433 -180.043)" fill="#7ce3cb"/>
          <path id="Trazado_146322" data-name="Trazado 146322" d="M486.747,193.29a.072.072,0,0,1-.026,0l-6.071-2.143-6.521-3.666a.077.077,0,0,1-.015-.124l4.907-4.5,6.415-3.527a.077.077,0,0,1,.069,0,.078.078,0,0,1,.044.054l1.437,6.319-.162,7.515a.077.077,0,0,1-.033.062.075.075,0,0,1-.044.013ZM474.3,187.4,480.714,191l5.958,2.1.162-7.39-1.413-6.2-6.31,3.467Z" transform="translate(-474.09 -179.32)" fill="#7ce3cb"/>
          <path id="Trazado_146323" data-name="Trazado 146323" d="M492.668,195.852l-.032-.011-7.869-2.736.026-.022,6.315-5.461Zm-7.825-2.761,7.775,2.7-1.536-8.1Z" transform="translate(-481.383 -184.992)" fill="#7ce3cb"/>
          <path id="Trazado_146324" data-name="Trazado 146324" d="M491.148,198.706l-1.655-8.42,8.091,2.893Zm-1.45-8.182,1.551,7.892,6.033-5.18Z" transform="translate(-484.611 -186.811)" fill="#7ce3cb"/>
          <path id="Trazado_146325" data-name="Trazado 146325" d="M484.674,181.845l.135-.076,1.562,2.78-.135.076Z" transform="translate(-481.32 -180.993)" fill="#7ce3cb"/>
          <path id="Trazado_146326" data-name="Trazado 146326" d="M490.713,216.264l.131.083-1.835,2.879-.13-.083Z" transform="translate(-484.191 -204.556)" fill="#7ce3cb"/>
          <path id="Trazado_146327" data-name="Trazado 146327" d="M514.528,199.413l.011-.154,3.18.233-.011.154Z" transform="translate(-501.712 -192.94)" fill="#7ce3cb"/>
        </g>
        <rect id="cell-3" data-name="cell" width="16.332" height="16.332" fill="none"/>
      </g>
      <g id="ethereum-icon" transform="translate(39.129 45.691)">
        <g id="Grupo_2561" data-name="Grupo 2561" transform="translate(3.341 0.371)">
          <path id="Trazado_146289" data-name="Trazado 146289" d="M504.77,138.327l-4.681,2.881v3.741Z" transform="translate(-495.409 -129.047)" fill="none" stroke="#7ce3cb" stroke-linecap="round" stroke-linejoin="round" stroke-width="0.392"/>
          <path id="Trazado_146290" data-name="Trazado 146290" d="M489.464,144.949v-3.741l-4.681-2.881Z" transform="translate(-484.784 -129.047)" fill="none" stroke="#7ce3cb" stroke-linecap="round" stroke-linejoin="round" stroke-width="0.392"/>
          <path id="Trazado_146291" data-name="Trazado 146291" d="M489.464,107.983l-4.681,7.57,4.681-2.706Z" transform="translate(-484.784 -107.983)" fill="none" stroke="#7ce3cb" stroke-linecap="round" stroke-linejoin="round" stroke-width="0.392"/>
          <path id="Trazado_146292" data-name="Trazado 146292" d="M484.784,126.6h0l4.681,2.706v-5.413Z" transform="translate(-484.784 -119.025)" fill="none" stroke="#7ce3cb" stroke-linecap="round" stroke-linejoin="round" stroke-width="0.392"/>
          <path id="Trazado_146293" data-name="Trazado 146293" d="M500.09,112.847l4.681,2.706-4.681-7.57h0v4.864Z" transform="translate(-495.409 -107.983)" fill="none" stroke="#7ce3cb" stroke-linecap="round" stroke-linejoin="round" stroke-width="0.392"/>
          <path id="Trazado_146294" data-name="Trazado 146294" d="M500.09,123.889h0V129.3h0l4.681-2.706h0Z" transform="translate(-495.409 -119.025)" fill="none" stroke="#7ce3cb" stroke-linecap="round" stroke-linejoin="round" stroke-width="0.392"/>
        </g>
        <rect id="cell-4" data-name="cell" width="16.332" height="16.332" fill="none"/>
      </g>
      <path id="Trazado_145780-2" data-name="Trazado 145780" d="M0,0V13.488L6.568,24.646" transform="translate(71.485 97.356) rotate(180)" fill="none" stroke="#878888" stroke-miterlimit="10" stroke-width="0.75"/>
      <path id="Trazado_145781-2" data-name="Trazado 145781" d="M7.318,0V13.558L0,24.593" transform="translate(28.851 96.974) rotate(180)" fill="none" stroke="#878888" stroke-miterlimit="10" stroke-width="0.75"/>
      <circle id="Elipse_41-2" data-name="Elipse 41" cx="1.149" cy="1.149" r="1.149" transform="translate(72.634 85.003) rotate(180)" fill="#030303" stroke="#7ce3cb" stroke-miterlimit="10" stroke-width="0.75"/>
      <circle id="Elipse_44-2" data-name="Elipse 44" cx="1.149" cy="1.149" r="1.149" transform="translate(22.682 84.62) rotate(180)" fill="#030303" stroke="#7ce3cb" stroke-miterlimit="10" stroke-width="0.75"/>
    </g>
    <g id="logo-airnode" transform="translate(60.103 33.726)">
      <g id="OP2-logotipo-color">
        <g id="Grupo_2500" data-name="Grupo 2500">
          <path id="Trazado_145761" data-name="Trazado 145761" d="M64.218,72.07a4.479,4.479,0,0,0-3.468,1.639,2.993,2.993,0,0,1,0,5.695,4.487,4.487,0,1,0,3.468-7.334Z" transform="translate(-56.827 -72.07)" fill="none" stroke="#7ce3cb" stroke-miterlimit="10" stroke-width="0.79"/>
          <path id="Trazado_145762" data-name="Trazado 145762" d="M50.123,77.763a3.047,3.047,0,0,0-.917-.143,2.993,2.993,0,1,0,.917,5.838A4.487,4.487,0,0,1,50.123,77.763Z" transform="translate(-46.199 -76.123)" fill="none" stroke="#7ce3cb" stroke-miterlimit="10" stroke-width="0.79"/>
          <path id="Trazado_145763" data-name="Trazado 145763" d="M60.063,81a2.993,2.993,0,0,0-2.074-2.847,4.487,4.487,0,0,0,0,5.695A2.99,2.99,0,0,0,60.063,81Z" transform="translate(-54.066 -76.511)" fill="#7ce3cb"/>
        </g>
      </g>
    </g>
    <g id="logo-airnode-2" data-name="logo-airnode" transform="translate(34.006 88)">
      <g id="OP2-logotipo-color-2" data-name="OP2-logotipo-color">
        <g id="Grupo_2500-2" data-name="Grupo 2500">
          <path id="Trazado_145761-2" data-name="Trazado 145761" d="M64.218,72.07a4.479,4.479,0,0,0-3.468,1.639,2.993,2.993,0,0,1,0,5.695,4.487,4.487,0,1,0,3.468-7.334Z" transform="translate(-56.827 -72.07)" fill="none" stroke="#7ce3cb" stroke-miterlimit="10" stroke-width="0.79"/>
          <path id="Trazado_145762-2" data-name="Trazado 145762" d="M50.123,77.763a3.047,3.047,0,0,0-.917-.143,2.993,2.993,0,1,0,.917,5.838A4.487,4.487,0,0,1,50.123,77.763Z" transform="translate(-46.199 -76.123)" fill="none" stroke="#7ce3cb" stroke-miterlimit="10" stroke-width="0.79"/>
          <path id="Trazado_145763-2" data-name="Trazado 145763" d="M60.063,81a2.993,2.993,0,0,0-2.074-2.847,4.487,4.487,0,0,0,0,5.695A2.99,2.99,0,0,0,60.063,81Z" transform="translate(-54.066 -76.511)" fill="#7ce3cb"/>
        </g>
      </g>
    </g>
    <g id="logo-airnode-3" data-name="logo-airnode" transform="translate(138.698 88.111)">
      <g id="OP2-logotipo-color-3" data-name="OP2-logotipo-color">
        <g id="Grupo_2500-3" data-name="Grupo 2500">
          <path id="Trazado_145761-3" data-name="Trazado 145761" d="M64.218,72.07a4.479,4.479,0,0,0-3.468,1.639,2.993,2.993,0,0,1,0,5.695,4.487,4.487,0,1,0,3.468-7.334Z" transform="translate(-56.827 -72.07)" fill="none" stroke="#7ce3cb" stroke-miterlimit="10" stroke-width="0.79"/>
          <path id="Trazado_145762-3" data-name="Trazado 145762" d="M50.123,77.763a3.047,3.047,0,0,0-.917-.143,2.993,2.993,0,1,0,.917,5.838A4.487,4.487,0,0,1,50.123,77.763Z" transform="translate(-46.199 -76.123)" fill="none" stroke="#7ce3cb" stroke-miterlimit="10" stroke-width="0.79"/>
          <path id="Trazado_145763-3" data-name="Trazado 145763" d="M60.063,81a2.993,2.993,0,0,0-2.074-2.847,4.487,4.487,0,0,0,0,5.695A2.99,2.99,0,0,0,60.063,81Z" transform="translate(-54.066 -76.511)" fill="#7ce3cb"/>
        </g>
      </g>
    </g>
    <g id="logo-airnode-4" data-name="logo-airnode" transform="translate(110.379 33.726)">
      <g id="OP2-logotipo-color-4" data-name="OP2-logotipo-color">
        <g id="Grupo_2500-4" data-name="Grupo 2500">
          <path id="Trazado_145761-4" data-name="Trazado 145761" d="M64.218,72.07a4.479,4.479,0,0,0-3.468,1.639,2.993,2.993,0,0,1,0,5.695,4.487,4.487,0,1,0,3.468-7.334Z" transform="translate(-56.827 -72.07)" fill="none" stroke="#7ce3cb" stroke-miterlimit="10" stroke-width="0.79"/>
          <path id="Trazado_145762-4" data-name="Trazado 145762" d="M50.123,77.763a3.047,3.047,0,0,0-.917-.143,2.993,2.993,0,1,0,.917,5.838A4.487,4.487,0,0,1,50.123,77.763Z" transform="translate(-46.199 -76.123)" fill="none" stroke="#7ce3cb" stroke-miterlimit="10" stroke-width="0.79"/>
          <path id="Trazado_145763-4" data-name="Trazado 145763" d="M60.063,81a2.993,2.993,0,0,0-2.074-2.847,4.487,4.487,0,0,0,0,5.695A2.99,2.99,0,0,0,60.063,81Z" transform="translate(-54.066 -76.511)" fill="#7ce3cb"/>
        </g>
      </g>
    </g>
    <g id="logo-airnode-5" data-name="logo-airnode" transform="translate(110.914 141.578)">
      <g id="OP2-logotipo-color-5" data-name="OP2-logotipo-color">
        <g id="Grupo_2500-5" data-name="Grupo 2500">
          <path id="Trazado_145761-5" data-name="Trazado 145761" d="M64.218,72.07a4.479,4.479,0,0,0-3.468,1.639,2.993,2.993,0,0,1,0,5.695,4.487,4.487,0,1,0,3.468-7.334Z" transform="translate(-56.827 -72.07)" fill="none" stroke="#7ce3cb" stroke-miterlimit="10" stroke-width="0.79"/>
          <path id="Trazado_145762-5" data-name="Trazado 145762" d="M50.123,77.763a3.047,3.047,0,0,0-.917-.143,2.993,2.993,0,1,0,.917,5.838A4.487,4.487,0,0,1,50.123,77.763Z" transform="translate(-46.199 -76.123)" fill="none" stroke="#7ce3cb" stroke-miterlimit="10" stroke-width="0.79"/>
          <path id="Trazado_145763-5" data-name="Trazado 145763" d="M60.063,81a2.993,2.993,0,0,0-2.074-2.847,4.487,4.487,0,0,0,0,5.695A2.99,2.99,0,0,0,60.063,81Z" transform="translate(-54.066 -76.511)" fill="#7ce3cb"/>
        </g>
      </g>
    </g>
    <g id="logo-airnode-6" data-name="logo-airnode" transform="translate(60.638 141.194)">
      <g id="OP2-logotipo-color-6" data-name="OP2-logotipo-color">
        <g id="Grupo_2500-6" data-name="Grupo 2500">
          <path id="Trazado_145761-6" data-name="Trazado 145761" d="M64.218,72.07a4.479,4.479,0,0,0-3.468,1.639,2.993,2.993,0,0,1,0,5.695,4.487,4.487,0,1,0,3.468-7.334Z" transform="translate(-56.827 -72.07)" fill="none" stroke="#7ce3cb" stroke-miterlimit="10" stroke-width="0.79"/>
          <path id="Trazado_145762-6" data-name="Trazado 145762" d="M50.123,77.763a3.047,3.047,0,0,0-.917-.143,2.993,2.993,0,1,0,.917,5.838A4.487,4.487,0,0,1,50.123,77.763Z" transform="translate(-46.199 -76.123)" fill="none" stroke="#7ce3cb" stroke-miterlimit="10" stroke-width="0.79"/>
          <path id="Trazado_145763-6" data-name="Trazado 145763" d="M60.063,81a2.993,2.993,0,0,0-2.074-2.847,4.487,4.487,0,0,0,0,5.695A2.99,2.99,0,0,0,60.063,81Z" transform="translate(-54.066 -76.511)" fill="#7ce3cb"/>
        </g>
      </g>
    </g>
    <g id="icon-api_small" transform="translate(52.154 -0.386)">
      <rect id="cell-5" data-name="cell" width="38.892" height="39.652" transform="translate(0.613)" fill="none"/>
      <rect id="cell-6" data-name="cell" width="32" height="32" fill="none"/>
      <g id="icon-api" transform="translate(1 0.999)">
        <circle id="Elipse_66-2" data-name="Elipse 66-2" cx="8" cy="8" r="8" transform="translate(7 7)" fill="none" stroke="#7ce3cb" stroke-miterlimit="10" stroke-width="1"/>
        <path id="Trazado_146373" data-name="Trazado 146373" d="M331.221,54.173l1.895-.288a15.106,15.106,0,0,0,.109-1.777c0-.474-.025-.941-.068-1.4l-1.936-.291a13.2,13.2,0,0,0-.792-2.929l1.6-1.259a14.961,14.961,0,0,0-1.538-2.749l-1.9.746a12.746,12.746,0,0,0-2.145-2.137l.781-1.981a15,15,0,0,0-2.665-1.595l-1.351,1.7a12.9,12.9,0,0,0-2.929-.792l-.332-2.209a15.2,15.2,0,0,0-1.719-.1c-.458,0-.911.024-1.359.064l-.336,2.286a12.9,12.9,0,0,0-2.929.792l-1.46-1.852a14.962,14.962,0,0,0-2.653,1.521l.854,2.175a13.345,13.345,0,0,0-2.145,2.137l-2.167-.851a14.976,14.976,0,0,0-1.519,2.653l1.816,1.441a13.157,13.157,0,0,0-.792,2.929l-2.245.338c-.041.451-.065.906-.065,1.368a15.093,15.093,0,0,0,.1,1.719l2.2.33a13.175,13.175,0,0,0,.792,2.921l-1.7,1.353a15,15,0,0,0,1.615,2.693l1.955-.753a13.743,13.743,0,0,0,2.145,2.145L309.6,64.38a14.965,14.965,0,0,0,2.753,1.536l1.232-1.564a13.18,13.18,0,0,0,2.929.792l.285,1.9c.468.044.941.069,1.42.069A15.038,15.038,0,0,0,319.981,67l.285-1.89a13.194,13.194,0,0,0,2.929-.792l1.163,1.475a14.982,14.982,0,0,0,2.763-1.612l-.665-1.692a13.365,13.365,0,0,0,2.138-2.145l1.7.667a14.968,14.968,0,0,0,1.612-2.757l-1.476-1.163A13.468,13.468,0,0,0,331.221,54.173Z" transform="translate(-303.224 -37.108)" fill="none" stroke="#7ce3cb" stroke-width="1"/>
        <g id="icon_data" transform="translate(7 7.001)">
          <g id="icon-population-data_solid">
            <g id="Grupo_2560" data-name="Grupo 2560" transform="translate(5 4)">
              <path id="Trazado_146331" data-name="Trazado 146331" d="M67.74,179.953a3.684,3.684,0,0,1,7.368,0Z" transform="translate(-68.276 -171.953)" fill="#7ce3cb"/>
              <ellipse id="Elipse_87" data-name="Elipse 87" cx="2.114" cy="2.079" rx="2.114" ry="2.079" transform="translate(1.035 -0.627)" fill="#7ce2ca"/>
            </g>
            <rect id="cell-7" data-name="cell" width="16" height="16" fill="none"/>
          </g>
        </g>
      </g>
    </g>
    <g id="icon-api_small-2" data-name="icon-api_small" transform="translate(102.189 -0.386)">
      <rect id="cell-8" data-name="cell" width="32" height="32" fill="none"/>
      <g id="icon-api-2" data-name="icon-api" transform="translate(0.092 -0.04)">
        <circle id="Elipse_66-2-2" data-name="Elipse 66-2" cx="8" cy="8" r="8" transform="translate(7.908 8.039)" fill="none" stroke="#7ce3cb" stroke-miterlimit="10" stroke-width="1"/>
        <path id="Trazado_146373-2" data-name="Trazado 146373" d="M331.221,54.173l1.895-.288a15.106,15.106,0,0,0,.109-1.777c0-.474-.025-.941-.068-1.4l-1.936-.291a13.2,13.2,0,0,0-.792-2.929l1.6-1.259a14.961,14.961,0,0,0-1.538-2.749l-1.9.746a12.746,12.746,0,0,0-2.145-2.137l.781-1.981a15,15,0,0,0-2.665-1.595l-1.351,1.7a12.9,12.9,0,0,0-2.929-.792l-.332-2.209a15.2,15.2,0,0,0-1.719-.1c-.458,0-.911.024-1.359.064l-.336,2.286a12.9,12.9,0,0,0-2.929.792l-1.46-1.852a14.962,14.962,0,0,0-2.653,1.521l.854,2.175a13.345,13.345,0,0,0-2.145,2.137l-2.167-.851a14.976,14.976,0,0,0-1.519,2.653l1.816,1.441a13.157,13.157,0,0,0-.792,2.929l-2.245.338c-.041.451-.065.906-.065,1.368a15.093,15.093,0,0,0,.1,1.719l2.2.33a13.175,13.175,0,0,0,.792,2.921l-1.7,1.353a15,15,0,0,0,1.615,2.693l1.955-.753a13.743,13.743,0,0,0,2.145,2.145L309.6,64.38a14.965,14.965,0,0,0,2.753,1.536l1.232-1.564a13.18,13.18,0,0,0,2.929.792l.285,1.9c.468.044.941.069,1.42.069A15.038,15.038,0,0,0,319.981,67l.285-1.89a13.194,13.194,0,0,0,2.929-.792l1.163,1.475a14.982,14.982,0,0,0,2.763-1.612l-.665-1.692a13.365,13.365,0,0,0,2.138-2.145l1.7.667a14.968,14.968,0,0,0,1.612-2.757l-1.476-1.163A13.468,13.468,0,0,0,331.221,54.173Z" transform="translate(-302.316 -36.069)" fill="none" stroke="#7ce3cb" stroke-width="1"/>
        <g id="icon_data-2" data-name="icon_data" transform="translate(0.5 -0.5)">
          <g id="icon-bitcoin_solid" transform="translate(7.408 8.539)">
            <path id="icon-bitcoin" d="M74.982,124.131c.154-1.049-.642-1.617-1.74-1.993l.358-1.425-.864-.216-.345,1.388c-.228-.056-.463-.111-.7-.16l.345-1.394-.864-.216-.352,1.419q-.287-.065-.555-.13V121.4l-1.2-.3-.228.925s.641.148.629.154a.458.458,0,0,1,.4.506l-.975,3.9a.315.315,0,0,1-.395.2c.006.012-.629-.154-.629-.154l-.432.993,1.129.284c.21.056.413.105.617.161l-.358,1.437.864.216.358-1.425c.234.062.469.124.691.179l-.352,1.419.864.216.358-1.437c1.48.278,2.591.167,3.053-1.172a1.524,1.524,0,0,0-.8-2.1,1.376,1.376,0,0,0,1.11-1.271ZM73,126.907c-.266,1.074-2.079.494-2.665.346l.475-1.906c.586.148,2.474.438,2.19,1.561Zm.271-2.795c-.247.981-1.752.481-2.239.358l.432-1.727c.487.123,2.06.352,1.808,1.369Z" transform="translate(-63.443 -117.114)" fill="#7ce2ca"/>
            <rect id="cell-9" data-name="cell" width="16" height="16" fill="none"/>
          </g>
        </g>
      </g>
    </g>
    <g id="icon-api_small-3" data-name="icon-api_small" transform="translate(152.259 76.999)">
      <rect id="cell-10" data-name="cell" width="32" height="32" fill="none"/>
      <g id="icon-api-3" data-name="icon-api" transform="translate(0.092 -0.04)">
        <circle id="Elipse_66-2-3" data-name="Elipse 66-2" cx="8" cy="8" r="8" transform="translate(7.908 8.039)" fill="none" stroke="#7ce3cb" stroke-miterlimit="10" stroke-width="1"/>
        <path id="Trazado_146373-3" data-name="Trazado 146373" d="M331.221,54.173l1.895-.288a15.106,15.106,0,0,0,.109-1.777c0-.474-.025-.941-.068-1.4l-1.936-.291a13.2,13.2,0,0,0-.792-2.929l1.6-1.259a14.961,14.961,0,0,0-1.538-2.749l-1.9.746a12.746,12.746,0,0,0-2.145-2.137l.781-1.981a15,15,0,0,0-2.665-1.595l-1.351,1.7a12.9,12.9,0,0,0-2.929-.792l-.332-2.209a15.2,15.2,0,0,0-1.719-.1c-.458,0-.911.024-1.359.064l-.336,2.286a12.9,12.9,0,0,0-2.929.792l-1.46-1.852a14.962,14.962,0,0,0-2.653,1.521l.854,2.175a13.345,13.345,0,0,0-2.145,2.137l-2.167-.851a14.976,14.976,0,0,0-1.519,2.653l1.816,1.441a13.157,13.157,0,0,0-.792,2.929l-2.245.338c-.041.451-.065.906-.065,1.368a15.093,15.093,0,0,0,.1,1.719l2.2.33a13.175,13.175,0,0,0,.792,2.921l-1.7,1.353a15,15,0,0,0,1.615,2.693l1.955-.753a13.743,13.743,0,0,0,2.145,2.145L309.6,64.38a14.965,14.965,0,0,0,2.753,1.536l1.232-1.564a13.18,13.18,0,0,0,2.929.792l.285,1.9c.468.044.941.069,1.42.069A15.038,15.038,0,0,0,319.981,67l.285-1.89a13.194,13.194,0,0,0,2.929-.792l1.163,1.475a14.982,14.982,0,0,0,2.763-1.612l-.665-1.692a13.365,13.365,0,0,0,2.138-2.145l1.7.667a14.968,14.968,0,0,0,1.612-2.757l-1.476-1.163A13.468,13.468,0,0,0,331.221,54.173Z" transform="translate(-302.316 -36.069)" fill="none" stroke="#7ce3cb" stroke-width="1"/>
        <g id="icon_data-3" data-name="icon_data" transform="translate(0.5 -0.5)">
          <g id="icon-geolocation_solid" transform="translate(7.408 8.54)">
            <rect id="cell-11" data-name="cell" width="16" height="16" fill="none"/>
            <g id="Grupo_2555" data-name="Grupo 2555" transform="translate(5 4)">
              <path id="Trazado_146282" data-name="Trazado 146282" d="M125.32,84.386h0a3.1,3.1,0,1,0-5.371.175l2.565,4.237s2.728-4.266,2.8-4.407Z" transform="translate(-119.488 -79.841)" fill="#7ce3cb"/>
              <circle id="Elipse_72" data-name="Elipse 72" cx="1.352" cy="1.352" r="1.352" transform="translate(1.744 1.775)" fill="#030303"/>
            </g>
          </g>
        </g>
      </g>
    </g>
    <g id="icon-api_small-4" data-name="icon-api_small" transform="translate(-0.495 76.999)">
      <rect id="cell-12" data-name="cell" width="32" height="32" fill="none"/>
      <g id="icon-api-4" data-name="icon-api" transform="translate(0.092 -0.04)">
        <circle id="Elipse_66-2-4" data-name="Elipse 66-2" cx="8" cy="8" r="8" transform="translate(7.908 8.039)" fill="none" stroke="#7ce3cb" stroke-miterlimit="10" stroke-width="1"/>
        <path id="Trazado_146373-4" data-name="Trazado 146373" d="M331.221,54.173l1.895-.288a15.106,15.106,0,0,0,.109-1.777c0-.474-.025-.941-.068-1.4l-1.936-.291a13.2,13.2,0,0,0-.792-2.929l1.6-1.259a14.961,14.961,0,0,0-1.538-2.749l-1.9.746a12.746,12.746,0,0,0-2.145-2.137l.781-1.981a15,15,0,0,0-2.665-1.595l-1.351,1.7a12.9,12.9,0,0,0-2.929-.792l-.332-2.209a15.2,15.2,0,0,0-1.719-.1c-.458,0-.911.024-1.359.064l-.336,2.286a12.9,12.9,0,0,0-2.929.792l-1.46-1.852a14.962,14.962,0,0,0-2.653,1.521l.854,2.175a13.345,13.345,0,0,0-2.145,2.137l-2.167-.851a14.976,14.976,0,0,0-1.519,2.653l1.816,1.441a13.157,13.157,0,0,0-.792,2.929l-2.245.338c-.041.451-.065.906-.065,1.368a15.093,15.093,0,0,0,.1,1.719l2.2.33a13.175,13.175,0,0,0,.792,2.921l-1.7,1.353a15,15,0,0,0,1.615,2.693l1.955-.753a13.743,13.743,0,0,0,2.145,2.145L309.6,64.38a14.965,14.965,0,0,0,2.753,1.536l1.232-1.564a13.18,13.18,0,0,0,2.929.792l.285,1.9c.468.044.941.069,1.42.069A15.038,15.038,0,0,0,319.981,67l.285-1.89a13.194,13.194,0,0,0,2.929-.792l1.163,1.475a14.982,14.982,0,0,0,2.763-1.612l-.665-1.692a13.365,13.365,0,0,0,2.138-2.145l1.7.667a14.968,14.968,0,0,0,1.612-2.757l-1.476-1.163A13.468,13.468,0,0,0,331.221,54.173Z" transform="translate(-302.316 -36.069)" fill="none" stroke="#7ce3cb" stroke-width="1"/>
        <g id="icon_data-4" data-name="icon_data" transform="translate(0.5 -0.5)">
          <g id="icon-email-validation_solid" transform="translate(7.408 8.54)">
            <rect id="cell-13" data-name="cell" width="16" height="16" fill="none"/>
            <g id="Grupo_2557" data-name="Grupo 2557" transform="translate(3 5.001)">
              <rect id="Rect치ngulo_1203" data-name="Rect치ngulo 1203" width="8" height="5.147" transform="translate(1 1)" fill="#7ce3cb"/>
              <path id="Trazado_146328" data-name="Trazado 146328" d="M125.5,163.887h-10l5,4.28Z" transform="translate(-115.504 -163.706)" fill="#030303"/>
            </g>
          </g>
        </g>
      </g>
    </g>
    <g id="icon-api_small-5" data-name="icon-api_small" transform="translate(50.154 152.14)">
      <rect id="cell-14" data-name="cell" width="32" height="32" fill="none"/>
      <g id="icon-api-5" data-name="icon-api" transform="translate(0.092 -0.04)">
        <circle id="Elipse_66-2-5" data-name="Elipse 66-2" cx="8" cy="8" r="8" transform="translate(7.908 8.039)" fill="none" stroke="#7ce3cb" stroke-miterlimit="10" stroke-width="1"/>
        <path id="Trazado_146373-5" data-name="Trazado 146373" d="M331.221,54.173l1.895-.288a15.106,15.106,0,0,0,.109-1.777c0-.474-.025-.941-.068-1.4l-1.936-.291a13.2,13.2,0,0,0-.792-2.929l1.6-1.259a14.961,14.961,0,0,0-1.538-2.749l-1.9.746a12.746,12.746,0,0,0-2.145-2.137l.781-1.981a15,15,0,0,0-2.665-1.595l-1.351,1.7a12.9,12.9,0,0,0-2.929-.792l-.332-2.209a15.2,15.2,0,0,0-1.719-.1c-.458,0-.911.024-1.359.064l-.336,2.286a12.9,12.9,0,0,0-2.929.792l-1.46-1.852a14.962,14.962,0,0,0-2.653,1.521l.854,2.175a13.345,13.345,0,0,0-2.145,2.137l-2.167-.851a14.976,14.976,0,0,0-1.519,2.653l1.816,1.441a13.157,13.157,0,0,0-.792,2.929l-2.245.338c-.041.451-.065.906-.065,1.368a15.093,15.093,0,0,0,.1,1.719l2.2.33a13.175,13.175,0,0,0,.792,2.921l-1.7,1.353a15,15,0,0,0,1.615,2.693l1.955-.753a13.743,13.743,0,0,0,2.145,2.145L309.6,64.38a14.965,14.965,0,0,0,2.753,1.536l1.232-1.564a13.18,13.18,0,0,0,2.929.792l.285,1.9c.468.044.941.069,1.42.069A15.038,15.038,0,0,0,319.981,67l.285-1.89a13.194,13.194,0,0,0,2.929-.792l1.163,1.475a14.982,14.982,0,0,0,2.763-1.612l-.665-1.692a13.365,13.365,0,0,0,2.138-2.145l1.7.667a14.968,14.968,0,0,0,1.612-2.757l-1.476-1.163A13.468,13.468,0,0,0,331.221,54.173Z" transform="translate(-302.316 -36.069)" fill="none" stroke="#7ce3cb" stroke-width="1"/>
        <g id="icon_data-5" data-name="icon_data" transform="translate(0.5 -0.5)">
          <g id="icon-wheater_solid" transform="translate(7.408 8.54)">
            <rect id="cell-15" data-name="cell" width="16" height="16" fill="none"/>
            <path id="icon-wheater" d="M121.5,126.3c-.03,0-.057.008-.086.009a2.742,2.742,0,0,0-5.221,1.177c0,.041.011.08.012.121a2.049,2.049,0,0,0,.927,3.8v.015H121.5a2.559,2.559,0,0,0,0-5.118Z" transform="translate(-111.217 -119.739)" fill="#7ce3cb"/>
          </g>
        </g>
      </g>
    </g>
    <g id="icon-api_small-6" data-name="icon-api_small" transform="translate(100.189 152.14)">
      <rect id="cell-16" data-name="cell" width="32" height="32" fill="none"/>
      <g id="icon-api-6" data-name="icon-api" transform="translate(0.092 -0.04)">
        <circle id="Elipse_66-2-6" data-name="Elipse 66-2" cx="8" cy="8" r="8" transform="translate(7.908 8.039)" fill="none" stroke="#7ce3cb" stroke-miterlimit="10" stroke-width="1"/>
        <path id="Trazado_146373-6" data-name="Trazado 146373" d="M331.221,54.173l1.895-.288a15.106,15.106,0,0,0,.109-1.777c0-.474-.025-.941-.068-1.4l-1.936-.291a13.2,13.2,0,0,0-.792-2.929l1.6-1.259a14.961,14.961,0,0,0-1.538-2.749l-1.9.746a12.746,12.746,0,0,0-2.145-2.137l.781-1.981a15,15,0,0,0-2.665-1.595l-1.351,1.7a12.9,12.9,0,0,0-2.929-.792l-.332-2.209a15.2,15.2,0,0,0-1.719-.1c-.458,0-.911.024-1.359.064l-.336,2.286a12.9,12.9,0,0,0-2.929.792l-1.46-1.852a14.962,14.962,0,0,0-2.653,1.521l.854,2.175a13.345,13.345,0,0,0-2.145,2.137l-2.167-.851a14.976,14.976,0,0,0-1.519,2.653l1.816,1.441a13.157,13.157,0,0,0-.792,2.929l-2.245.338c-.041.451-.065.906-.065,1.368a15.093,15.093,0,0,0,.1,1.719l2.2.33a13.175,13.175,0,0,0,.792,2.921l-1.7,1.353a15,15,0,0,0,1.615,2.693l1.955-.753a13.743,13.743,0,0,0,2.145,2.145L309.6,64.38a14.965,14.965,0,0,0,2.753,1.536l1.232-1.564a13.18,13.18,0,0,0,2.929.792l.285,1.9c.468.044.941.069,1.42.069A15.038,15.038,0,0,0,319.981,67l.285-1.89a13.194,13.194,0,0,0,2.929-.792l1.163,1.475a14.982,14.982,0,0,0,2.763-1.612l-.665-1.692a13.365,13.365,0,0,0,2.138-2.145l1.7.667a14.968,14.968,0,0,0,1.612-2.757l-1.476-1.163A13.468,13.468,0,0,0,331.221,54.173Z" transform="translate(-302.316 -36.069)" fill="none" stroke="#7ce3cb" stroke-width="1"/>
        <g id="icon_data-6" data-name="icon_data" transform="translate(0.5 -0.5)">
          <g id="icon-cryptomarket_solid" transform="translate(7.408 8.539)">
            <path id="icon-cryptomarket" d="M66.485,88.076l1.126-2.908,1.85,2.572,1.129-6.777,1.7,5.2,1.3-2.8,1.562,2.322,1.4-4.133" transform="translate(-63.474 -77.113)" fill="none" stroke="#7ce3cb" stroke-linecap="round" stroke-linejoin="round" stroke-width="1"/>
            <rect id="cell-17" data-name="cell" width="16" height="16" fill="none"/>
          </g>
        </g>
      </g>
    </g>
  </g>
</svg>
