<svg id="Features-graph_2-Quantifiatly-Secure" xmlns="http://www.w3.org/2000/svg" width="481" height="480" viewBox="0 0 481 480">
  <g id="_2-Quantifiatly_Secure_1" data-name="2-Quantifiatly Secure_1" transform="translate(1 15.234)">
    <rect id="Rectangle_1221" data-name="Rectangle 1221" width="480" height="447" transform="translate(0 -0.234)" fill="none"/>
    <path id="Trazado_145736" data-name="Trazado 145736" d="M337.29,71.49H142.71L45.44,228.333l97.27,156.843H337.29l97.28-156.843Z" transform="translate(0 -4.95)" fill="none"/>
    <path id="Trazado_145737" data-name="Trazado 145737" d="M142.71,105.33v45.2l14.2,11.914" transform="translate(0 -7.293)" fill="none" stroke="#878888" stroke-miterlimit="10" stroke-width="1"/>
    <path id="Trazado_145738" data-name="Trazado 145738" d="M337.33,105.15v27.392l-14.5,29.784" transform="translate(0 -7.28)" fill="none" stroke="#878888" stroke-miterlimit="10" stroke-width="1"/>
    <path id="Trazado_145739" data-name="Trazado 145739" d="M142.71,361.25V326.718L171.1,297.39" transform="translate(0 -20.591)" fill="none" stroke="#878888" stroke-miterlimit="10" stroke-width="1"/>
    <path id="Trazado_145740" data-name="Trazado 145740" d="M337.34,361.264V349.071L308.66,297.6" transform="translate(0 -20.605)" fill="none" stroke="#878888" stroke-miterlimit="10" stroke-width="1"/>
    <path id="Trazado_145741" data-name="Trazado 145741" d="M79.34,238.191h34l41.1-24.321" transform="translate(0 -14.808)" fill="none" stroke="#878888" stroke-miterlimit="10" stroke-width="1"/>
    <ellipse id="Elipse_20" data-name="Elipse 20" cx="3" cy="2.792" rx="3" ry="2.792" transform="translate(139.71 140.461)" fill="#030303" stroke="#7ce3cb" stroke-miterlimit="10" stroke-width="1"/>
    <ellipse id="Elipse_21" data-name="Elipse 21" cx="3" cy="2.792" rx="3" ry="2.792" transform="translate(110.36 220.591)" fill="#030303" stroke="#7ce3cb" stroke-miterlimit="10" stroke-width="1"/>
    <path id="Trazado_145742" data-name="Trazado 145742" d="M392.017,239.92H366.48l-41,8.377" transform="translate(0 -16.612)" fill="none" stroke="#878888" stroke-miterlimit="10" stroke-width="1"/>
    <ellipse id="Elipse_22" data-name="Elipse 22" cx="3" cy="2.792" rx="3" ry="2.792" transform="translate(363.51 220.525)" fill="#030303" stroke="#7ce3cb" stroke-miterlimit="10" stroke-width="1"/>
    <ellipse id="Elipse_23" data-name="Elipse 23" cx="3" cy="2.792" rx="3" ry="2.792" transform="translate(334.33 122.498)" fill="#030303" stroke="#7ce3cb" stroke-miterlimit="10" stroke-width="1"/>
    <ellipse id="Elipse_24" data-name="Elipse 24" cx="3" cy="2.792" rx="3" ry="2.792" transform="translate(139.71 303.382)" fill="#030303" stroke="#7ce3cb" stroke-miterlimit="10" stroke-width="1"/>
    <ellipse id="Elipse_25" data-name="Elipse 25" cx="3" cy="2.792" rx="3" ry="2.792" transform="translate(334.33 325.748)" fill="#030303" stroke="#7ce3cb" stroke-miterlimit="10" stroke-width="1"/>
    <rect id="Rectángulo_1173" data-name="Rectángulo 1173" width="18" height="16.754" transform="translate(174 243.571)" fill="none"/>
    <rect id="Rectángulo_1174" data-name="Rectángulo 1174" width="18" height="16.754" transform="translate(196.8 243.571)" fill="none"/>
    <rect id="Rectángulo_1175" data-name="Rectángulo 1175" width="18" height="16.754" transform="translate(219.6 243.571)" fill="none"/>
    <rect id="Rectángulo_1176" data-name="Rectángulo 1176" width="18" height="16.754" transform="translate(242.4 243.571)" fill="none"/>
    <rect id="Rectángulo_1177" data-name="Rectángulo 1177" width="18" height="16.754" transform="translate(265.2 243.571)" fill="none"/>
    <rect id="Rectángulo_1178" data-name="Rectángulo 1178" width="18" height="16.754" transform="translate(288 243.571)" fill="none"/>
    <rect id="Rectángulo_1181" data-name="Rectángulo 1181" width="480" height="447" transform="translate(0 -0.234)" fill="none"/>
    <path id="Path_146374" data-name="Path 146374" d="M240,140.9l-77.55,29.477v69.435c0,59.262,77.55,84.225,77.55,84.225s77.55-24.963,77.55-84.225V170.377Z" transform="translate(0 -9.756)" fill="none" stroke="#7ce3cb" stroke-miterlimit="10" stroke-width="1"/>
    <line id="Line_44" data-name="Line 44" y2="183.137" transform="translate(240 131.144)" fill="none" stroke="#7ce3cb" stroke-miterlimit="10" stroke-width="1"/>
    <g id="icon-dapp" transform="translate(205.75 191.327)">
      <g id="data">
        <path id="Path_146375" data-name="Path 146375" d="M274.25,269.327h-68.5V205.56h54.41l14.09,13.124Z" transform="translate(-205.75 -205.56)" fill="#030303" stroke="#7ce3cb" stroke-miterlimit="10" stroke-width="1"/>
        <line id="Line_45" data-name="Line 45" x2="48.94" transform="translate(9.78 31.888)" fill="none" stroke="#7ce3cb" stroke-miterlimit="10" stroke-width="1"/>
        <line id="Line_46" data-name="Line 46" x2="48.94" transform="translate(9.78 41)" fill="none" stroke="#7ce3cb" stroke-miterlimit="10" stroke-width="1"/>
        <line id="Line_47" data-name="Line 47" x2="48.94" transform="translate(9.78 50.103)" fill="none" stroke="#7ce3cb" stroke-miterlimit="10" stroke-width="1"/>
      </g>
    </g>
    <g id="elementos_principales" data-name="elementos principales" transform="translate(5 26.061)">
      <g id="icon-api" transform="translate(300 -0.295)">
        <rect id="cell" width="64" height="64" transform="translate(0)" fill="none"/>
        <g id="icon-api_small">
          <rect id="cell-2" data-name="cell" width="64" height="64" fill="none"/>
          <g id="icon-api-2" data-name="icon-api" transform="translate(2 1.998)">
            <circle id="Elipse_66-2" data-name="Elipse 66-2" cx="16" cy="16" r="16" transform="translate(14 13.999)" fill="none" stroke="#7ce3cb" stroke-miterlimit="10" stroke-width="1"/>
            <path id="Path_146373" data-name="Path 146373" d="M359.217,71.238l3.79-.576a30.212,30.212,0,0,0,.217-3.554c0-.947-.049-1.883-.135-2.807l-3.871-.582a26.393,26.393,0,0,0-1.583-5.857l3.193-2.517a29.921,29.921,0,0,0-3.076-5.5l-3.807,1.492a25.491,25.491,0,0,0-4.29-4.274l1.562-3.962a30.01,30.01,0,0,0-5.33-3.19l-2.7,3.4a25.791,25.791,0,0,0-5.857-1.583l-.665-4.419a30.4,30.4,0,0,0-3.439-.2c-.916,0-1.822.048-2.718.128l-.672,4.572a25.8,25.8,0,0,0-5.858,1.583l-2.919-3.7a29.925,29.925,0,0,0-5.305,3.041l1.707,4.351a26.689,26.689,0,0,0-4.29,4.274l-4.335-1.7a29.952,29.952,0,0,0-3.039,5.307l3.632,2.881a26.314,26.314,0,0,0-1.583,5.858l-4.491.675c-.082.9-.13,1.813-.13,2.735a30.187,30.187,0,0,0,.2,3.438l4.4.66a26.35,26.35,0,0,0,1.583,5.842l-3.392,2.706a30,30,0,0,0,3.229,5.387l3.909-1.507a27.485,27.485,0,0,0,4.29,4.29l-1.464,3.728a29.93,29.93,0,0,0,5.506,3.073l2.464-3.128a26.36,26.36,0,0,0,5.858,1.583l.57,3.791c.936.087,1.882.137,2.841.137a30.076,30.076,0,0,0,3.514-.212l.569-3.779a26.389,26.389,0,0,0,5.857-1.583l2.325,2.951a29.964,29.964,0,0,0,5.527-3.224l-1.33-3.384a26.731,26.731,0,0,0,4.275-4.29l3.4,1.334a29.935,29.935,0,0,0,3.224-5.514l-2.951-2.326A26.936,26.936,0,0,0,359.217,71.238Z" transform="translate(-303.224 -37.108)" fill="none" stroke="#7ce3cb" stroke-width="1"/>
            <g id="icon_data" transform="translate(14 14)">
              <g id="icon-cryptomarket_solid">
                <path id="icon-cryptomarket" d="M66.485,95.189l2.252-5.816,3.7,5.145L74.7,80.963l3.409,10.4,2.6-5.6,3.123,4.645,2.806-8.266" transform="translate(-60.463 -73.262)" fill="none" stroke="#7ce3cb" stroke-linecap="round" stroke-linejoin="round" stroke-width="1"/>
                <rect id="cell-3" data-name="cell" width="32" height="32" fill="none"/>
              </g>
            </g>
          </g>
        </g>
      </g>
      <g id="icon-api-3" data-name="icon-api" transform="translate(300 322.705)">
        <rect id="cell-4" data-name="cell" width="64" height="64" transform="translate(0)" fill="none"/>
        <g id="icon-api_small-2" data-name="icon-api_small">
          <rect id="cell-5" data-name="cell" width="64" height="64" fill="none"/>
          <g id="icon-api-4" data-name="icon-api" transform="translate(2 1.998)">
            <circle id="Elipse_66-2-2" data-name="Elipse 66-2" cx="16" cy="16" r="16" transform="translate(14 13.999)" fill="none" stroke="#7ce3cb" stroke-miterlimit="10" stroke-width="1"/>
            <path id="Path_146373-2" data-name="Path 146373" d="M359.217,71.238l3.79-.576a30.212,30.212,0,0,0,.217-3.554c0-.947-.049-1.883-.135-2.807l-3.871-.582a26.393,26.393,0,0,0-1.583-5.857l3.193-2.517a29.921,29.921,0,0,0-3.076-5.5l-3.807,1.492a25.491,25.491,0,0,0-4.29-4.274l1.562-3.962a30.01,30.01,0,0,0-5.33-3.19l-2.7,3.4a25.791,25.791,0,0,0-5.857-1.583l-.665-4.419a30.4,30.4,0,0,0-3.439-.2c-.916,0-1.822.048-2.718.128l-.672,4.572a25.8,25.8,0,0,0-5.858,1.583l-2.919-3.7a29.925,29.925,0,0,0-5.305,3.041l1.707,4.351a26.689,26.689,0,0,0-4.29,4.274l-4.335-1.7a29.952,29.952,0,0,0-3.039,5.307l3.632,2.881a26.314,26.314,0,0,0-1.583,5.858l-4.491.675c-.082.9-.13,1.813-.13,2.735a30.187,30.187,0,0,0,.2,3.438l4.4.66a26.35,26.35,0,0,0,1.583,5.842l-3.392,2.706a30,30,0,0,0,3.229,5.387l3.909-1.507a27.485,27.485,0,0,0,4.29,4.29l-1.464,3.728a29.93,29.93,0,0,0,5.506,3.073l2.464-3.128a26.36,26.36,0,0,0,5.858,1.583l.57,3.791c.936.087,1.882.137,2.841.137a30.076,30.076,0,0,0,3.514-.212l.569-3.779a26.389,26.389,0,0,0,5.857-1.583l2.325,2.951a29.964,29.964,0,0,0,5.527-3.224l-1.33-3.384a26.731,26.731,0,0,0,4.275-4.29l3.4,1.334a29.935,29.935,0,0,0,3.224-5.514l-2.951-2.326A26.936,26.936,0,0,0,359.217,71.238Z" transform="translate(-303.224 -37.108)" fill="none" stroke="#7ce3cb" stroke-width="1"/>
            <g id="icon_data-2" data-name="icon_data" transform="translate(14 14.002)">
              <g id="icon-email-validation_solid">
                <rect id="cell-6" data-name="cell" width="32" height="32" fill="none"/>
                <g id="Group_2557" data-name="Group 2557" transform="translate(6 10.364)">
                  <rect id="Rectangle_1203" data-name="Rectangle 1203" width="16" height="10.295" transform="translate(2 1.638)" fill="#7ce3cb"/>
                  <path id="Path_146328" data-name="Path 146328" d="M135.5,163.887h-20l10,8.559Z" transform="translate(-115.504 -163.887)" fill="#030303"/>
                </g>
              </g>
            </g>
          </g>
        </g>
      </g>
      <g id="icon-api-5" data-name="icon-api" transform="translate(398 165.705)">
        <rect id="cell-7" data-name="cell" width="64" height="64" transform="translate(0)" fill="none"/>
        <g id="icon-api_small-3" data-name="icon-api_small">
          <rect id="cell-8" data-name="cell" width="64" height="64" fill="none"/>
          <g id="icon-api-6" data-name="icon-api" transform="translate(2 1.998)">
            <circle id="Elipse_66-2-3" data-name="Elipse 66-2" cx="16" cy="16" r="16" transform="translate(14 13.999)" fill="none" stroke="#7ce3cb" stroke-miterlimit="10" stroke-width="1"/>
            <path id="Path_146373-3" data-name="Path 146373" d="M359.217,71.238l3.79-.576a30.212,30.212,0,0,0,.217-3.554c0-.947-.049-1.883-.135-2.807l-3.871-.582a26.393,26.393,0,0,0-1.583-5.857l3.193-2.517a29.921,29.921,0,0,0-3.076-5.5l-3.807,1.492a25.491,25.491,0,0,0-4.29-4.274l1.562-3.962a30.01,30.01,0,0,0-5.33-3.19l-2.7,3.4a25.791,25.791,0,0,0-5.857-1.583l-.665-4.419a30.4,30.4,0,0,0-3.439-.2c-.916,0-1.822.048-2.718.128l-.672,4.572a25.8,25.8,0,0,0-5.858,1.583l-2.919-3.7a29.925,29.925,0,0,0-5.305,3.041l1.707,4.351a26.689,26.689,0,0,0-4.29,4.274l-4.335-1.7a29.952,29.952,0,0,0-3.039,5.307l3.632,2.881a26.314,26.314,0,0,0-1.583,5.858l-4.491.675c-.082.9-.13,1.813-.13,2.735a30.187,30.187,0,0,0,.2,3.438l4.4.66a26.35,26.35,0,0,0,1.583,5.842l-3.392,2.706a30,30,0,0,0,3.229,5.387l3.909-1.507a27.485,27.485,0,0,0,4.29,4.29l-1.464,3.728a29.93,29.93,0,0,0,5.506,3.073l2.464-3.128a26.36,26.36,0,0,0,5.858,1.583l.57,3.791c.936.087,1.882.137,2.841.137a30.076,30.076,0,0,0,3.514-.212l.569-3.779a26.389,26.389,0,0,0,5.857-1.583l2.325,2.951a29.964,29.964,0,0,0,5.527-3.224l-1.33-3.384a26.731,26.731,0,0,0,4.275-4.29l3.4,1.334a29.935,29.935,0,0,0,3.224-5.514l-2.951-2.326A26.936,26.936,0,0,0,359.217,71.238Z" transform="translate(-303.224 -37.108)" fill="none" stroke="#7ce3cb" stroke-width="1"/>
            <g id="icon_data-3" data-name="icon_data" transform="translate(13.999 14)">
              <g id="icon-bitcoin_solid">
                <path id="icon-bitcoin" d="M82.52,128.148c.308-2.1-1.283-3.233-3.479-3.985l.716-2.851-1.728-.432-.691,2.776c-.457-.111-.925-.222-1.394-.321l.691-2.789-1.727-.432-.7,2.838q-.574-.13-1.111-.259v-.012l-2.393-.592-.456,1.851s1.283.3,1.258.308a.916.916,0,0,1,.8,1.012l-1.949,7.8a.631.631,0,0,1-.79.407c.012.024-1.259-.309-1.259-.309l-.864,1.987,2.258.567c.419.111.826.21,1.234.322l-.716,2.875,1.727.432.716-2.851c.469.124.938.247,1.382.358l-.7,2.837,1.727.432.716-2.875c2.961.555,5.182.333,6.107-2.344.753-2.146-.037-3.393-1.591-4.207a2.753,2.753,0,0,0,2.221-2.542ZM78.56,133.7c-.531,2.147-4.158.987-5.33.691l.95-3.813c1.172.3,4.948.876,4.38,3.121Zm.543-5.589c-.494,1.962-3.5.963-4.479.716l.864-3.454c.975.246,4.121.7,3.615,2.739Z" transform="translate(-59.442 -114.114)" fill="#7ce2ca"/>
                <rect id="cell-9" data-name="cell" width="32" height="32" fill="none"/>
              </g>
            </g>
          </g>
        </g>
      </g>
      <g id="icon-api-7" data-name="icon-api" transform="translate(103 -0.295)">
        <rect id="cell-10" data-name="cell" width="69" height="68.999" transform="translate(0)" fill="none"/>
        <g id="icon-api_small-4" data-name="icon-api_small">
          <rect id="cell-11" data-name="cell" width="69" height="69" fill="none"/>
          <g id="icon-api-8" data-name="icon-api" transform="translate(2.156 2.154)">
            <circle id="Elipse_66-2-4" data-name="Elipse 66-2" cx="17.25" cy="17.25" r="17.25" transform="translate(15.094 15.093)" fill="none" stroke="#7ce3cb" stroke-miterlimit="10" stroke-width="1"/>
            <path id="Path_146373-4" data-name="Path 146373" d="M363.591,73.9l4.086-.621a32.574,32.574,0,0,0,.234-3.832c0-1.021-.053-2.03-.146-3.027l-4.174-.628a28.456,28.456,0,0,0-1.707-6.315l3.443-2.714a32.256,32.256,0,0,0-3.316-5.928l-4.1,1.609a27.486,27.486,0,0,0-4.625-4.608l1.684-4.272a32.353,32.353,0,0,0-5.746-3.439L346.307,43.8a27.8,27.8,0,0,0-6.315-1.707l-.717-4.764a32.779,32.779,0,0,0-3.707-.218c-.988,0-1.965.052-2.93.138l-.724,4.929a27.812,27.812,0,0,0-6.316,1.707l-3.147-3.993a32.262,32.262,0,0,0-5.72,3.279l1.84,4.691a28.774,28.774,0,0,0-4.625,4.608l-4.674-1.836A32.291,32.291,0,0,0,306,56.352l3.916,3.106a28.372,28.372,0,0,0-1.707,6.316l-4.841.728c-.088.972-.14,1.954-.14,2.949a32.545,32.545,0,0,0,.218,3.706l4.747.712a28.408,28.408,0,0,0,1.707,6.3l-3.657,2.918a32.341,32.341,0,0,0,3.482,5.808l4.215-1.624a29.63,29.63,0,0,0,4.625,4.625l-1.579,4.019a32.267,32.267,0,0,0,5.937,3.313l2.657-3.373a28.421,28.421,0,0,0,6.316,1.707l.614,4.087c1.009.094,2.029.148,3.063.148a32.427,32.427,0,0,0,3.788-.229l.613-4.074a28.451,28.451,0,0,0,6.315-1.707l2.507,3.181a32.3,32.3,0,0,0,5.958-3.476l-1.434-3.649a28.817,28.817,0,0,0,4.609-4.625l3.666,1.438a32.272,32.272,0,0,0,3.476-5.945L361.885,80.2A29.04,29.04,0,0,0,363.591,73.9Z" transform="translate(-303.224 -37.108)" fill="none" stroke="#7ce3cb" stroke-width="1"/>
            <g id="icon_data-4" data-name="icon_data" transform="translate(15.093 15.096)">
              <g id="icon-population-data_solid">
                <g id="Group_2560" data-name="Group 2560" transform="translate(9.626 7.273)">
                  <path id="Path_146331" data-name="Path 146331" d="M67.74,184.143a7.945,7.945,0,0,1,15.887,0Z" transform="translate(-67.74 -165.541)" fill="#7ce3cb"/>
                  <ellipse id="Ellipse_87" data-name="Ellipse 87" cx="4.558" cy="4.483" rx="4.558" ry="4.483" transform="translate(3.386)" fill="#7ce2ca"/>
                </g>
                <rect id="cell-12" data-name="cell" width="34.5" height="34.5" fill="none"/>
              </g>
            </g>
          </g>
        </g>
      </g>
      <g id="icon-api-9" data-name="icon-api" transform="translate(105 322.705)">
        <rect id="cell-13" data-name="cell" width="64" height="64" transform="translate(0)" fill="none"/>
        <g id="icon-api_small-5" data-name="icon-api_small">
          <rect id="cell-14" data-name="cell" width="64" height="64" fill="none"/>
          <g id="icon-api-10" data-name="icon-api" transform="translate(2 1.998)">
            <circle id="Elipse_66-2-5" data-name="Elipse 66-2" cx="16" cy="16" r="16" transform="translate(14 13.999)" fill="none" stroke="#7ce3cb" stroke-miterlimit="10" stroke-width="1"/>
            <path id="Path_146373-5" data-name="Path 146373" d="M359.217,71.238l3.79-.576a30.212,30.212,0,0,0,.217-3.554c0-.947-.049-1.883-.135-2.807l-3.871-.582a26.393,26.393,0,0,0-1.583-5.857l3.193-2.517a29.921,29.921,0,0,0-3.076-5.5l-3.807,1.492a25.491,25.491,0,0,0-4.29-4.274l1.562-3.962a30.01,30.01,0,0,0-5.33-3.19l-2.7,3.4a25.791,25.791,0,0,0-5.857-1.583l-.665-4.419a30.4,30.4,0,0,0-3.439-.2c-.916,0-1.822.048-2.718.128l-.672,4.572a25.8,25.8,0,0,0-5.858,1.583l-2.919-3.7a29.925,29.925,0,0,0-5.305,3.041l1.707,4.351a26.689,26.689,0,0,0-4.29,4.274l-4.335-1.7a29.952,29.952,0,0,0-3.039,5.307l3.632,2.881a26.314,26.314,0,0,0-1.583,5.858l-4.491.675c-.082.9-.13,1.813-.13,2.735a30.187,30.187,0,0,0,.2,3.438l4.4.66a26.35,26.35,0,0,0,1.583,5.842l-3.392,2.706a30,30,0,0,0,3.229,5.387l3.909-1.507a27.485,27.485,0,0,0,4.29,4.29l-1.464,3.728a29.93,29.93,0,0,0,5.506,3.073l2.464-3.128a26.36,26.36,0,0,0,5.858,1.583l.57,3.791c.936.087,1.882.137,2.841.137a30.076,30.076,0,0,0,3.514-.212l.569-3.779a26.389,26.389,0,0,0,5.857-1.583l2.325,2.951a29.964,29.964,0,0,0,5.527-3.224l-1.33-3.384a26.731,26.731,0,0,0,4.275-4.29l3.4,1.334a29.935,29.935,0,0,0,3.224-5.514l-2.951-2.326A26.936,26.936,0,0,0,359.217,71.238Z" transform="translate(-303.224 -37.108)" fill="none" stroke="#7ce3cb" stroke-width="1"/>
            <g id="icon_data-5" data-name="icon_data" transform="translate(13.999 14.002)">
              <g id="icon-geolocation_solid">
                <rect id="cell-15" data-name="cell" width="32" height="32" fill="none"/>
                <g id="Group_2555" data-name="Group 2555" transform="translate(10 8)">
                  <path id="Path_146282" data-name="Path 146282" d="M131.153,88.931h0a6.192,6.192,0,1,0-10.742.35l5.13,8.474s5.456-8.531,5.607-8.814Z" transform="translate(-119.488 -79.841)" fill="#7ce3cb"/>
                  <circle id="Ellipse_72" data-name="Ellipse 72" cx="2.703" cy="2.703" r="2.703" transform="translate(3.489 3.551)" fill="#030303"/>
                </g>
              </g>
            </g>
          </g>
        </g>
      </g>
      <g id="icon-api-11" data-name="icon-api" transform="translate(0 165.705)">
        <rect id="cell-16" data-name="cell" width="64" height="64" transform="translate(0)" fill="none"/>
        <g id="icon-api_small-6" data-name="icon-api_small">
          <rect id="cell-17" data-name="cell" width="64" height="64" fill="none"/>
          <g id="icon-api-12" data-name="icon-api" transform="translate(2 1.998)">
            <circle id="Elipse_66-2-6" data-name="Elipse 66-2" cx="16" cy="16" r="16" transform="translate(14 13.999)" fill="none" stroke="#7ce3cb" stroke-miterlimit="10" stroke-width="1"/>
            <path id="Path_146373-6" data-name="Path 146373" d="M359.217,71.238l3.79-.576a30.212,30.212,0,0,0,.217-3.554c0-.947-.049-1.883-.135-2.807l-3.871-.582a26.393,26.393,0,0,0-1.583-5.857l3.193-2.517a29.921,29.921,0,0,0-3.076-5.5l-3.807,1.492a25.491,25.491,0,0,0-4.29-4.274l1.562-3.962a30.01,30.01,0,0,0-5.33-3.19l-2.7,3.4a25.791,25.791,0,0,0-5.857-1.583l-.665-4.419a30.4,30.4,0,0,0-3.439-.2c-.916,0-1.822.048-2.718.128l-.672,4.572a25.8,25.8,0,0,0-5.858,1.583l-2.919-3.7a29.925,29.925,0,0,0-5.305,3.041l1.707,4.351a26.689,26.689,0,0,0-4.29,4.274l-4.335-1.7a29.952,29.952,0,0,0-3.039,5.307l3.632,2.881a26.314,26.314,0,0,0-1.583,5.858l-4.491.675c-.082.9-.13,1.813-.13,2.735a30.187,30.187,0,0,0,.2,3.438l4.4.66a26.35,26.35,0,0,0,1.583,5.842l-3.392,2.706a30,30,0,0,0,3.229,5.387l3.909-1.507a27.485,27.485,0,0,0,4.29,4.29l-1.464,3.728a29.93,29.93,0,0,0,5.506,3.073l2.464-3.128a26.36,26.36,0,0,0,5.858,1.583l.57,3.791c.936.087,1.882.137,2.841.137a30.076,30.076,0,0,0,3.514-.212l.569-3.779a26.389,26.389,0,0,0,5.857-1.583l2.325,2.951a29.964,29.964,0,0,0,5.527-3.224l-1.33-3.384a26.731,26.731,0,0,0,4.275-4.29l3.4,1.334a29.935,29.935,0,0,0,3.224-5.514l-2.951-2.326A26.936,26.936,0,0,0,359.217,71.238Z" transform="translate(-303.224 -37.108)" fill="none" stroke="#7ce3cb" stroke-width="1"/>
            <g id="icon_data-6" data-name="icon_data" transform="translate(14 14.002)">
              <g id="icon-wheater_solid">
                <rect id="cell-18" data-name="cell" width="32" height="32" fill="none"/>
                <path id="icon-wheater" d="M127.779,127.864c-.059,0-.113.015-.172.017a5.484,5.484,0,0,0-10.442,2.354c0,.083.021.16.024.242a4.1,4.1,0,0,0,1.853,7.593v.03h8.736a5.118,5.118,0,0,0,0-10.236Z" transform="translate(-107.216 -114.739)" fill="#7ce3cb"/>
              </g>
            </g>
          </g>
        </g>
      </g>
    </g>
  </g>
  <rect id="cell-19" data-name="cell" width="480" height="480" fill="none"/>
</svg>
