<svg xmlns="http://www.w3.org/2000/svg" width="40" height="40" viewBox="0 0 40 40">
  <g id="social-twitter" opacity="0.997">
    <rect id="_60" data-name="60" width="40" height="40" fill="none"/>
    <path id="icon-twitter" d="M20.805,2.912a9.926,9.926,0,0,0,2.784-.721A9.936,9.936,0,0,1,21.165,4.6q.015.2.015.605a12.775,12.775,0,0,1-.569,3.741,13.294,13.294,0,0,1-1.729,3.582,14.259,14.259,0,0,1-2.762,3.034,12.425,12.425,0,0,1-3.862,2.1,14.623,14.623,0,0,1-4.835.786A13.8,13.8,0,0,1,0,16.361a10.74,10.74,0,0,0,1.168.058,9.7,9.7,0,0,0,6-1.989,4.831,4.831,0,0,1-2.814-.93,4.563,4.563,0,0,1-1.706-2.3,6.355,6.355,0,0,0,.913.072,5.183,5.183,0,0,0,1.272-.159A4.792,4.792,0,0,1,2.058,9.507a4.4,4.4,0,0,1-1.1-2.962V6.487a4.936,4.936,0,0,0,2.185.591A4.72,4.72,0,0,1,1.572,5.42,4.405,4.405,0,0,1,.988,3.2,4.434,4.434,0,0,1,1.646.851,13.619,13.619,0,0,0,6.055,4.289a13.876,13.876,0,0,0,5.561,1.434,4.989,4.989,0,0,1-.12-1.067A4.405,4.405,0,0,1,12.91,1.362,4.751,4.751,0,0,1,16.33,0a4.746,4.746,0,0,1,3.532,1.47A9.7,9.7,0,0,0,22.931.346,4.556,4.556,0,0,1,20.805,2.912Z" transform="translate(8.074 10.667)" fill="#f3f3f3"/>
  </g>
</svg>
