<svg id="social-github" xmlns="http://www.w3.org/2000/svg" width="40" height="40" viewBox="0 0 40 40">
  <rect id="_60" data-name="60" width="40" height="40" fill="none"/>
  <path id="Path_253" data-name="Path 253" d="M5.346,1.461A10.379,10.379,0,0,1,10.733,0,10.379,10.379,0,0,1,16.12,1.461,10.9,10.9,0,0,1,21.466,10.9,10.7,10.7,0,0,1,19.419,17.3a10.524,10.524,0,0,1-5.29,3.937.618.618,0,0,1-.559-.1.559.559,0,0,1-.182-.426q0-.043.007-1.085t.007-1.908a2.548,2.548,0,0,0-.727-2.015,9.441,9.441,0,0,0,1.432-.255,5.661,5.661,0,0,0,1.314-.553,3.92,3.92,0,0,0,1.132-.944,4.416,4.416,0,0,0,.741-1.49,7.255,7.255,0,0,0,.286-2.135,4.239,4.239,0,0,0-1.1-2.923,3.831,3.831,0,0,0-.112-2.894,1.806,1.806,0,0,0-1.132.156,7.478,7.478,0,0,0-1.286.624l-.531.341a9.943,9.943,0,0,0-5.366,0q-.224-.156-.594-.383A8.321,8.321,0,0,0,6.289,4.7,1.9,1.9,0,0,0,5.1,4.512a3.831,3.831,0,0,0-.112,2.894,4.239,4.239,0,0,0-1.1,2.923,7.183,7.183,0,0,0,.286,2.128,4.6,4.6,0,0,0,.734,1.49A3.779,3.779,0,0,0,6.03,14.9a5.661,5.661,0,0,0,1.314.553,9.441,9.441,0,0,0,1.432.255,2.411,2.411,0,0,0-.685,1.461,2.743,2.743,0,0,1-.629.213,3.9,3.9,0,0,1-.8.071,1.629,1.629,0,0,1-.915-.305,2.489,2.489,0,0,1-.776-.887,2.276,2.276,0,0,0-.678-.738,2.027,2.027,0,0,0-.692-.341l-.28-.043a.894.894,0,0,0-.405.064q-.112.064-.07.163a.783.783,0,0,0,.126.2,1.028,1.028,0,0,0,.182.17l.1.071a1.7,1.7,0,0,1,.608.539,3.558,3.558,0,0,1,.44.724l.14.326a1.8,1.8,0,0,0,.615.873A2.159,2.159,0,0,0,6,18.693a5.882,5.882,0,0,0,.971.1,4.05,4.05,0,0,0,.776-.05l.321-.057q0,.539.007,1.256t.007.773a.559.559,0,0,1-.182.426.618.618,0,0,1-.559.1A10.524,10.524,0,0,1,2.047,17.3,10.7,10.7,0,0,1,0,10.9,10.9,10.9,0,0,1,5.346,1.461ZM3.885,15.678q.126.085.182-.028t-.1-.17q-.14-.043-.182.028Q3.745,15.607,3.885,15.678Zm.391.411q.14.142.224.043.1-.071-.028-.227-.14-.128-.224-.043T4.276,16.089Zm.405.582q.126.184.238.1t0-.27q-.112-.184-.238-.085Q4.556,16.487,4.682,16.671Zm.545.653q.168.17.28.043T5.45,17.1q-.168-.17-.28-.043T5.227,17.324Zm.811.482q.21.085.266-.085t-.182-.227q-.21-.057-.266.1T6.037,17.806Zm.922.142q.224,0,.224-.156,0-.184-.238-.156-.224,0-.224.156Q6.722,17.976,6.96,17.948Zm.839-.1q.224-.057.2-.2t-.252-.128q-.224.043-.2.213T7.8,17.849Z" transform="translate(9.42 9.333)" fill="#f3f3f3"/>
</svg>
