<svg xmlns="http://www.w3.org/2000/svg" width="117.133" height="96" viewBox="0 0 117.133 96">
  <g id="Group_2499" data-name="Group 2499" transform="translate(-642.779 -125.911)">
    <g id="Elipse_72" data-name="Elipse 72">
      <path id="Path_146241" data-name="Path 146241" d="M701.478,125.911a48,48,0,0,1,48,48" fill="none"/>
      <path id="Path_146242" data-name="Path 146242" d="M701.478,221.911a48,48,0,0,1-48-48" fill="none"/>
      <path id="Path_146243" data-name="Path 146243" d="M658.054,154.631a47.514,47.514,0,0,1,90.439,26.089" fill="none" stroke="#646564" stroke-width="1"/>
      <path id="Path_146244" data-name="Path 146244" d="M742.87,197.229a47.506,47.506,0,0,1-88.892-23.318q0-1.287.067-2.557" fill="none" stroke="#646564" stroke-width="1"/>
    </g>
    <path id="Trazado_146231" data-name="Trazado 146231" d="M643.133,181.692l10.8-10.805,10.617,10.618" fill="none" stroke="#646564" stroke-miterlimit="10" stroke-width="1"/>
    <path id="Trazado_146216-3" data-name="Trazado 146216-3" d="M759.559,170.509l-10.8,10.8L738.136,170.7" fill="none" stroke="#646564" stroke-miterlimit="10" stroke-width="1"/>
    <g id="icon-api" transform="translate(667.133 139.909)">
      <rect id="cell" width="69" height="69" transform="translate(0)" fill="none"/>
      <g id="icon-api_small">
        <rect id="cell-2" data-name="cell" width="69" height="69" fill="none"/>
        <g id="icon-api-2" data-name="icon-api" transform="translate(2.156 2.154)">
          <path id="Elipse_66-2" data-name="Elipse 66-2" d="M17.25,0A17.25,17.25,0,1,1,0,17.25,17.25,17.25,0,0,1,17.25,0Z" transform="translate(15.094 15.093)" fill="none" stroke="#f3f3f3" stroke-width="1"/>
          <path id="Path_146373" data-name="Path 146373" d="M363.592,73.9l4.086-.621a32.574,32.574,0,0,0,.234-3.832c0-1.021-.053-2.03-.146-3.027l-4.174-.628a28.456,28.456,0,0,0-1.707-6.315l3.443-2.714a32.256,32.256,0,0,0-3.316-5.928l-4.1,1.609a27.486,27.486,0,0,0-4.625-4.608l1.684-4.272a32.353,32.353,0,0,0-5.746-3.439L346.307,43.8a27.8,27.8,0,0,0-6.315-1.707l-.717-4.764a32.779,32.779,0,0,0-3.707-.218c-.988,0-1.965.052-2.93.138l-.724,4.929a27.812,27.812,0,0,0-6.316,1.707l-3.147-3.993a32.262,32.262,0,0,0-5.72,3.279l1.84,4.691a28.775,28.775,0,0,0-4.625,4.608l-4.674-1.836A32.291,32.291,0,0,0,306,56.352l3.916,3.106a28.372,28.372,0,0,0-1.707,6.316l-4.841.728c-.088.972-.14,1.954-.14,2.949a32.545,32.545,0,0,0,.218,3.706l4.747.712a28.408,28.408,0,0,0,1.707,6.3l-3.657,2.918a32.341,32.341,0,0,0,3.482,5.808l4.215-1.624a29.631,29.631,0,0,0,4.625,4.625l-1.579,4.019a32.267,32.267,0,0,0,5.937,3.313l2.657-3.373a28.421,28.421,0,0,0,6.316,1.707l.614,4.087c1.009.094,2.029.148,3.063.148a32.427,32.427,0,0,0,3.788-.229l.613-4.074a28.45,28.45,0,0,0,6.315-1.707l2.507,3.181a32.3,32.3,0,0,0,5.958-3.476l-1.434-3.649a28.817,28.817,0,0,0,4.609-4.625l3.666,1.438a32.272,32.272,0,0,0,3.476-5.945L361.885,80.2A29.04,29.04,0,0,0,363.592,73.9Z" transform="translate(-303.224 -37.108)" fill="none" stroke="#f3f3f3" stroke-width="1"/>
        </g>
      </g>
    </g>
  </g>
</svg>
