<svg id="icon-build" xmlns="http://www.w3.org/2000/svg" xmlns:xlink="http://www.w3.org/1999/xlink" width="145" height="147" viewBox="0 0 145 147">
  <defs>
    <clipPath id="clip-path">
      <rect id="mask" width="121" height="120" fill="#fff" stroke="#707070" stroke-width="1"/>
    </clipPath>
  </defs>
  <rect id="cell" width="144" height="144" transform="translate(1 3)" fill="none"/>
  <g id="Group_2569" data-name="Group 2569" transform="translate(0 3)">
    <path id="Path_146371" data-name="Path 146371" d="M28.62,144H50.71l-11-19.13Zm1.63-.94,9.42-16.31,9.41,16.31Zm11.3-18.19L52.6,144l11-19.13Zm1.64.94H62l-9.41,16.3Zm-27.5-.94,11,19.13,11.05-19.13Zm1.63.94H36.14l-9.41,16.3ZM15.69,123H37.78l-11-19.13Zm1.63-.94,9.41-16.31L36.14,122Zm46.33.94-11-19.13L41.55,123ZM62,122H43.19l9.41-16.31Zm18.34,22h22.1l-11-19.13Zm1.64-.94,9.41-16.31,9.41,16.31Zm11.3-18.19,11,19.13,11-19.13Zm1.63.94h18.83l-9.42,16.3Zm-27.5-.94,11,19.13,11-19.13Zm1.63.94H87.88l-9.41,16.3Zm33.4-21.59H80.35L91.4,123.36Zm-1.64,1-9.41,16.3L82,105.17ZM54.49,144H76.58l-11-19.13Zm1.63-.94,9.41-16.31L75,143.06ZM76.58,78H54.49l11,19.13ZM75,78.92l-9.42,16.3-9.41-16.3ZM67.42,123H89.51l-11-19.13Zm1.63-.94,9.42-16.31L87.88,122Zm35.28-18.19L93.29,123h22.09Zm0,1.88L113.75,122H94.92ZM130.2,144l11.05-19.13H119.16Zm0-1.89-9.41-16.3h18.82Zm-24,1.89h22.09l-11-19.13Zm1.64-.94,9.41-16.31,9.41,16.31Zm11.3-29.51h22.09L130.2,94.41Zm1.63-1,9.41-16.3,9.41,16.3Zm-81.12-1.34,11-19.13H28.62Zm0-1.89-9.42-16.3H49.08Zm-1.87-66.5H15.69L26.73,62Zm-1.64.94-9.41,16.3-9.41-16.3ZM13.8,76.22,2.8,95.36H24.84Zm0,1.89,9.41,16.3H4.39Zm101.58-5H93.29l11,19.13Zm-1.63.94-9.42,16.3L94.92,74ZM89.51,13.91H67.42L78.47,33Zm-1.63.94L78.47,31.16,69.05,14.85ZM65.53,43.76l-11,19.14H76.58Zm0,1.89L75,62H56.12Zm75.72,13.46H119.16l11,19.13Zm-1.64,1-9.41,16.3-9.41-16.3Z" transform="translate(2 -6)" fill="#646564"/>
  </g>
  <g id="Mask_Group_3" data-name="Mask Group 3" clip-path="url(#clip-path)">
    <g id="Group_2618" data-name="Group 2618" transform="translate(0 3)">
      <path id="Path_146371-2" data-name="Path 146371" d="M28.62,144H50.71l-11-19.13Zm1.63-.94,9.42-16.31,9.41,16.31Zm11.3-18.19L52.6,144l11-19.13Zm1.64.94H62l-9.41,16.3Zm-27.5-.94,11,19.13,11.05-19.13Zm1.63.94H36.14l-9.41,16.3ZM15.69,123H37.78l-11-19.13Zm1.63-.94,9.41-16.31L36.14,122Zm46.33.94-11-19.13L41.55,123ZM62,122H43.19l9.41-16.31Zm18.34,22h22.1l-11-19.13Zm1.64-.94,9.41-16.31,9.41,16.31Zm11.3-18.19,11,19.13,11-19.13Zm1.63.94h18.83l-9.42,16.3Zm-27.5-.94,11,19.13,11-19.13Zm1.63.94H87.88l-9.41,16.3Zm33.4-21.59H80.35L91.4,123.36Zm-1.64,1-9.41,16.3L82,105.17ZM54.49,144H76.58l-11-19.13Zm1.63-.94,9.41-16.31L75,143.06ZM76.58,78H54.49l11,19.13ZM75,78.92l-9.42,16.3-9.41-16.3ZM67.42,123H89.51l-11-19.13Zm1.63-.94,9.42-16.31L87.88,122Zm35.28-18.19L93.29,123h22.09Zm0,1.88L113.75,122H94.92ZM130.2,144l11.05-19.13H119.16Zm0-1.89-9.41-16.3h18.82Zm-24,1.89h22.09l-11-19.13Zm1.64-.94,9.41-16.31,9.41,16.31Zm11.3-29.51h22.09L130.2,94.41Zm1.63-1,9.41-16.3,9.41,16.3Zm-81.12-1.34,11-19.13H28.62Zm0-1.89-9.42-16.3H49.08Zm-1.87-66.5H15.69L26.73,62Zm-1.64.94-9.41,16.3-9.41-16.3ZM13.8,76.22,2.8,95.36H24.84Zm0,1.89,9.41,16.3H4.39Zm101.58-5H93.29l11,19.13Zm-1.63.94-9.42,16.3L94.92,74ZM89.51,13.91H67.42L78.47,33Zm-1.63.94L78.47,31.16,69.05,14.85ZM65.53,43.76l-11,19.14H76.58Zm0,1.89L75,62H56.12Zm75.72,13.46H119.16l11,19.13Zm-1.64,1-9.41,16.3-9.41-16.3Z" transform="translate(2 -6)" fill="#f3f3f3"/>
    </g>
  </g>
</svg>
