<svg id="Features-graph_3-Data-Provider-Operated_mobile" xmlns="http://www.w3.org/2000/svg" xmlns:xlink="http://www.w3.org/1999/xlink" width="184" height="184" viewBox="0 0 184 184">
  <defs>
    <clipPath id="clip-path">
      <rect id="Rectángulo_1223" data-name="Rectángulo 1223" width="25.86" height="25.86" fill="none"/>
    </clipPath>
  </defs>
  <g id="Grupo_2594" data-name="Grupo 2594" transform="translate(-56 -1975)">
    <g id="Grupo_2593" data-name="Grupo 2593" transform="translate(56 1975)">
      <rect id="Rectángulo_1222" data-name="Rectángulo 1222" width="184" height="184" fill="none"/>
      <g id="_3-Data_Provider_Operated" data-name=" 3-Data Provider Operated">
        <g id="elementos">
          <path id="Trazado_145756" data-name="Trazado 145756" d="M269.52,171.31l2.8,4.842h45.26l2.794-4.842" transform="translate(-166.204 -105.641)" fill="none" stroke="#878888" stroke-miterlimit="10" stroke-width="0.97"/>
          <path id="Trazado_145757" data-name="Trazado 145757" d="M76.38,171.31l2.8,4.842h45.26l2.779-4.842" transform="translate(-47.101 -105.641)" fill="none" stroke="#878888" stroke-miterlimit="10" stroke-width="0.97"/>
          <path id="Trazado_145764" data-name="Trazado 145764" d="M157.316,71.49H82.727l-37.287,64.6,37.287,64.6h74.589l37.291-64.6Z" transform="translate(-28.021 -44.085)" fill="none"/>
          <path id="Trazado_145765" data-name="Trazado 145765" d="M142.71,189.94V199l22.345,10.128" transform="translate(-88.004 -117.13)" fill="none" stroke="#878888" stroke-miterlimit="10" stroke-width="1"/>
          <circle id="Elipse_32" data-name="Elipse 32" cx="1.15" cy="1.15" r="1.15" transform="translate(53.556 80.738)" fill="#030303" stroke="#7ce3cb" stroke-miterlimit="10" stroke-width="1"/>
          <path id="Trazado_145766" data-name="Trazado 145766" d="M300.534,189.94V199L278.58,209.13" transform="translate(-171.791 -117.13)" fill="none" stroke="#878888" stroke-miterlimit="10" stroke-width="1"/>
          <circle id="Elipse_33" data-name="Elipse 33" cx="1.15" cy="1.15" r="1.15" transform="translate(127.592 80.738)" fill="#030303" stroke="#7ce3cb" stroke-miterlimit="10" stroke-width="1"/>
          <g id="Grupo_2590" data-name="Grupo 2590" transform="translate(79.718 130.82)" clip-path="url(#clip-path)">
            <g id="Grupo_2476" data-name="Grupo 2476" transform="translate(0.276 0.28)">
              <g id="data">
                <path id="Trazado_145767" data-name="Trazado 145767" d="M233.98,367.3h-25.3V342h20.094l5.206,5.209Z" transform="translate(-208.68 -342)" fill="none" stroke="#7ce3cb" stroke-miterlimit="10" stroke-width="0.97"/>
                <line id="Línea_25" data-name="Línea 25" x2="18.07" transform="translate(3.619 12.646)" fill="none" stroke="#7ce3cb" stroke-miterlimit="10" stroke-width="0.97"/>
                <line id="Línea_26" data-name="Línea 26" x2="18.07" transform="translate(3.619 16.261)" fill="none" stroke="#7ce3cb" stroke-miterlimit="10" stroke-width="0.97"/>
                <line id="Línea_27" data-name="Línea 27" x2="18.07" transform="translate(3.619 19.88)" fill="none" stroke="#7ce3cb" stroke-miterlimit="10" stroke-width="0.97"/>
              </g>
            </g>
          </g>
          <line id="Línea_28" data-name="Línea 28" y2="22" transform="translate(92 107)" fill="none" stroke="#878888" stroke-miterlimit="10" stroke-width="1"/>
          <circle id="Elipse_34" data-name="Elipse 34" cx="13" cy="13" r="13" transform="translate(79 79)" fill="none" stroke="#7ce3cb" stroke-miterlimit="10" stroke-width="1"/>
          <line id="Línea_29" data-name="Línea 29" y2="6.003" transform="translate(92 88.999)" fill="none" stroke="#7ce3cb" stroke-miterlimit="10" stroke-width="1"/>
          <line id="Línea_30" data-name="Línea 30" x1="6.003" transform="translate(88.999 92)" fill="none" stroke="#7ce3cb" stroke-miterlimit="10" stroke-width="1"/>
          <rect id="Rectángulo_1189" data-name="Rectángulo 1189" width="184" height="184" fill="none"/>
        </g>
        <g id="logo-airnode" transform="translate(117.415 47.574)">
          <g id="OP2-logotipo-color">
            <g id="Grupo_2500" data-name="Grupo 2500">
              <path id="Trazado_145761" data-name="Trazado 145761" d="M68.145,72.07a9.551,9.551,0,0,0-7.395,3.5,6.382,6.382,0,0,1,0,12.144,9.568,9.568,0,1,0,7.395-15.64Z" transform="translate(-52.383 -72.07)" fill="none" stroke="#7ce3cb" stroke-miterlimit="10" stroke-width="0.79"/>
              <path id="Trazado_145762" data-name="Trazado 145762" d="M54.566,77.925a6.5,6.5,0,0,0-1.955-.3,6.382,6.382,0,1,0,1.955,12.449,9.568,9.568,0,0,1,0-12.144Z" transform="translate(-46.199 -74.429)" fill="none" stroke="#7ce3cb" stroke-miterlimit="10" stroke-width="0.79"/>
              <path id="Trazado_145763" data-name="Trazado 145763" d="M63.565,84.222a6.383,6.383,0,0,0-4.422-6.072,9.568,9.568,0,0,0,0,12.144A6.377,6.377,0,0,0,63.565,84.222Z" transform="translate(-50.777 -74.654)" fill="#7ce3cb"/>
            </g>
          </g>
        </g>
        <g id="logo-airnode-2" data-name="logo-airnode" transform="translate(40.748 47.574)">
          <g id="OP2-logotipo-color-2" data-name="OP2-logotipo-color">
            <g id="Grupo_2500-2" data-name="Grupo 2500">
              <path id="Trazado_145761-2" data-name="Trazado 145761" d="M68.145,72.07a9.551,9.551,0,0,0-7.395,3.5,6.382,6.382,0,0,1,0,12.144,9.568,9.568,0,1,0,7.395-15.64Z" transform="translate(-52.383 -72.07)" fill="none" stroke="#7ce3cb" stroke-miterlimit="10" stroke-width="0.79"/>
              <path id="Trazado_145762-2" data-name="Trazado 145762" d="M54.566,77.925a6.5,6.5,0,0,0-1.955-.3,6.382,6.382,0,1,0,1.955,12.449,9.568,9.568,0,0,1,0-12.144Z" transform="translate(-46.199 -74.429)" fill="none" stroke="#7ce3cb" stroke-miterlimit="10" stroke-width="0.79"/>
              <path id="Trazado_145763-2" data-name="Trazado 145763" d="M63.565,84.222a6.383,6.383,0,0,0-4.422-6.072,9.568,9.568,0,0,0,0,12.144A6.377,6.377,0,0,0,63.565,84.222Z" transform="translate(-50.777 -74.654)" fill="#7ce3cb"/>
            </g>
          </g>
        </g>
        <g id="icon-api_small" transform="translate(36 11.021)">
          <rect id="cell" width="32" height="32" fill="none"/>
          <g id="icon-api" transform="translate(0.092 -0.04)">
            <circle id="Elipse_66-2" data-name="Elipse 66-2" cx="8" cy="8" r="8" transform="translate(7.908 8.039)" fill="none" stroke="#7ce3cb" stroke-miterlimit="10" stroke-width="1"/>
            <path id="Trazado_146373" data-name="Trazado 146373" d="M331.221,54.173l1.895-.288a15.106,15.106,0,0,0,.109-1.777c0-.474-.025-.941-.068-1.4l-1.936-.291a13.2,13.2,0,0,0-.792-2.929l1.6-1.259a14.961,14.961,0,0,0-1.538-2.749l-1.9.746a12.746,12.746,0,0,0-2.145-2.137l.781-1.981a15,15,0,0,0-2.665-1.595l-1.351,1.7a12.9,12.9,0,0,0-2.929-.792l-.332-2.209a15.2,15.2,0,0,0-1.719-.1c-.458,0-.911.024-1.359.064l-.336,2.286a12.9,12.9,0,0,0-2.929.792l-1.46-1.852a14.962,14.962,0,0,0-2.653,1.521l.854,2.175a13.345,13.345,0,0,0-2.145,2.137l-2.167-.851a14.976,14.976,0,0,0-1.519,2.653l1.816,1.441a13.157,13.157,0,0,0-.792,2.929l-2.245.338c-.041.451-.065.906-.065,1.368a15.093,15.093,0,0,0,.1,1.719l2.2.33a13.175,13.175,0,0,0,.792,2.921l-1.7,1.353a15,15,0,0,0,1.615,2.693l1.955-.753a13.743,13.743,0,0,0,2.145,2.145L309.6,64.38a14.965,14.965,0,0,0,2.753,1.536l1.232-1.564a13.18,13.18,0,0,0,2.929.792l.285,1.9c.468.044.941.069,1.42.069A15.038,15.038,0,0,0,319.981,67l.285-1.89a13.194,13.194,0,0,0,2.929-.792l1.163,1.475a14.982,14.982,0,0,0,2.763-1.612l-.665-1.692a13.365,13.365,0,0,0,2.138-2.145l1.7.667a14.968,14.968,0,0,0,1.612-2.757l-1.476-1.163A13.468,13.468,0,0,0,331.221,54.173Z" transform="translate(-302.316 -36.069)" fill="none" stroke="#7ce3cb" stroke-width="1"/>
            <g id="icon_data" transform="translate(0.5 -0.5)">
              <g id="icon-population-data_solid" transform="translate(7.408 8.54)">
                <g id="Grupo_2560" data-name="Grupo 2560" transform="translate(5 4)">
                  <path id="Trazado_146331" data-name="Trazado 146331" d="M67.74,179.953a3.684,3.684,0,0,1,7.368,0Z" transform="translate(-68.276 -171.953)" fill="#7ce3cb"/>
                  <ellipse id="Elipse_87" data-name="Elipse 87" cx="2.114" cy="2.079" rx="2.114" ry="2.079" transform="translate(1.035 -0.627)" fill="#7ce2ca"/>
                </g>
                <rect id="cell-2" data-name="cell" width="16" height="16" fill="none"/>
              </g>
            </g>
          </g>
        </g>
        <g id="icon-api_small-2" data-name="icon-api_small" transform="translate(114 11.021)">
          <rect id="cell-3" data-name="cell" width="32" height="32" fill="none"/>
          <g id="icon-api-2" data-name="icon-api" transform="translate(0.092 -0.04)">
            <circle id="Elipse_66-2-2" data-name="Elipse 66-2" cx="8" cy="8" r="8" transform="translate(7.908 8.039)" fill="none" stroke="#7ce3cb" stroke-miterlimit="10" stroke-width="1"/>
            <path id="Trazado_146373-2" data-name="Trazado 146373" d="M331.221,54.173l1.895-.288a15.106,15.106,0,0,0,.109-1.777c0-.474-.025-.941-.068-1.4l-1.936-.291a13.2,13.2,0,0,0-.792-2.929l1.6-1.259a14.961,14.961,0,0,0-1.538-2.749l-1.9.746a12.746,12.746,0,0,0-2.145-2.137l.781-1.981a15,15,0,0,0-2.665-1.595l-1.351,1.7a12.9,12.9,0,0,0-2.929-.792l-.332-2.209a15.2,15.2,0,0,0-1.719-.1c-.458,0-.911.024-1.359.064l-.336,2.286a12.9,12.9,0,0,0-2.929.792l-1.46-1.852a14.962,14.962,0,0,0-2.653,1.521l.854,2.175a13.345,13.345,0,0,0-2.145,2.137l-2.167-.851a14.976,14.976,0,0,0-1.519,2.653l1.816,1.441a13.157,13.157,0,0,0-.792,2.929l-2.245.338c-.041.451-.065.906-.065,1.368a15.093,15.093,0,0,0,.1,1.719l2.2.33a13.175,13.175,0,0,0,.792,2.921l-1.7,1.353a15,15,0,0,0,1.615,2.693l1.955-.753a13.743,13.743,0,0,0,2.145,2.145L309.6,64.38a14.965,14.965,0,0,0,2.753,1.536l1.232-1.564a13.18,13.18,0,0,0,2.929.792l.285,1.9c.468.044.941.069,1.42.069A15.038,15.038,0,0,0,319.981,67l.285-1.89a13.194,13.194,0,0,0,2.929-.792l1.163,1.475a14.982,14.982,0,0,0,2.763-1.612l-.665-1.692a13.365,13.365,0,0,0,2.138-2.145l1.7.667a14.968,14.968,0,0,0,1.612-2.757l-1.476-1.163A13.468,13.468,0,0,0,331.221,54.173Z" transform="translate(-302.316 -36.069)" fill="none" stroke="#7ce3cb" stroke-width="1"/>
            <g id="icon_data-2" data-name="icon_data" transform="translate(0.5 -0.5)">
              <g id="icon-bitcoin_solid" transform="translate(7.408 8.539)">
                <path id="icon-bitcoin" d="M74.982,124.131c.154-1.049-.642-1.617-1.74-1.993l.358-1.425-.864-.216-.345,1.388c-.228-.056-.463-.111-.7-.16l.345-1.394-.864-.216-.352,1.419q-.287-.065-.555-.13V121.4l-1.2-.3-.228.925s.641.148.629.154a.458.458,0,0,1,.4.506l-.975,3.9a.315.315,0,0,1-.395.2c.006.012-.629-.154-.629-.154l-.432.993,1.129.284c.21.056.413.105.617.161l-.358,1.437.864.216.358-1.425c.234.062.469.124.691.179l-.352,1.419.864.216.358-1.437c1.48.278,2.591.167,3.053-1.172a1.524,1.524,0,0,0-.8-2.1,1.376,1.376,0,0,0,1.11-1.271ZM73,126.907c-.266,1.074-2.079.494-2.665.346l.475-1.906c.586.148,2.474.438,2.19,1.561Zm.271-2.795c-.247.981-1.752.481-2.239.358l.432-1.727c.487.123,2.06.352,1.808,1.369Z" transform="translate(-63.443 -117.114)" fill="#7ce2ca"/>
                <rect id="cell-4" data-name="cell" width="16" height="16" fill="none"/>
              </g>
            </g>
          </g>
        </g>
      </g>
      <rect id="cell-5" data-name="cell" width="184" height="184" fill="none"/>
    </g>
  </g>
</svg>
