<svg id="Features-graph_1-DAO-Governed" xmlns="http://www.w3.org/2000/svg" xmlns:xlink="http://www.w3.org/1999/xlink" width="184" height="184" viewBox="0 0 184 184">
  <defs>
    <clipPath id="clip-path">
      <rect id="cell" width="184" height="184" fill="#fff" stroke="#707070" stroke-width="1"/>
    </clipPath>
  </defs>
  <g id="Enmascarar_grupo_2" data-name="Enmascarar grupo 2" clip-path="url(#clip-path)">
    <g id="_1-DAO-governed" data-name="1-DAO-governed">
      <path id="Trazado_145734" data-name="Trazado 145734" d="M142.008,47.66H67.419l-37.289,64.6,37.289,64.6h74.589l37.295-64.6Z" transform="translate(-12.805 -20.255)" fill="none"/>
      <path id="Trazado_145735" data-name="Trazado 145735" d="M142.008,176.851,67.43,47.66m0,129.191V47.66m111.855,64.6L67.43,47.66m74.572,0L67.43,176.851m74.583,0V47.66M30.13,112.255l111.86-64.6m37.294,64.6H30.326m37.1,64.6L142.008,47.66M67.43,176.851V47.66m111.855,64.6L67.43,176.851m74.572,0L67.43,47.66m74.583,0V176.851M30.13,112.255l111.86,64.6" transform="translate(-12.805 -20.255)" fill="none" stroke="#707070" stroke-miterlimit="10" stroke-width="1"/>
      <circle id="Elipse_1" data-name="Elipse 1" cx="6.133" cy="6.133" r="6.133" transform="translate(48.48 21.271)" fill="#030303" stroke="#7ce3cb" stroke-miterlimit="10" stroke-width="1"/>
      <circle id="Elipse_69" data-name="Elipse 69" cx="6.133" cy="6.133" r="6.133" transform="translate(48.48 150.454)" fill="#030303" stroke="#7ce3cb" stroke-miterlimit="10" stroke-width="1"/>
      <circle id="Elipse_70" data-name="Elipse 70" cx="6.133" cy="6.133" r="6.133" transform="translate(11.297 86.054)" fill="#030303" stroke="#7ce3cb" stroke-miterlimit="10" stroke-width="1"/>
      <circle id="Elipse_71" data-name="Elipse 71" cx="6.133" cy="6.133" r="6.133" transform="translate(160.413 86.054)" fill="#030303" stroke="#7ce3cb" stroke-miterlimit="10" stroke-width="1"/>
      <circle id="Elipse_67" data-name="Elipse 67" cx="6.133" cy="6.133" r="6.133" transform="translate(122.464 21.271)" fill="#030303" stroke="#7ce3cb" stroke-miterlimit="10" stroke-width="1"/>
      <circle id="Elipse_68" data-name="Elipse 68" cx="6.133" cy="6.133" r="6.133" transform="translate(122.464 150.454)" fill="#030303" stroke="#7ce3cb" stroke-miterlimit="10" stroke-width="1"/>
      <g id="Grupo_2481" data-name="Grupo 2481" transform="translate(53.458 47.846)">
        <circle id="Elipse_7" data-name="Elipse 7" cx="1.15" cy="1.15" r="1.15" transform="translate(37.392 86.124)" fill="#030303" stroke="#7ce3cb" stroke-miterlimit="10" stroke-width="1"/>
        <circle id="Elipse_8" data-name="Elipse 8" cx="1.15" cy="1.15" r="1.15" transform="translate(0 64.532)" fill="#030303" stroke="#7ce3cb" stroke-miterlimit="10" stroke-width="1"/>
        <circle id="Elipse_9" data-name="Elipse 9" cx="1.15" cy="1.15" r="1.15" transform="translate(74.583 43.004)" fill="#030303" stroke="#7ce3cb" stroke-miterlimit="10" stroke-width="1"/>
        <circle id="Elipse_10" data-name="Elipse 10" cx="1.15" cy="1.15" r="1.15" transform="translate(74.583 64.492)" fill="#030303" stroke="#7ce3cb" stroke-miterlimit="10" stroke-width="1"/>
        <circle id="Elipse_11" data-name="Elipse 11" cx="1.15" cy="1.15" r="1.15" transform="translate(74.52 21.436)" fill="#030303" stroke="#7ce3cb" stroke-miterlimit="10" stroke-width="1"/>
        <circle id="Elipse_12" data-name="Elipse 12" cx="1.15" cy="1.15" r="1.15" transform="translate(55.941 75.29)" fill="#030303" stroke="#7ce3cb" stroke-miterlimit="10" stroke-width="1"/>
        <circle id="Elipse_13" data-name="Elipse 13" cx="1.15" cy="1.15" r="1.15" transform="translate(18.659 75.29)" fill="#030303" stroke="#7ce3cb" stroke-miterlimit="10" stroke-width="1"/>
        <circle id="Elipse_14" data-name="Elipse 14" cx="1.15" cy="1.15" r="1.15" transform="translate(37.191 43.062)" fill="#030303" stroke="#7ce3cb" stroke-miterlimit="10" stroke-width="1"/>
        <circle id="Elipse_15" data-name="Elipse 15" cx="1.15" cy="1.15" r="1.15" transform="translate(55.947 10.707)" fill="#030303" stroke="#7ce3cb" stroke-miterlimit="10" stroke-width="1"/>
        <circle id="Elipse_16" data-name="Elipse 16" cx="1.15" cy="1.15" r="1.15" transform="translate(37.392)" fill="#030303" stroke="#7ce3cb" stroke-miterlimit="10" stroke-width="1"/>
        <circle id="Elipse_17" data-name="Elipse 17" cx="1.15" cy="1.15" r="1.15" transform="translate(18.653 10.707)" fill="#030303" stroke="#7ce3cb" stroke-miterlimit="10" stroke-width="1"/>
        <circle id="Elipse_18" data-name="Elipse 18" cx="1.15" cy="1.15" r="1.15" transform="translate(0.069 21.436)" fill="#030303" stroke="#7ce3cb" stroke-miterlimit="10" stroke-width="1"/>
        <circle id="Elipse_19" data-name="Elipse 19" cx="1.15" cy="1.15" r="1.15" transform="translate(0.069 43.004)" fill="#030303" stroke="#7ce3cb" stroke-miterlimit="10" stroke-width="1"/>
      </g>
      <rect id="Rectángulo_1171" data-name="Rectángulo 1171" width="184" height="184" fill="none"/>
    </g>
  </g>
</svg>
