<svg id="Matic-logo" xmlns="http://www.w3.org/2000/svg" xmlns:xlink="http://www.w3.org/1999/xlink" width="123" height="35.092" viewBox="0 0 123 35.092">
  <defs>
    <clipPath id="clip-path">
      <path id="Path_146649" data-name="Path 146649" d="M78.183,61.361l5.03,10.983L90.669,68.1h0V59.573Z" transform="translate(-78.183 -59.573)" fill="none"/>
    </clipPath>
    <clipPath id="clip-path-2">
      <rect id="Rectangle_1257" data-name="Rectangle 1257" width="554.446" height="1649.499" fill="none"/>
    </clipPath>
    <clipPath id="clip-path-3">
      <path id="Path_146650" data-name="Path 146650" d="M132.135,31.337l-4.655-1.729-4.99-.413V55.759l7.475,4.264,5.957-12-3.787-11.553Z" transform="translate(-122.49 -29.195)" fill="none"/>
    </clipPath>
    <clipPath id="clip-path-5">
      <path id="Path_146651" data-name="Path 146651" d="M150.753,29.2l-1.736,4.264V59.944l7.475-4.264V29.2Z" transform="translate(-149.017 -29.195)" fill="none"/>
    </clipPath>
    <clipPath id="clip-path-7">
      <path id="Path_146652" data-name="Path 146652" d="M129.965,14.006,122.49,18.27l7.475,4.264,7.475-4.264Z" transform="translate(-122.49 -14.006)" fill="none"/>
    </clipPath>
    <clipPath id="clip-path-9">
      <path id="Path_146653" data-name="Path 146653" d="M38.925,41.986,31.45,33.694,16.519,29.2V55.68l7.475,4.264,2.13-14.657,5.326.963,7.475,4.244Z" transform="translate(-16.519 -29.195)" fill="none"/>
    </clipPath>
    <clipPath id="clip-path-11">
      <path id="Path_146654" data-name="Path 146654" d="M23.994,14.006,16.519,18.27,38.925,31.061,42.3,29.135,46.381,26.8Z" transform="translate(-16.519 -14.006)" fill="none"/>
    </clipPath>
    <clipPath id="clip-path-13">
      <path id="Path_146655" data-name="Path 146655" d="M43.046,74.761V92.719L50.5,88.456V79.025Z" transform="translate(-43.046 -74.761)" fill="none"/>
    </clipPath>
  </defs>
  <g id="Group_2841" data-name="Group 2841" transform="translate(53.137 7.447)">
    <g id="Group_2840" data-name="Group 2840" transform="translate(0 0)">
      <path id="SVGID" d="M220.349,42.558h3.471V60.575h-3.235V48.216l-5.325,8.861h-1.637l-5.325-8.9v12.4h-3.215V42.558h3.432l5.9,9.844Zm43.038,16.249a7.408,7.408,0,0,1,5.267-12.673,6.907,6.907,0,0,1,6.233,3.635L272.3,51.281a3.869,3.869,0,0,0-3.669-2.2,4.233,4.233,0,0,0-3.116,1.257,4.677,4.677,0,0,0,0,6.307,4.312,4.312,0,0,0,3.116,1.258,4.032,4.032,0,0,0,3.708-2.2l2.6,1.493a7.04,7.04,0,0,1-6.272,3.674A7.353,7.353,0,0,1,263.387,58.807Zm-7.83,1.788V46.487h3.018V60.575Zm.138-16.76a1.892,1.892,0,0,1,0-2.711,1.866,1.866,0,0,1,2.722,0,1.945,1.945,0,0,1-.02,2.751A1.91,1.91,0,0,1,255.7,43.835Zm-2.88,5.58h-3.471v6.759c0,1.788,1.163,1.768,3.471,1.651v2.751c-4.616.57-6.47-.707-6.47-4.4V49.415h-2.584V46.487h2.584V42.558h3.018v3.929h3.471ZM233.742,58.04a4.311,4.311,0,0,0,4.418-4.5,4.42,4.42,0,0,0-7.574-3.2,4.313,4.313,0,0,0-1.262,3.2,4.4,4.4,0,0,0,1.262,3.242,4.267,4.267,0,0,0,3.1,1.258ZM238.1,46.487h3.018V60.575H238.1V58.551a5.716,5.716,0,0,1-4.872,2.4,6.5,6.5,0,0,1-4.911-2.142,7.456,7.456,0,0,1-2.032-5.266,7.321,7.321,0,0,1,2.012-5.266,6.452,6.452,0,0,1,4.931-2.122,5.645,5.645,0,0,1,4.892,2.358Z" transform="translate(-205.083 -40.534)" fill="#fff"/>
    </g>
  </g>
  <g id="Group_2847" data-name="Group 2847" transform="translate(17.377 12.791)">
    <g id="Group_2846" data-name="Group 2846">
      <g id="Group_2845" data-name="Group 2845" clip-path="url(#clip-path)">
        <g id="Group_2844" data-name="Group 2844" transform="translate(-233.574 -55.486)">
          <g id="Group_2843" data-name="Group 2843" transform="translate(0 0)">
            <g id="Group_2842" data-name="Group 2842" clip-path="url(#clip-path-2)">
              <rect id="Rectangle_1256" data-name="Rectangle 1256" width="21.815" height="22.065" transform="translate(228.919 50.849)" fill="#fdfdfd"/>
            </g>
          </g>
        </g>
      </g>
    </g>
  </g>
  <g id="Group_2853" data-name="Group 2853" transform="translate(29.863 4.264)">
    <g id="Group_2852" data-name="Group 2852">
      <g id="Group_2851" data-name="Group 2851" clip-path="url(#clip-path-3)">
        <g id="Group_2850" data-name="Group 2850" transform="translate(-246.059 -46.958)">
          <g id="Group_2849" data-name="Group 2849" transform="translate(0)">
            <g id="Group_2848" data-name="Group 2848" clip-path="url(#clip-path-2)">
              <rect id="Rectangle_1258" data-name="Rectangle 1258" width="22.742" height="40.101" transform="translate(241.404 42.322)" fill="#dedede"/>
            </g>
          </g>
        </g>
      </g>
    </g>
  </g>
  <g id="Group_2859" data-name="Group 2859" transform="translate(37.338 4.264)">
    <g id="Group_2858" data-name="Group 2858">
      <g id="Group_2857" data-name="Group 2857" clip-path="url(#clip-path-5)">
        <g id="Group_2856" data-name="Group 2856" transform="translate(-253.534 -46.958)">
          <g id="Group_2855" data-name="Group 2855">
            <g id="Group_2854" data-name="Group 2854" clip-path="url(#clip-path-2)">
              <rect id="Rectangle_1260" data-name="Rectangle 1260" width="16.785" height="40.042" transform="translate(248.88 42.322)" fill="#fdfdfd"/>
            </g>
          </g>
        </g>
      </g>
    </g>
  </g>
  <g id="Group_2865" data-name="Group 2865" transform="translate(29.863 0)">
    <g id="Group_2864" data-name="Group 2864">
      <g id="Group_2863" data-name="Group 2863" clip-path="url(#clip-path-7)">
        <g id="Group_2862" data-name="Group 2862" transform="translate(-246.059 -42.695)">
          <g id="Group_2861" data-name="Group 2861" transform="translate(0)">
            <g id="Group_2860" data-name="Group 2860" clip-path="url(#clip-path-2)">
              <rect id="Rectangle_1262" data-name="Rectangle 1262" width="24.261" height="17.801" transform="translate(241.404 38.058)" fill="#c6c6c6"/>
            </g>
          </g>
        </g>
      </g>
    </g>
  </g>
  <g id="Group_2871" data-name="Group 2871" transform="translate(0 4.264)">
    <g id="Group_2870" data-name="Group 2870">
      <g id="Group_2869" data-name="Group 2869" clip-path="url(#clip-path-9)">
        <g id="Group_2868" data-name="Group 2868" transform="translate(-216.197 -46.958)">
          <g id="Group_2867" data-name="Group 2867">
            <g id="Group_2866" data-name="Group 2866" clip-path="url(#clip-path-2)">
              <rect id="Rectangle_1264" data-name="Rectangle 1264" width="31.716" height="40.042" transform="translate(211.542 42.322)" fill="#dedede"/>
            </g>
          </g>
        </g>
      </g>
    </g>
  </g>
  <g id="Group_2877" data-name="Group 2877" transform="translate(0 0)">
    <g id="Group_2876" data-name="Group 2876">
      <g id="Group_2875" data-name="Group 2875" clip-path="url(#clip-path-11)">
        <g id="Group_2874" data-name="Group 2874" transform="translate(-216.197 -42.695)">
          <g id="Group_2873" data-name="Group 2873">
            <g id="Group_2872" data-name="Group 2872" clip-path="url(#clip-path-2)">
              <rect id="Rectangle_1266" data-name="Rectangle 1266" width="39.192" height="26.328" transform="translate(211.542 38.058)" fill="#c6c6c6"/>
            </g>
          </g>
        </g>
      </g>
    </g>
  </g>
  <g id="Group_2883" data-name="Group 2883" transform="translate(7.475 17.055)">
    <g id="Group_2882" data-name="Group 2882">
      <g id="Group_2881" data-name="Group 2881" clip-path="url(#clip-path-13)">
        <g id="Group_2880" data-name="Group 2880" transform="translate(-223.672 -59.749)">
          <g id="Group_2879" data-name="Group 2879" transform="translate(0 0)">
            <g id="Group_2878" data-name="Group 2878" clip-path="url(#clip-path-2)">
              <rect id="Rectangle_1268" data-name="Rectangle 1268" width="16.785" height="27.252" transform="translate(218.997 55.093)" fill="#fdfdfd"/>
            </g>
          </g>
        </g>
      </g>
    </g>
  </g>
</svg>
