<svg id="Members-coinfund_logo" xmlns="http://www.w3.org/2000/svg" width="90" height="16.712" viewBox="0 0 90 16.712">
  <path id="Path_146595" data-name="Path 146595" d="M1361.659,219.748h-2.953v-1.382h-.042a3.545,3.545,0,0,1-.5.573,3.814,3.814,0,0,1-.728.529,4.446,4.446,0,0,1-.92.388,3.6,3.6,0,0,1-1.041.151,5.315,5.315,0,0,1-2.1-.4,4.67,4.67,0,0,1-1.615-1.122,5,5,0,0,1-1.041-1.718,6.279,6.279,0,0,1-.364-2.18,6.651,6.651,0,0,1,.332-2.1,5.814,5.814,0,0,1,.946-1.781,4.624,4.624,0,0,1,1.487-1.241,4.19,4.19,0,0,1,1.987-.464,5.48,5.48,0,0,1,1.871.313,3,3,0,0,1,1.419,1.068h.042V203.43h3.21Zm-2.953-5.245a2.73,2.73,0,0,0-.674-1.921,2.806,2.806,0,0,0-3.784,0,3.075,3.075,0,0,0,0,3.842,2.806,2.806,0,0,0,3.784,0A2.74,2.74,0,0,0,1358.706,214.5Z" transform="translate(-1271.659 -203.43)" fill="#fff"/>
  <path id="Path_146594" data-name="Path 146594" d="M1229.67,262.025h3.081v1.412h.043a2.581,2.581,0,0,1,.428-.6,3.106,3.106,0,0,1,.662-.535,3.828,3.828,0,0,1,.877-.385,3.682,3.682,0,0,1,1.07-.149,4.376,4.376,0,0,1,1.968.378,2.842,2.842,0,0,1,1.167,1.041,4.2,4.2,0,0,1,.568,1.561,11.94,11.94,0,0,1,.15,1.947v5.734h-3.209v-5.1q0-.45-.032-.931a2.932,2.932,0,0,0-.189-.888,1.38,1.38,0,0,0-1.445-.919,2,2,0,0,0-1.009.224,1.536,1.536,0,0,0-.588.6,2.426,2.426,0,0,0-.268.845,7.326,7.326,0,0,0-.064.984v5.178h-3.209Z" transform="translate(-1162.359 -256.104)" fill="#fff"/>
  <path id="Path_146593" data-name="Path 146593" d="M1109.19,274.878h-3.08v-1.413h-.042a3.585,3.585,0,0,1-.439.6,2.859,2.859,0,0,1-.653.535,3.789,3.789,0,0,1-.877.385,3.673,3.673,0,0,1-1.069.15,4.449,4.449,0,0,1-1.979-.378,2.821,2.821,0,0,1-1.177-1.041,4.059,4.059,0,0,1-.556-1.561,12.752,12.752,0,0,1-.139-1.947V264.48h3.209v5.092q0,.45.032.931a2.925,2.925,0,0,0,.189.888,1.38,1.38,0,0,0,1.444.919,1.982,1.982,0,0,0,1.006-.224,1.543,1.543,0,0,0,.588-.6,2.434,2.434,0,0,0,.267-.845,7.13,7.13,0,0,0,.064-.984V264.48h3.212Z" transform="translate(-1043.94 -258.559)" fill="#fff"/>
  <path id="Path_146592" data-name="Path 146592" d="M976.17,214.28h10.163v3.111h-6.825v3.11h6.311v3.113h-6.311v5.962H976.17Z" transform="translate(-932.329 -213.253)" fill="#fff"/>
  <path id="Path_146591" data-name="Path 146591" d="M849.54,264.729h1.925v1.562h.043a2.839,2.839,0,0,1,1.262-1.316,4.186,4.186,0,0,1,2.076-.5,4.412,4.412,0,0,1,1.4.225,3.152,3.152,0,0,1,1.177.7,3.356,3.356,0,0,1,.8,1.21,4.627,4.627,0,0,1,.3,1.744v6.528H856.6V268.88a3.408,3.408,0,0,0-.189-1.209,2.221,2.221,0,0,0-.514-.813,1.921,1.921,0,0,0-.738-.449,2.722,2.722,0,0,0-.867-.139,3.159,3.159,0,0,0-1.113.189,2.325,2.325,0,0,0-.9.61,2.889,2.889,0,0,0-.6,1.059,4.817,4.817,0,0,0-.214,1.519v5.221H849.54Z" transform="translate(-817.679 -258.551)" fill="#fff"/>
  <path id="Path_146590" data-name="Path 146590" d="M793.459,215.011a1.427,1.427,0,1,1,2.219,1.182,1.415,1.415,0,0,1-1.8-.177A1.376,1.376,0,0,1,793.459,215.011Zm.449,3.673h1.925v10.238h-1.925Z" transform="translate(-767.089 -212.601)" fill="#fff"/>
  <path id="Path_146589" data-name="Path 146589" d="M664.328,269.564a5.16,5.16,0,0,1,.417-2.075,5.413,5.413,0,0,1,9.949,0,5.163,5.163,0,0,1,.417,2.075,5.275,5.275,0,0,1-1.562,3.777,5.442,5.442,0,0,1-1.711,1.135,5.582,5.582,0,0,1-4.237,0,5.44,5.44,0,0,1-1.711-1.135,5.276,5.276,0,0,1-1.562-3.777Zm2.054,0a4.164,4.164,0,0,0,.236,1.419,3.2,3.2,0,0,0,.662,1.113,3.076,3.076,0,0,0,1.048.728,3.758,3.758,0,0,0,2.782,0,3.085,3.085,0,0,0,1.048-.728,3.217,3.217,0,0,0,.662-1.113,4.416,4.416,0,0,0,0-2.846,3.236,3.236,0,0,0-.662-1.113,3.07,3.07,0,0,0-1.049-.723,3.746,3.746,0,0,0-2.782,0,3.061,3.061,0,0,0-1.046.728,3.216,3.216,0,0,0-.662,1.113,4.165,4.165,0,0,0-.24,1.422Z" transform="translate(-649.99 -258.317)" fill="#fff"/>
  <path id="Path_146588" data-name="Path 146588" d="M524.269,213.9a4.249,4.249,0,0,0-1.626-1.3,4.814,4.814,0,0,0-2.032-.453,5.411,5.411,0,0,0-2.322.486,5.344,5.344,0,0,0-1.776,1.328,6.066,6.066,0,0,0-1.144,1.975,7.133,7.133,0,0,0-.407,2.429,6.767,6.767,0,0,0,.385,2.291,5.724,5.724,0,0,0,1.113,1.9,5.2,5.2,0,0,0,1.776,1.3,5.684,5.684,0,0,0,2.375.477,4.694,4.694,0,0,0,2.29-.539,4.922,4.922,0,0,0,1.668-1.511L526.3,223.6a7.056,7.056,0,0,1-.6.68,6.037,6.037,0,0,1-1.135.885,7.968,7.968,0,0,1-1.7.777,7.205,7.205,0,0,1-2.3.335,7.411,7.411,0,0,1-3.241-.691,8.017,8.017,0,0,1-4.547-7.211,9.033,9.033,0,0,1,.578-3.271,7.754,7.754,0,0,1,1.619-2.6,7.226,7.226,0,0,1,2.493-1.695,8.283,8.283,0,0,1,3.209-.6,7.791,7.791,0,0,1,2.941.583,5.492,5.492,0,0,1,2.365,1.792Z" transform="translate(-512.775 -209.562)" fill="#fff"/>
</svg>
