<svg id="Members-Placeholder-logo" xmlns="http://www.w3.org/2000/svg" xmlns:xlink="http://www.w3.org/1999/xlink" width="170" height="27.894" viewBox="0 0 170 27.894">
  <defs>
    <clipPath id="clip-path">
      <rect id="Rectángulo_1246" data-name="Rectángulo 1246" width="170" height="27.805" fill="none"/>
    </clipPath>
  </defs>
  <g id="Grupo_2814" data-name="Grupo 2814" clip-path="url(#clip-path)">
    <path id="Trazado_146544" data-name="Trazado 146544" d="M8.7,29.986h2.14V11.069H8.7V10.68l4.472.028v2.333h.056A4.337,4.337,0,0,1,14.6,11.1a3.821,3.821,0,0,1,2.486-.778,5.073,5.073,0,0,1,2.249.514,6.383,6.383,0,0,1,3.139,3.347A6.294,6.294,0,0,1,22.46,19a6.817,6.817,0,0,1-1.319,2.042,6.466,6.466,0,0,1-1.93,1.417,5.3,5.3,0,0,1-2.32.527,3.612,3.612,0,0,1-1.6-.319,3.76,3.76,0,0,1-1.069-.75,3.435,3.435,0,0,1-.639-.889,5.188,5.188,0,0,1-.3-.735h-.056v9.694h2.139v.389H8.7ZM20.03,13.964a5.837,5.837,0,0,0-.485-1.732,2.605,2.605,0,0,0-.973-1.108,2.983,2.983,0,0,0-1.6-.388,3.54,3.54,0,0,0-1.694.36,3.288,3.288,0,0,0-1.084.914,3.432,3.432,0,0,0-.485.832,5.328,5.328,0,0,0-.292,1.053,11.119,11.119,0,0,0-.152,1.4q-.042.791-.042,1.871a13.2,13.2,0,0,0,.139,1.884,5.8,5.8,0,0,0,.528,1.76,3.364,3.364,0,0,0,1.1,1.289,3.191,3.191,0,0,0,1.874.5,3.222,3.222,0,0,0,1.806-.443,2.679,2.679,0,0,0,1-1.275,6.7,6.7,0,0,0,.416-2.01q.083-1.177.084-2.619a16.841,16.841,0,0,0-.14-2.286" transform="translate(-2.166 -2.57)" fill="#fff"/>
    <path id="Trazado_146545" data-name="Trazado 146545" d="M31.519,19.638h2.139V.389H31.519V0h4.527V19.638h2.14v.39H31.519Z" transform="translate(-7.849 0)" fill="#fff"/>
    <path id="Trazado_146546" data-name="Trazado 146546" d="M56.9,22.291a3.81,3.81,0,0,1-.862.487,3.176,3.176,0,0,1-1.222.208,2.737,2.737,0,0,1-1.931-.569,3.023,3.023,0,0,1-.819-1.6H52.01c-.074.167-.176.375-.306.625a2.489,2.489,0,0,1-.6.722,3.322,3.322,0,0,1-1.069.584,5.163,5.163,0,0,1-1.694.235,5.387,5.387,0,0,1-1.861-.263,3.051,3.051,0,0,1-1.084-.654,1.882,1.882,0,0,1-.514-.875,3.628,3.628,0,0,1-.125-.9,2.762,2.762,0,0,1,.388-1.556,2.881,2.881,0,0,1,1.015-.93,6.652,6.652,0,0,1,1.389-.57q.764-.222,1.541-.472.918-.306,1.515-.527a2.677,2.677,0,0,0,.93-.542A1.659,1.659,0,0,0,52,14.889a5.517,5.517,0,0,0,.125-1.319,7.707,7.707,0,0,0-.083-1.194,2.519,2.519,0,0,0-.3-.9,1.428,1.428,0,0,0-.639-.57,2.667,2.667,0,0,0-1.111-.195,3.19,3.19,0,0,0-1.514.32,1.092,1.092,0,0,0-.6,1.042,5.184,5.184,0,0,0,.083.93,4.221,4.221,0,0,1,.083.68.867.867,0,0,1-.277.653,1.131,1.131,0,0,1-.807.264q-.916,0-1.138-.333a1.526,1.526,0,0,1-.222-.861,2.568,2.568,0,0,1,.278-1.166,2.927,2.927,0,0,1,.819-.987,4.082,4.082,0,0,1,1.361-.68,6.405,6.405,0,0,1,1.875-.25,6.194,6.194,0,0,1,2.139.319,3.7,3.7,0,0,1,1.389.861,3.154,3.154,0,0,1,.75,1.222,4.588,4.588,0,0,1,.222,1.431V21.07a1.678,1.678,0,0,0,.25,1.084.919.919,0,0,0,.722.278,2.005,2.005,0,0,0,.638-.111,2.36,2.36,0,0,0,.64-.333Zm-4.862-6.5h-.055c-.038.241-.343.483-.917.722l-2.083.833a3.049,3.049,0,0,0-1.362,1.015,2.7,2.7,0,0,0-.472,1.624,4.6,4.6,0,0,0,.084.861,2.188,2.188,0,0,0,.306.792,1.666,1.666,0,0,0,.625.569,2.136,2.136,0,0,0,1.042.223,2.579,2.579,0,0,0,1.485-.39,2.537,2.537,0,0,0,.862-.972,4.138,4.138,0,0,0,.388-1.264,8.832,8.832,0,0,0,.1-1.236Z" transform="translate(-11.146 -2.57)" fill="#fff"/>
    <path id="Trazado_146547" data-name="Trazado 146547" d="M75.65,19.542a8.031,8.031,0,0,1-.32.874,4.029,4.029,0,0,1-.75,1.14,4.55,4.55,0,0,1-1.388,1,5.149,5.149,0,0,1-2.265.43,7.849,7.849,0,0,1-2.194-.333,6.177,6.177,0,0,1-2.082-1.07,5.52,5.52,0,0,1-1.542-1.931,6.529,6.529,0,0,1-.6-2.944,6.19,6.19,0,0,1,.514-2.528,6.484,6.484,0,0,1,1.389-2.028,6.342,6.342,0,0,1,2.055-1.347,6.551,6.551,0,0,1,2.514-.486,6.931,6.931,0,0,1,1.542.18,5.246,5.246,0,0,1,1.445.555,3.445,3.445,0,0,1,1.083.973,2.431,2.431,0,0,1,.43,1.459,1.3,1.3,0,0,1-.375.957,1.446,1.446,0,0,1-1.069.375,2.057,2.057,0,0,1-.9-.208A.728.728,0,0,1,72.7,13.9a2.957,2.957,0,0,1,.2-.945,2.913,2.913,0,0,0,.195-.916,1.083,1.083,0,0,0-.639-.987,3.045,3.045,0,0,0-1.473-.347,5.557,5.557,0,0,0-1.263.153,2.3,2.3,0,0,0-1.195.764,4.7,4.7,0,0,0-.889,1.833,12.7,12.7,0,0,0-.347,3.334,15.792,15.792,0,0,0,.152,2.25A5.906,5.906,0,0,0,68,20.889a3.163,3.163,0,0,0,1.111,1.25,3.352,3.352,0,0,0,1.847.458,4.863,4.863,0,0,0,2.014-.361,3.7,3.7,0,0,0,1.25-.874,3.8,3.8,0,0,0,.68-1.042c.147-.351.259-.638.333-.861Z" transform="translate(-16.065 -2.57)" fill="#fff"/>
    <path id="Trazado_146548" data-name="Trazado 146548" d="M86.92,15.709c0,.185,0,.375-.014.568s-.014.44-.014.737A17.512,17.512,0,0,0,87,18.931a5.76,5.76,0,0,0,.486,1.8A3.355,3.355,0,0,0,88.6,22.069a3.285,3.285,0,0,0,1.959.528,4.861,4.861,0,0,0,2.013-.361,3.688,3.688,0,0,0,1.25-.874,3.809,3.809,0,0,0,.681-1.042q.222-.527.333-.861l.418.083a8.136,8.136,0,0,1-.32.874,4.013,4.013,0,0,1-.75,1.14,4.554,4.554,0,0,1-1.389,1,5.143,5.143,0,0,1-2.264.43,7.233,7.233,0,0,1-2.568-.445,5.848,5.848,0,0,1-2.042-1.277,5.769,5.769,0,0,1-1.334-1.986,6.714,6.714,0,0,1-.472-2.57,6.046,6.046,0,0,1,.485-2.375,6.679,6.679,0,0,1,3.319-3.473,5.51,5.51,0,0,1,4.112-.264,4.892,4.892,0,0,1,1.653.9,4.971,4.971,0,0,1,1.277,1.652,5.69,5.69,0,0,1,.514,2.556Zm5.722-.389A5.063,5.063,0,0,0,92.7,14.6V13.9a5.613,5.613,0,0,0-.18-1.555,2.55,2.55,0,0,0-.5-.973,1.772,1.772,0,0,0-.777-.514,3.119,3.119,0,0,0-.987-.153,2.935,2.935,0,0,0-1.555.375,2.758,2.758,0,0,0-.972,1.015,5.233,5.233,0,0,0-.542,1.472,11.471,11.471,0,0,0-.236,1.751Z" transform="translate(-20.946 -2.57)" fill="#fff"/>
    <path id="Trazado_146549" data-name="Trazado 146549" d="M103.681,19.638h2.139V.389h-2.139V0h4.528V10.917h.056a5.75,5.75,0,0,1,.471-.9,4.411,4.411,0,0,1,.9-1.028,5.34,5.34,0,0,1,1.389-.834,5.01,5.01,0,0,1,1.959-.347,4.751,4.751,0,0,1,2.986.889,3.353,3.353,0,0,1,1.153,2.833v8.111h2.139v.39H112.6v-.39h2.139V10.667a2.91,2.91,0,0,0-.514-1.778,1.856,1.856,0,0,0-1.6-.695,3.861,3.861,0,0,0-1.694.388,4.435,4.435,0,0,0-1.416,1.084,5.133,5.133,0,0,0-.959,1.638,5.92,5.92,0,0,0-.347,2.055v6.277h2.139v.39h-6.666Z" transform="translate(-25.819 0)" fill="#fff"/>
    <path id="Trazado_146550" data-name="Trazado 146550" d="M129.429,14.125a7.027,7.027,0,0,1,3.611-3.333,5.661,5.661,0,0,1,4.528,0,7.024,7.024,0,0,1,3.611,3.333,5.476,5.476,0,0,1,.6,2.527,5.58,5.58,0,0,1-.556,2.459,6.89,6.89,0,0,1-3.528,3.376,5.963,5.963,0,0,1-4.778,0,6.892,6.892,0,0,1-3.527-3.376,5.59,5.59,0,0,1-.555-2.459,5.457,5.457,0,0,1,.6-2.527m2.486,5.667a4.824,4.824,0,0,0,.806,1.791,2.32,2.32,0,0,0,1.167.82,5.274,5.274,0,0,0,2.833,0,2.322,2.322,0,0,0,1.166-.82,4.837,4.837,0,0,0,.806-1.791,12.838,12.838,0,0,0,.306-3.14,14.811,14.811,0,0,0-.222-2.791,5.231,5.231,0,0,0-.682-1.834,2.619,2.619,0,0,0-1.152-1.013,4.537,4.537,0,0,0-3.278,0,2.633,2.633,0,0,0-1.153,1.013,5.23,5.23,0,0,0-.68,1.834,14.616,14.616,0,0,0-.223,2.791,12.881,12.881,0,0,0,.306,3.14" transform="translate(-32.082 -2.57)" fill="#fff"/>
    <path id="Trazado_146551" data-name="Trazado 146551" d="M149.952,19.638h2.14V.389h-2.14V0h4.528V19.638h2.139v.39h-6.667Z" transform="translate(-37.341 0)" fill="#fff"/>
    <path id="Trazado_146552" data-name="Trazado 146552" d="M170.554,0h4.528V19.638h2.139v.39h-4.472V17.611h-.056a7.6,7.6,0,0,1-.333.806,3.416,3.416,0,0,1-.653.916,3.834,3.834,0,0,1-1.082.764,3.609,3.609,0,0,1-1.6.319,5.288,5.288,0,0,1-2.32-.527,6.466,6.466,0,0,1-1.93-1.417,6.823,6.823,0,0,1-1.319-2.041,6.285,6.285,0,0,1-.014-4.819,6.384,6.384,0,0,1,3.139-3.347,5.066,5.066,0,0,1,2.25-.514A3.859,3.859,0,0,1,171.3,8.5a4.066,4.066,0,0,1,1.334,1.833h.056V.389h-2.139Zm-4.722,16.291a6.723,6.723,0,0,0,.417,2.014,2.682,2.682,0,0,0,1,1.277,3.823,3.823,0,0,0,3.68-.056,3.379,3.379,0,0,0,1.1-1.292,5.847,5.847,0,0,0,.528-1.764,13.383,13.383,0,0,0,.139-1.889q0-1.084-.041-1.874a11.154,11.154,0,0,0-.153-1.4,4.824,4.824,0,0,0-.3-1.055,4.756,4.756,0,0,0-.472-.834,3.3,3.3,0,0,0-1.084-.917,3.541,3.541,0,0,0-1.693-.36,2.98,2.98,0,0,0-1.6.388,2.59,2.59,0,0,0-.972,1.112,5.8,5.8,0,0,0-.487,1.736,16.934,16.934,0,0,0-.139,2.292q0,1.443.083,2.625" transform="translate(-40.583 0)" fill="#fff"/>
    <path id="Trazado_146553" data-name="Trazado 146553" d="M188.635,15.709c0,.185,0,.375-.014.568s-.014.44-.014.737a17.33,17.33,0,0,0,.111,1.917,5.76,5.76,0,0,0,.486,1.8,3.357,3.357,0,0,0,1.111,1.333,3.283,3.283,0,0,0,1.959.528,4.861,4.861,0,0,0,2.013-.361,3.692,3.692,0,0,0,1.25-.874,3.823,3.823,0,0,0,.68-1.042c.148-.351.258-.638.333-.861l.417.083a8.134,8.134,0,0,1-.32.874,4.025,4.025,0,0,1-.749,1.14,4.567,4.567,0,0,1-1.389,1,5.141,5.141,0,0,1-2.264.43,7.24,7.24,0,0,1-2.569-.445,5.851,5.851,0,0,1-2.041-1.277,5.758,5.758,0,0,1-1.334-1.986,6.714,6.714,0,0,1-.472-2.57,6.059,6.059,0,0,1,.485-2.375,6.67,6.67,0,0,1,3.32-3.473,5.509,5.509,0,0,1,4.111-.264,4.892,4.892,0,0,1,1.653.9,4.971,4.971,0,0,1,1.277,1.652,5.69,5.69,0,0,1,.514,2.556Zm5.722-.389a5.061,5.061,0,0,0,.056-.722V13.9a5.614,5.614,0,0,0-.18-1.555,2.539,2.539,0,0,0-.5-.973,1.772,1.772,0,0,0-.777-.514,3.116,3.116,0,0,0-.987-.153,2.931,2.931,0,0,0-1.555.375,2.763,2.763,0,0,0-.973,1.015,5.256,5.256,0,0,0-.541,1.472,11.564,11.564,0,0,0-.236,1.751Z" transform="translate(-46.275 -2.57)" fill="#fff"/>
    <path id="Trazado_146554" data-name="Trazado 146554" d="M204.842,22.226h2.14V11.088h-2.14V10.7h4.472v2.806h.056a5.565,5.565,0,0,1,.362-.945,4.062,4.062,0,0,1,.695-1.014,3.942,3.942,0,0,1,1.069-.82,3.184,3.184,0,0,1,1.513-.333,2.736,2.736,0,0,1,1.111.208,2.426,2.426,0,0,1,.778.528,1.949,1.949,0,0,1,.444.736,2.629,2.629,0,0,1,.14.833,1.445,1.445,0,0,1-.418,1.223,1.594,1.594,0,0,1-.972.306q-1.222,0-1.223-.778a1.191,1.191,0,0,1,.056-.4c.037-.1.078-.2.125-.306a2.747,2.747,0,0,0,.125-.347,2.145,2.145,0,0,0,.056-.556q0-.888-.973-.889a1.723,1.723,0,0,0-.945.334,3.483,3.483,0,0,0-.93.973,6.1,6.1,0,0,0-.722,1.54,6.732,6.732,0,0,0-.292,2.07v6.361h2.417v.39h-6.944Z" transform="translate(-51.01 -2.588)" fill="#fff"/>
    <path id="Trazado_146555" data-name="Trazado 146555" d="M3.322,27.816H0V.512H3.322v.607H.607v26.09H3.322Z" transform="translate(0 -0.127)" fill="#fff"/>
    <path id="Trazado_146556" data-name="Trazado 146556" d="M225.269,27.816h-3.323v-.608h2.715V1.118h-2.715V.512h3.323Z" transform="translate(-55.269 -0.127)" fill="#fff"/>
  </g>
</svg>
