<svg id="Members-accomplice_logo" xmlns="http://www.w3.org/2000/svg" width="141" height="18.795" viewBox="0 0 141 18.795">
  <g id="Group_2834" data-name="Group 2834" transform="translate(131.092 1.868)">
    <path id="Path_146569" data-name="Path 146569" d="M1100.461,314.851c-.083,1.05-.158,2.032-.247,2.994a2.206,2.206,0,0,1-.3,0v-3.57h6.524v-2.324l.2-.1c.108.135.3.271.31.413v2.622Z" transform="translate(-1097.231 -306.045)" fill="#fff"/>
    <path id="Path_146570" data-name="Path 146570" d="M1105.048,323.194V320.83c.526.054.691,1.456.393,2.926h-9.02a2.457,2.457,0,0,1-.741-.251,2.431,2.431,0,0,1,.716-.285h7.816Z" transform="translate(-1095.68 -308.942)" fill="#fff"/>
    <path id="Path_146578" data-name="Path 146578" d="M1107.089,306.267h-6.619c-.1.975-.177,1.89-.279,2.8a1.539,1.539,0,0,1-.291,0V305.8h6.67v-2.4l.171-.122c.114.122.323.237.329.359C1107.1,304.445,1107.089,305.312,1107.089,306.267Z" transform="translate(-1097.227 -303.28)" fill="#fff"/>
  </g>
  <g id="Group_2833" data-name="Group 2833" transform="translate(117.851 1.74)">
    <path id="Path_146577" data-name="Path 146577" d="M1074.753,322.029a7.084,7.084,0,0,0,4.909,1.152,5.832,5.832,0,0,0,4.314-2.906.758.758,0,0,1,.6-.285,6.043,6.043,0,0,1-4.282,3.624,7.41,7.41,0,0,1-5.371-.86C1074.652,322.578,1074.259,322.422,1074.753,322.029Z" transform="translate(-1074.275 -308.544)" fill="#fff"/>
    <path id="Path_146581" data-name="Path 146581" d="M1078.566,307.141a3.855,3.855,0,0,0-3.667,2.879,4.819,4.819,0,0,0,1.051,5.006.715.715,0,0,1,.1.61,5.094,5.094,0,0,1,2.135-8.955c.171,0,.348.149.526.224Z" transform="translate(-1074.136 -304.25)" fill="#fff"/>
    <path id="Path_146584" data-name="Path 146584" d="M1088.32,306.66c-.842.44-1.615.86-2.4,1.246-.114.054-.292-.041-.443-.061.082-.142.133-.339.247-.406.6-.352,1.21-.677,1.9-1.023a6.14,6.14,0,0,0-3.129-2.784.834.834,0,0,1-.424-.542A6.106,6.106,0,0,1,1088.32,306.66Z" transform="translate(-1077.777 -303.09)" fill="#fff"/>
  </g>
  <path id="Path_146568" data-name="Path 146568" d="M1064.174,303.34v14.707h-3.04l-.114-.163c.158-.115.31-.312.475-.318.7-.041,1.406,0,2.2,0V304.045C1063.712,303.727,1063.541,303.212,1064.174,303.34Z" transform="translate(-951.258 -301.424)" fill="#fff"/>
  <g id="Group_2832" data-name="Group 2832" transform="translate(97.33 1.881)">
    <path id="Path_146571" data-name="Path 146571" d="M1045.737,309.234V303.9c0-.2.177-.4.272-.6a1.646,1.646,0,0,1,.234.576v10.669a1.706,1.706,0,0,1-.247.569c-.089-.21-.26-.413-.26-.616C1045.724,312.743,1045.737,310.989,1045.737,309.234Z" transform="translate(-1043.102 -303.3)" fill="#fff"/>
    <path id="Path_146572" data-name="Path 146572" d="M1049.985,323.146v-2.357l.165-.108c.114.135.317.264.323.4.032.847,0,1.694,0,2.574-.221,0-.374.047-.532.047h-7.81a1.6,1.6,0,0,1-.551-.23c.19-.1.374-.3.557-.3h6.967Z" transform="translate(-1041.58 -308.906)" fill="#fff"/>
  </g>
  <g id="Group_2831" data-name="Group 2831" transform="translate(84.009 2.036)">
    <path id="Path_146566" data-name="Path 146566" d="M1028.765,303.53a4.986,4.986,0,0,1-1.8,9.477h-3.389v5.155h-2.9c-.089,0-.177-.156-.266-.237.12-.1.241-.291.361-.291h2.274v-5.162h4.035a3.94,3.94,0,0,0,3.8-2.981,4.582,4.582,0,0,0-1.938-5.331,2.046,2.046,0,0,1-.386-.461Z" transform="translate(-1020.41 -303.53)" fill="#fff"/>
    <path id="Path_146587" data-name="Path 146587" d="M1025.1,311.269c-.26-.264-.475-.379-.475-.495v-3.868c1.558.115,3.059-.217,4.523.251v.3a2.512,2.512,0,0,1-.538.1c-1.153-.047-2.306-.115-3.522-.183Z" transform="translate(-1021.957 -304.615)" fill="#fff"/>
  </g>
  <g id="Group_2830" data-name="Group 2830" transform="translate(68.763 1.888)">
    <path id="Path_146567" data-name="Path 146567" d="M1012.392,318.074h-3.034l-.108-.2c.158-.108.317-.3.481-.3.7-.041,1.406,0,2.192,0V304.112a2.94,2.94,0,0,1,0-.583.282.282,0,0,1,.209-.21.491.491,0,0,1,.279.217c.044.061,0,.19,0,.284V317.8a2.211,2.211,0,0,1-.019.278Z" transform="translate(-1001.414 -303.312)" fill="#fff"/>
    <path id="Path_146573" data-name="Path 146573" d="M1006.331,309.64c0,.2.114.434.051.6-1.166,3.15-2.356,6.293-3.541,9.436a1.34,1.34,0,0,1-1.52.406c-.057-.054-.108-.2-.076-.251s.2-.251.272-.23c.887.23.994-.495,1.222-1.1q1.653-4.41,3.319-8.806Z" transform="translate(-998.476 -305.352)" fill="#fff"/>
    <path id="Path_146583" data-name="Path 146583" d="M1000.44,311.859c-.038.047-.089.19-.152.2a.511.511,0,0,1-.329-.122c-.063-.047-.082-.169-.114-.257l-2.888-7.736c0-.068-.082-.135-.076-.2a3.753,3.753,0,0,1,.089-.434c.133.088.336.142.386.271q1.533,4.024,3.04,8.068a1.632,1.632,0,0,1,.044.21Z" transform="translate(-996.88 -303.31)" fill="#fff"/>
  </g>
  <path id="Path_146582" data-name="Path 146582" d="M993.7,320.2h-2.73c-.12,0-.234-.149-.348-.23.12-.1.234-.3.355-.3.728-.034,1.457,0,2.293,0v-9.254a1.8,1.8,0,0,1,.247-.616,2.037,2.037,0,0,1,.209.6q0,4.654,0,9.3A2.573,2.573,0,0,1,993.7,320.2Z" transform="translate(-925.672 -303.516)" fill="#fff"/>
  <g id="Group_2829" data-name="Group 2829" transform="translate(50.228 1.869)">
    <path id="Path_146565" data-name="Path 146565" d="M968.29,316.755a1.833,1.833,0,0,1,.633.095,6.963,6.963,0,0,0,8.006-.623,7.27,7.27,0,0,0,2.35-6.815,6.628,6.628,0,0,0-4.174-5.6l-.063-.034-.418-.427a1.556,1.556,0,0,1,.633-.054,6.681,6.681,0,0,1,3.363,2.757,8.563,8.563,0,0,1-.83,10.114,7.381,7.381,0,0,1-9.5.867Z" transform="translate(-968.116 -303.283)" fill="#fff"/>
    <path id="Path_146574" data-name="Path 146574" d="M972.94,306.938c-.171.088-.336.251-.5.251a3.584,3.584,0,0,0-3.56,2.567,5.209,5.209,0,0,0,.754,5.216c.184.23.589.427.12.779-1.634-1.179-2.223-4.064-1.3-6.361A3.749,3.749,0,0,1,972.94,306.938Z" transform="translate(-968.015 -304.42)" fill="#fff"/>
  </g>
  <g id="Group_2828" data-name="Group 2828" transform="translate(35.615 1.71)">
    <path id="Path_146576" data-name="Path 146576" d="M945.384,322.073a1.834,1.834,0,0,1,.589.088,7.106,7.106,0,0,0,4.972.833,5.819,5.819,0,0,0,3.9-2.845c.171-.278.317-.6.633-.169-1.59,3.705-6.917,4.952-10.135,2.364Z" transform="translate(-945.091 -308.442)" fill="#fff"/>
    <path id="Path_146580" data-name="Path 146580" d="M946.754,315.617a5.294,5.294,0,0,1-1.59-5.507,4.424,4.424,0,0,1,3.8-3.468c.443-.047.443-.047.481.474a3.933,3.933,0,0,0-3.541,2.432,5.063,5.063,0,0,0,.842,5.419,1.85,1.85,0,0,1,.234.589Z" transform="translate(-944.946 -304.2)" fill="#fff"/>
    <path id="Path_146586" data-name="Path 146586" d="M954.75,303.218c.171-.054.367-.21.5-.163a6.612,6.612,0,0,1,3.87,3.59c-.83.44-1.622.86-2.42,1.26-.1.054-.266,0-.4-.041.063-.149.1-.366.2-.427.6-.352,1.216-.677,1.9-1.023a6.017,6.017,0,0,0-3.623-2.967Z" transform="translate(-948.54 -303.047)" fill="#fff"/>
  </g>
  <g id="Group_2827" data-name="Group 2827" transform="translate(22.191 1.703)">
    <path id="Path_146575" data-name="Path 146575" d="M924.58,322.154c.2,0,.431-.074.583,0a7.313,7.313,0,0,0,4.016.975,5.8,5.8,0,0,0,4.865-2.94c.279-.447.285-.44.633-.176C932.96,323.766,927.6,324.992,924.58,322.154Z" transform="translate(-924.305 -308.455)" fill="#fff"/>
    <path id="Path_146579" data-name="Path 146579" d="M925.954,315.615a5.294,5.294,0,0,1-1.59-5.507,4.43,4.43,0,0,1,3.8-3.468c.443-.047.443-.047.475.3a11.454,11.454,0,0,0-2.274,1c-2.078,1.5-2.274,5-.481,6.964a2.707,2.707,0,0,1,.3.63Z" transform="translate(-924.146 -304.192)" fill="#fff"/>
    <path id="Path_146585" data-name="Path 146585" d="M938.288,306.677c-.785.413-1.577.84-2.382,1.24-.1.047-.26-.041-.393-.068.076-.149.114-.359.228-.42.6-.352,1.21-.677,1.9-1.016A6.908,6.908,0,0,0,934,303.27c.152-.081.323-.251.456-.23A6.265,6.265,0,0,1,938.288,306.677Z" transform="translate(-927.759 -303.038)" fill="#fff"/>
  </g>
  <path id="Path_146564" data-name="Path 146564" d="M895.453,302.668a.863.863,0,0,1,.043.669.788.788,0,0,1-.442.476,7.778,7.778,0,0,0-3.515,5.169,7.292,7.292,0,0,0-.114.82.341.341,0,0,0,.073.29.293.293,0,0,0,.263.1c.893,0,1.786.034,2.673,0a.872.872,0,0,0,.633-.434c.823-1.551,1.615-3.123,2.413-4.688a.84.84,0,0,0,0-.793l-1.539-3.387c-.051-.1-.1-.21-.158-.366h3.161a.4.4,0,0,1,.443.285c.633,1.443.431,1.111,1.653,1.531a8.353,8.353,0,0,1,5.764,7.228c.1.677.082.677.735.677h.576a.686.686,0,0,1,.5.249.785.785,0,0,1,.178.557h-1.267c-.633,0-.633,0-.709.677a8.653,8.653,0,0,1-4.682,6.8,7.671,7.671,0,0,1-7.872-.67.93.93,0,0,1-.485-.581,1.006,1.006,0,0,1,.086-.774l.241.183a6.94,6.94,0,0,0,8.6.576c.469-.318.5-.427.253-.969q-.912-1.978-1.812-3.963c-.063-.135-.12-.278-.209-.474h3.2a.466.466,0,0,1,.348.23c.247.474.456.969.684,1.456a1.912,1.912,0,0,0,.209.257c.07-.088.177-.156.2-.257.171-.677.348-1.355.475-2.032.07-.366-.057-.488-.406-.488h-9.875a.757.757,0,0,0-.709.467q-1.647,3.245-3.3,6.483l-.241.474a.758.758,0,0,1-.453.415.7.7,0,0,1-.592-.076l.165-.345c.412-.813.824-1.633,1.267-2.445a.717.717,0,0,0,0-.738,8.834,8.834,0,0,1-1.222-3.794c0-.318-.158-.454-.456-.44s-.538,0-.811,0a.7.7,0,0,1-.508-.246.8.8,0,0,1-.189-.56h1.444c.336,0,.482-.115.526-.488a8.6,8.6,0,0,1,4.542-6.95Zm9.28,7.533h.678c.57,0,.671-.108.576-.677a7.7,7.7,0,0,0-4.814-6.28.6.6,0,0,0-.488,0c-.209.149-.063.366,0,.549.893,1.971,1.793,3.943,2.667,5.927a.632.632,0,0,0,.754.488,4.56,4.56,0,0,1,.627-.007Zm-6.835,0h1.558c.437,0,.557-.2.374-.61-.494-1.1-.988-2.188-1.5-3.279a.5.5,0,0,0-.323-.285c-.114,0-.266.156-.336.285-.564,1.084-1.115,2.174-1.666,3.265-.209.406-.089.616.336.623Zm-5.067.813h-.95c-.374,0-.469.108-.431.5a7.529,7.529,0,0,0,.754,2.649c.057.108.19.251.285.244a.469.469,0,0,0,.329-.237c.456-.854.893-1.727,1.33-2.595.165-.325.038-.549-.3-.555s-.7-.014-1.033-.014Z" transform="translate(-888.718 -300.523)" fill="#fff"/>
</svg>
