<svg id="Members-dcg_logo" xmlns="http://www.w3.org/2000/svg" width="103.7" height="72.508" viewBox="0 0 103.7 72.508">
  <path id="Path_146596" data-name="Path 146596" d="M18.641,23.584V18.141H19.87A2.613,2.613,0,0,1,22.5,20.863a2.612,2.612,0,0,1-2.626,2.721H18.641Zm7.187-2.721A5.424,5.424,0,0,0,20.1,15.389H15.389V26.336H20.1a5.406,5.406,0,0,0,5.724-5.473Zm1.387-5.474H30.5V26.336H27.215ZM37.786,26.634c3.1,0,5.066-1.7,5.458-4.222h.928V20.268H38.13v2.144h1.814a1.908,1.908,0,0,1-2.081,1.547c-1.782,0-2.658-1.375-2.658-3,0-1.6.829-3.081,2.5-3.081a1.734,1.734,0,0,1,1.845,1.313h3.6c-.2-2.251-2.33-4.1-5.4-4.1a5.615,5.615,0,0,0-5.865,5.835,5.507,5.507,0,0,0,5.9,5.708Zm7.527-11.244H48.6V26.336H45.313Zm7.323,10.947h3.254V18.173h2.475V15.389h-8.2v2.783h2.474ZM63.8,18.673l1.157,4.035H62.64L63.8,18.673Zm-2.22,7.663.374-1.266h3.676L66,26.336h3.629L65.5,15.389h-3.41L58.057,26.336Zm9.257-10.947V26.336h6.116V23.552H74.089V15.389ZM20.776,42.026a5.418,5.418,0,0,0,5.739-4.615H23.074a2.207,2.207,0,0,1-2.3,1.659A2.634,2.634,0,0,1,18.1,36.254a2.606,2.606,0,0,1,2.644-2.816,2.2,2.2,0,0,1,2.329,1.848h3.411a5.378,5.378,0,0,0-5.74-4.8,5.776,5.776,0,1,0,.031,11.543Zm11.733,0c2.845,0,4.566-1.721,4.566-4.1V30.779H33.823V37.9a1.323,1.323,0,1,1-2.644,0V30.779H27.925v7.149c0,2.377,1.737,4.1,4.584,4.1ZM43.593,36.41H42.247v-3.1h1.362a1.552,1.552,0,0,1-.015,3.1Zm4.77-1.548a3.986,3.986,0,0,0-4.114-4.083H38.994v10.95h3.253v-2.8h.611l1.86,2.8H48.55L46.36,38.4a4,4,0,0,0,2-3.534Zm4.8-1.549h1.361a1.552,1.552,0,0,1-.015,3.1H53.162Zm0,5.616h.61l1.861,2.8h3.833L57.276,38.4a4.1,4.1,0,0,0-2.112-7.617H49.91v10.95h3.253v-2.8ZM67.877,33.22V30.779H60.825v10.95h7.052V39.288h-3.8V37.459h3.8v-2.33h-3.8V33.22Zm8.746,4.051-3.566-6.491H69.742v10.95h3.253V35.455l3.581,6.274h3.316V30.779H76.623Zm10.662,1.8a2.635,2.635,0,0,1-2.675-2.816,2.606,2.606,0,0,1,2.643-2.816,2.2,2.2,0,0,1,2.329,1.848h3.409a5.376,5.376,0,0,0-5.739-4.8,5.776,5.776,0,1,0,.031,11.543,5.418,5.418,0,0,0,5.739-4.615H89.583a2.209,2.209,0,0,1-2.3,1.659Zm12.787-8.291-1.658,3.9-1.767-3.9H92.83L96.5,37.865l-1.891,3.864h3.659l5.428-10.95ZM21.01,53.193h1.814a1.906,1.906,0,0,1-2.079,1.549c-1.783,0-2.66-1.376-2.66-3,0-1.6.83-3.08,2.5-3.08a1.734,1.734,0,0,1,1.846,1.313h3.6c-.2-2.252-2.331-4.1-5.4-4.1a5.615,5.615,0,0,0-5.866,5.834,5.509,5.509,0,0,0,5.9,5.71c3.1,0,5.067-1.7,5.458-4.223h.928V51.05H21.01v2.143ZM32.794,51.8H31.447V48.7h1.362a1.552,1.552,0,0,1-.015,3.1Zm4.77-1.549a3.987,3.987,0,0,0-4.114-4.082H28.194V57.12h3.253v-2.8h.611l1.861,2.8H37.75l-2.19-3.332A4.008,4.008,0,0,0,37.564,50.253Zm6.926,4.191a2.8,2.8,0,1,1,2.644-2.8,2.655,2.655,0,0,1-2.644,2.8Zm0-8.571a5.774,5.774,0,1,0,0,11.544,5.775,5.775,0,1,0,0-11.544Zm16.577,7.446V46.171H57.815v7.117A1.325,1.325,0,0,1,56.5,54.663a1.338,1.338,0,0,1-1.33-1.375V46.171H51.918v7.148c0,2.377,1.736,4.1,4.582,4.1s4.567-1.721,4.567-4.1ZM67.585,51.8H66.238V48.7H67.6a1.552,1.552,0,0,1-.015,3.1Zm.656-5.631H62.985V57.12h3.253v-2.8h2a4.074,4.074,0,1,0,0-8.148ZM0,15.389H10.948V26.336H0ZM55.292,61.561H66.237V72.508H55.292ZM63.141,0H74.089V10.947H63.141Z" fill="#fff"/>
</svg>
