<svg id="Members-equilibrium_logo" xmlns="http://www.w3.org/2000/svg" width="162" height="26.639" viewBox="0 0 162 26.639">
  <path id="iso" d="M443.7,411.477a1.422,1.422,0,0,0,2.658,1.013c1.33-3.481,3.919-5.652,6.757-5.652,3.386,0,6.168,2.226,7.265,5.817a2.383,2.383,0,0,1-.225,2.061c-.565.764-1.872,1.182-3.683,1.182h-24.4c-3.719,0-5.485,1.336-6.312,2.457a4.969,4.969,0,0,0-.672,4.473c1.462,4.739,5.363,7.811,9.935,7.811,4.075,0,7.8-3.027,9.5-7.719a1.418,1.418,0,1,0-2.667-.964c-1.285,3.552-3.967,5.85-6.833,5.85-3.354,0-6.119-2.223-7.229-5.806a2.193,2.193,0,0,1,.248-1.949c.621-.843,2.049-1.3,4.029-1.3h24.385c3.5,0,5.175-1.267,5.965-2.331a5.1,5.1,0,0,0,.654-4.573c-1.447-4.768-5.363-7.842-9.971-7.842-4.041,0-7.647,2.862-9.408,7.476" transform="translate(-424.846 -404)" fill="#fff"/>
  <g id="tipo" transform="translate(48.144 5.413)">
    <path id="Path_146606" data-name="Path 146606" d="M748.692,476.8a4.336,4.336,0,0,0,3.073-1.141l1.441,1.4a6.239,6.239,0,0,1-4.559,1.806c-3.481,0-5.717-2.213-5.717-5.611a5.3,5.3,0,0,1,5.565-5.526c3.162,0,5.378,1.807,5.378,5.464,0,.3-.021.624-.044.944h-8.594c.192,1.633,1.5,2.667,3.461,2.667m-.13-7.1a3.118,3.118,0,0,0-3.291,2.556h6.43c-.151-1.7-1.332-2.556-3.139-2.556" transform="translate(-742.93 -463.488)" fill="#fff"/>
    <path id="Path_146607" data-name="Path 146607" d="M834.7,477.182a4.357,4.357,0,0,1-3.742,1.785c-3.309,0-5.373-2.323-5.373-5.57a5.236,5.236,0,0,1,5.373-5.526,4.393,4.393,0,0,1,3.72,1.936l.129-1.718h2.11v15.52H834.7m-.213-10.212a3.217,3.217,0,0,0-3.33-3.377,3.161,3.161,0,0,0-3.33,3.377,3.226,3.226,0,0,0,3.33,3.416,3.274,3.274,0,0,0,3.33-3.416" transform="translate(-813.079 -463.615)" fill="#fff"/>
    <path id="Path_146608" data-name="Path 146608" d="M921.386,475.3a2.747,2.747,0,0,0,2.876,3.056,3,3,0,0,0,2.944-3.2v-5.57h2.216v10.578h-2l-.129-1.485a4.463,4.463,0,0,1-3.654,1.721c-2.6,0-4.473-1.872-4.473-5.075V469.58h2.216" transform="translate(-892.495 -465.067)" fill="#fff"/>
    <path id="Path_146609" data-name="Path 146609" d="M1006.473,439.76a1.3,1.3,0,0,1,1.379,1.352,1.376,1.376,0,1,1-2.752,0,1.3,1.3,0,0,1,1.373-1.352m1.1,15.069h-2.216V444.186h2.216Z" transform="translate(-965.419 -439.76)" fill="#fff"/>
    <rect id="Rectangle_1250" data-name="Rectangle 1250" width="2.213" height="15.03" transform="translate(45.247 0.041)" fill="#fff"/>
    <path id="Path_146610" data-name="Path 146610" d="M1076.607,439.76a1.3,1.3,0,0,1,1.374,1.352,1.376,1.376,0,1,1-2.752,0,1.3,1.3,0,0,1,1.377-1.352m1.094,15.069h-2.213V444.186h2.213Z" transform="translate(-1024.934 -439.76)" fill="#fff"/>
    <path id="Path_146611" data-name="Path 146611" d="M1113.653,446.13a4.409,4.409,0,0,1,3.72-1.892c3.054,0,5.373,1.918,5.373,5.526a5.148,5.148,0,0,1-5.414,5.526,4.135,4.135,0,0,1-3.68-1.892l-.129,1.677h-2.084V440.05h2.213m.13,9.714a3.328,3.328,0,0,0,3.4,3.462,3.452,3.452,0,0,0,0-6.9,3.346,3.346,0,0,0-3.4,3.439" transform="translate(-1055.663 -440.006)" fill="#fff"/>
    <path id="Path_146612" data-name="Path 146612" d="M1203.973,469.358a3.253,3.253,0,0,1,3.116-1.638,4.038,4.038,0,0,1,2.623.908l-1.008,1.936a2.678,2.678,0,0,0-1.872-.646,2.705,2.705,0,0,0-2.859,2.9v5.74h-2.213v-10.6h2.065" transform="translate(-1132.313 -463.488)" fill="#fff"/>
    <path id="Path_146613" data-name="Path 146613" d="M1263.907,439.76a1.3,1.3,0,0,1,1.373,1.352,1.375,1.375,0,1,1-2.75,0,1.3,1.3,0,0,1,1.377-1.352m1.1,15.069h-2.218V444.186H1265Z" transform="translate(-1183.885 -439.76)" fill="#fff"/>
    <path id="Path_146614" data-name="Path 146614" d="M1299.772,475.3a2.748,2.748,0,0,0,2.876,3.056,3,3,0,0,0,2.944-3.2v-5.57h2.216v10.578h-2l-.125-1.485a4.473,4.473,0,0,1-3.657,1.721c-2.6,0-4.474-1.872-4.474-5.075V469.58h2.216" transform="translate(-1213.604 -465.067)" fill="#fff"/>
    <path id="Path_146615" data-name="Path 146615" d="M1392.464,472.715c0-1.57-.908-2.876-2.472-2.876a2.651,2.651,0,0,0-2.559,2.876v5.868h-2.213v-10.6h2.064l.151,1.355a3.183,3.183,0,0,1,2.966-1.592,3.35,3.35,0,0,1,3.33,2.128,3.846,3.846,0,0,1,3.632-2.105c2.947,0,4.5,1.828,4.5,4.9v5.913h-2.239v-5.918c0-1.57-.795-2.814-2.341-2.814a2.64,2.64,0,0,0-2.573,2.859v5.868h-2.238" transform="translate(-1288.005 -463.513)" fill="#fff"/>
  </g>
</svg>
