<svg id="Members-rarestone-capital_logo" xmlns="http://www.w3.org/2000/svg" width="103.25" height="35.135" viewBox="0 0 103.25 35.135">
  <g id="Group_2837" data-name="Group 2837">
    <path id="Path_146616" data-name="Path 146616" d="M62.805,138.184v1.538h-.081l-5.466-6.393a1.256,1.256,0,0,0-1.19-.47H54.118v6.616H53.07V124.75h2.722c3.592,0,5.663,1.234,5.663,3.783,0,2.206-1.612,3.292-3.467,4.028Zm-2.519-9.529c0-2.185-1.493-3.582-4.494-3.582H54.118V132.4a15.683,15.683,0,0,0,2.136.143A3.832,3.832,0,0,0,60.286,128.655Z" transform="translate(-53.07 -124.503)" fill="#fff"/>
    <path id="Path_146617" data-name="Path 146617" d="M127.187,133.276h-6.309a30.65,30.65,0,0,0-1.471,4.9H118.5c.846-2.022,1.693-4.269,2.521-6.414l3.3-8.558h.081l5.778,14.972h-1.129Zm-.142-.364-3.022-7.839-2.62,6.8L121,132.9Z" transform="translate(-108.282 -123.195)" fill="#fff"/>
    <path id="Path_146618" data-name="Path 146618" d="M214.324,138.184v1.538h-.081l-5.466-6.393a1.254,1.254,0,0,0-1.188-.47h-1.951v6.616H204.59V124.75h2.719c3.592,0,5.663,1.234,5.663,3.783,0,2.206-1.612,3.292-3.465,4.028Zm-2.519-9.529c0-2.185-1.491-3.582-4.494-3.582h-1.673V132.4a15.654,15.654,0,0,0,2.136.143A3.832,3.832,0,0,0,211.8,128.655Z" transform="translate(-180.928 -124.503)" fill="#fff"/>
    <path id="Path_146619" data-name="Path 146619" d="M287.835,138.711l-.322.768h-8.2V124.75h7.9l.242.768h-.041a40.956,40.956,0,0,0-5.683-.4h-1.374v6.516h1.29c2.177,0,3.547-.041,4.313-.121H286v.649h-.041c-.767-.08-2.136-.157-4.313-.157h-1.29v7.122h1.371a46.134,46.134,0,0,0,6.065-.4Z" transform="translate(-243.979 -124.503)" fill="#fff"/>
    <path id="Path_146620" data-name="Path 146620" d="M341.13,137.253l.262-.85a6.857,6.857,0,0,0,4.352,1.659c2.03,0,3.592-1.254,3.592-3.117,0-2.063-1.673-2.994-3.223-3.742l-1.009-.486c-1.733-.829-3.707-1.822-3.707-4.006,0-2.038,1.732-3.542,4.273-3.542a8.143,8.143,0,0,1,4.01,1.133l-.222.768a5.986,5.986,0,0,0-3.951-1.577c-1.974,0-3.144,1.213-3.144,2.711,0,1.841,1.491,2.631,3.2,3.46l1.007.486c2,.97,3.689,1.881,3.689,4.208,0,2.651-2.257,4.026-4.635,4.026A10.4,10.4,0,0,1,341.13,137.253Z" transform="translate(-296.145 -123.17)" fill="#fff"/>
    <path id="Path_146621" data-name="Path 146621" d="M414.021,125.518h-.041a23.462,23.462,0,0,0-4.112-.4h-.6v14.365h-1.048V125.114h-.6a23.477,23.477,0,0,0-4.112.4h-.041l.242-.768h10.077Z" transform="translate(-348.741 -124.503)" fill="#fff"/>
    <path id="Path_146622" data-name="Path 146622" d="M467.73,130.929a7.417,7.417,0,0,1,7.579-7.729,7.14,7.14,0,0,1,7.34,7.486,7.416,7.416,0,0,1-7.579,7.729A7.137,7.137,0,0,1,467.73,130.929Zm13.743-.041c0-4.41-2.822-7.368-6.328-7.368s-6.247,2.872-6.247,7.2c0,4.412,2.822,7.368,6.368,7.368,3.468,0,6.209-2.85,6.209-7.2Z" transform="translate(-402.975 -123.195)" fill="#fff"/>
    <path id="Path_146623" data-name="Path 146623" d="M584.861,124.75c-.156,1.618-.2,3.606-.2,6.428v8.538h-.12l-9.029-13.354v6.677c0,2.833.041,4.816.2,6.428H574.9c.156-1.618.2-3.606.2-6.428v-7.277l-.645-.95v-.061h1.231l8.566,12.707v-6.271c0-2.833-.041-4.816-.2-6.428Z" transform="translate(-493.037 -124.503)" fill="#fff"/>
    <path id="Path_146624" data-name="Path 146624" d="M668.165,138.711l-.322.768h-8.2V124.75h7.9l.242.768h-.041a40.916,40.916,0,0,0-5.683-.4h-1.371v6.516h1.29c2.177,0,3.548-.041,4.313-.121h.041v.649h-.041c-.765-.08-2.136-.157-4.313-.157h-1.29v7.122h1.371a46.154,46.154,0,0,0,6.07-.412Z" transform="translate(-564.915 -124.503)" fill="#fff"/>
    <path id="Path_146625" data-name="Path 146625" d="M157.8,257.922c0-4.633,3.225-7.682,7.377-7.682a6.89,6.89,0,0,1,5.522,2.388l-.687.6a5.907,5.907,0,0,0-4.958-2.665c-3.447,0-6.09,2.872-6.09,7.041,0,4.33,2.761,7.243,6.328,7.243a6.232,6.232,0,0,0,5.361-3.056l.242.143a6.9,6.9,0,0,1-6.067,3.52C160.884,265.449,157.8,262.6,157.8,257.922Z" transform="translate(-141.445 -230.319)" fill="#fff"/>
    <path id="Path_146626" data-name="Path 146626" d="M253.216,260.276h-6.308a30.648,30.648,0,0,0-1.471,4.9h-.907c.846-2.022,1.693-4.269,2.519-6.414l3.306-8.558h.08l5.778,14.972h-1.128Zm-.141-.364-3.023-7.831-2.62,6.8-.4,1.032Z" transform="translate(-214.631 -230.285)" fill="#fff"/>
    <path id="Path_146627" data-name="Path 146627" d="M340.3,255.735c0,2.753-2.2,4.532-5.684,4.532a12.342,12.342,0,0,1-1.673-.121v6.332H331.9V251.75h2.72C338.37,251.75,340.3,253.145,340.3,255.735Zm-1.17.243c0-2.327-1.405-3.905-4.515-3.905h-1.673V259.8a8.517,8.517,0,0,0,1.633.143C337.584,259.942,339.135,258.447,339.135,255.978Z" transform="translate(-288.357 -231.593)" fill="#fff"/>
    <path id="Path_146628" data-name="Path 146628" d="M401.46,251.75h1.048v14.729H401.46Z" transform="translate(-347.054 -231.593)" fill="#fff"/>
    <path id="Path_146629" data-name="Path 146629" d="M431.77,252.518h-.039a23.492,23.492,0,0,0-4.112-.4h-.6v14.365h-1.048V252.114h-.606a23.456,23.456,0,0,0-4.11.4h-.041l.242-.768h10.077Z" transform="translate(-363.719 -231.593)" fill="#fff"/>
    <path id="Path_146630" data-name="Path 146630" d="M487.967,260.276h-6.309a30.644,30.644,0,0,0-1.471,4.9h-.907c.846-2.022,1.694-4.269,2.521-6.414l3.3-8.558h.081l5.778,14.972h-1.129Zm-.141-.364-3.023-7.831-2.62,6.8-.4,1.032Z" transform="translate(-412.721 -230.285)" fill="#fff"/>
    <path id="Path_146631" data-name="Path 146631" d="M573.291,265.711l-.323.768H566.66V251.75h1.048v14.365h.482a33.609,33.609,0,0,0,5.06-.4Z" transform="translate(-486.455 -231.593)" fill="#fff"/>
  </g>
</svg>
