<svg xmlns="http://www.w3.org/2000/svg" width="87.3" height="16.83" viewBox="0 0 87.3 16.83">
  <g id="Members-Chain_Api" transform="translate(0 0.41)">
    <g id="logo">
      <path id="Path_146634" data-name="Path 146634" d="M6.9,28.941A6.7,6.7,0,0,1,0,22.132,6.7,6.7,0,0,1,6.9,15.3a6.447,6.447,0,0,1,6.566,5.538H9.845a3.07,3.07,0,0,0-2.934-2.2,3.249,3.249,0,0,0-3.187,3.489,3.228,3.228,0,0,0,3.187,3.459A2.986,2.986,0,0,0,9.848,23.21h3.658a6.484,6.484,0,0,1-6.6,5.731Z" transform="translate(0 -12.521)" fill="#fff"/>
      <path id="Path_146635" data-name="Path 146635" d="M92.942,21.134v6.031h-3.45v-5.63c0-1.155-.406-1.744-1.306-1.744-1.044,0-1.695.741-1.695,2.026v5.348h-3.45V13.533h3.45v4.276a4.273,4.273,0,0,1,2.674-.955c2.3,0,3.777,1.685,3.777,4.281" transform="translate(-67.953 -11.074)" fill="#fff"/>
      <path id="Path_146636" data-name="Path 146636" d="M159.034,32.02V42.036h-2.667l-.3-.708a4.744,4.744,0,0,1-3.022,1.047,5.107,5.107,0,0,1-5.252-5.347,5.083,5.083,0,0,1,5.252-5.31,4.752,4.752,0,0,1,3.06,1.076l.353-.775Zm-3.281,5.016a2.242,2.242,0,1,0-2.242,2.284,2.2,2.2,0,0,0,2.242-2.284" transform="translate(-120.943 -25.955)" fill="#fff"/>
      <rect id="Rectangle_1253" data-name="Rectangle 1253" width="3.45" height="10.016" transform="translate(39.966 6.075)" fill="#fff"/>
      <path id="Path_146637" data-name="Path 146637" d="M259.3,36.014v6.107h-3.45v-5.63c0-1.166-.438-1.744-1.306-1.744-1.076,0-1.695.751-1.695,2.026v5.348H249.4V32.105h2.42l.474,1.033a4.163,4.163,0,0,1,3.153-1.329c2.326,0,3.853,1.653,3.853,4.2" transform="translate(-204.087 -26.029)" fill="#fff"/>
      <path id="Path_146638" data-name="Path 146638" d="M319.554,27.981h-4.6l-.719,2.109H310.4l5.1-12.983H319l5.212,12.983H320.27Zm-2.308-6.822-1.423,4.023h2.858Z" transform="translate(-254 -13.998)" fill="#fff"/>
      <path id="Path_146639" data-name="Path 146639" d="M403.616,21.8a4.621,4.621,0,0,1-4.81,4.707h-1.943V30.09h-3.585V17.107h5.528a4.609,4.609,0,0,1,4.81,4.691m-3.677.008a1.492,1.492,0,0,0-1.562-1.575h-1.514v3.151h1.514a1.492,1.492,0,0,0,1.562-1.575" transform="translate(-321.819 -13.999)" fill="#fff"/>
      <rect id="Rectangle_1254" data-name="Rectangle 1254" width="3.624" height="12.983" transform="translate(83.675 3.108)" fill="#fff"/>
      <path id="Path_146640" data-name="Path 146640" d="M221.057,2.9a2.4,2.4,0,1,1-2.4-2.4A2.4,2.4,0,0,1,221.057,2.9Z" transform="translate(-176.97 -0.41)" fill="none" stroke="#fff" stroke-miterlimit="10" stroke-width="1"/>
      <rect id="Rectangle_1255" data-name="Rectangle 1255" width="87.3" height="16.42" fill="none"/>
    </g>
  </g>
</svg>
