<svg xmlns="http://www.w3.org/2000/svg" width="184" height="184" viewBox="0 0 184 184">
  <g id="Features-graph_2-Quantifiatly-Secure" transform="translate(0)">
    <g id="_2-Quantifiatly_Secure_1" data-name="2-Quantifiatly Secure_1" transform="translate(0 6.088)">
      <rect id="Rectángulo_1221" data-name="Rectángulo 1221" width="184" height="171" transform="translate(0 -0.088)" fill="none"/>
      <path id="Trazado_145736" data-name="Trazado 145736" d="M157.083,71.49H82.649L45.44,131.613l37.209,60.123h74.434L194.3,131.613Z" transform="translate(-27.675 -46.232)" fill="none"/>
      <path id="Trazado_145737" data-name="Trazado 145737" d="M142.71,105.33v17.326l5.432,4.567" transform="translate(-87.736 -67.998)" fill="none" stroke="#878888" stroke-miterlimit="10" stroke-width="1"/>
      <path id="Trazado_145738" data-name="Trazado 145738" d="M328.377,105.15v10.5l-5.547,11.417" transform="translate(-198.953 -67.882)" fill="none" stroke="#878888" stroke-miterlimit="10" stroke-width="1"/>
      <path id="Trazado_145739" data-name="Trazado 145739" d="M142.71,321.869V308.632l10.86-11.243" transform="translate(-87.736 -191.532)" fill="none" stroke="#878888" stroke-miterlimit="10" stroke-width="1"/>
      <path id="Trazado_145740" data-name="Trazado 145740" d="M319.631,322v-4.674L308.66,297.6" transform="translate(-190.204 -191.667)" fill="none" stroke="#878888" stroke-miterlimit="10" stroke-width="1"/>
      <path id="Trazado_145741" data-name="Trazado 145741" d="M79.34,223.193H92.346l15.722-9.323" transform="translate(-48.607 -137.811)" fill="none" stroke="#878888" stroke-miterlimit="10" stroke-width="1"/>
      <ellipse id="Elipse_20" data-name="Elipse 20" cx="1.148" cy="1.07" rx="1.148" ry="1.07" transform="translate(53.827 53.595)" fill="#030303" stroke="#7ce3cb" stroke-miterlimit="10" stroke-width="1"/>
      <ellipse id="Elipse_21" data-name="Elipse 21" cx="1.148" cy="1.07" rx="1.148" ry="1.07" transform="translate(42.599 84.311)" fill="#030303" stroke="#7ce3cb" stroke-miterlimit="10" stroke-width="1"/>
      <path id="Trazado_145742" data-name="Trazado 145742" d="M350.933,239.92h-9.769l-15.684,3.211" transform="translate(-200.589 -154.567)" fill="none" stroke="#878888" stroke-miterlimit="10" stroke-width="1"/>
      <ellipse id="Elipse_22" data-name="Elipse 22" cx="1.148" cy="1.07" rx="1.148" ry="1.07" transform="translate(139.438 84.286)" fill="#030303" stroke="#7ce3cb" stroke-miterlimit="10" stroke-width="1"/>
      <ellipse id="Elipse_23" data-name="Elipse 23" cx="1.148" cy="1.07" rx="1.148" ry="1.07" transform="translate(128.276 46.709)" fill="#030303" stroke="#7ce3cb" stroke-miterlimit="10" stroke-width="1"/>
      <ellipse id="Elipse_24" data-name="Elipse 24" cx="1.148" cy="1.07" rx="1.148" ry="1.07" transform="translate(53.827 116.048)" fill="#030303" stroke="#7ce3cb" stroke-miterlimit="10" stroke-width="1"/>
      <ellipse id="Elipse_25" data-name="Elipse 25" cx="1.148" cy="1.07" rx="1.148" ry="1.07" transform="translate(128.276 124.621)" fill="#030303" stroke="#7ce3cb" stroke-miterlimit="10" stroke-width="1"/>
      <rect id="Rectángulo_1173" data-name="Rectángulo 1173" width="6.886" height="6.422" transform="translate(66.944 93.12)" fill="none"/>
      <rect id="Rectángulo_1174" data-name="Rectángulo 1174" width="6.886" height="6.422" transform="translate(75.666 93.12)" fill="none"/>
      <rect id="Rectángulo_1175" data-name="Rectángulo 1175" width="6.886" height="6.422" transform="translate(84.388 93.12)" fill="none"/>
      <rect id="Rectángulo_1176" data-name="Rectángulo 1176" width="6.886" height="6.422" transform="translate(93.109 93.12)" fill="none"/>
      <rect id="Rectángulo_1177" data-name="Rectángulo 1177" width="6.886" height="6.422" transform="translate(101.831 93.12)" fill="none"/>
      <rect id="Rectángulo_1178" data-name="Rectángulo 1178" width="6.886" height="6.422" transform="translate(110.553 93.12)" fill="none"/>
      <rect id="Rectángulo_1181" data-name="Rectángulo 1181" width="184" height="171" transform="translate(0 -0.088)" fill="none"/>
      <path id="Trazado_146374" data-name="Trazado 146374" d="M192.116,140.9,162.45,152.2v26.617c0,22.717,29.666,32.286,29.666,32.286s29.666-9.569,29.666-32.286V152.2Z" transform="translate(-99.924 -90.877)" fill="none" stroke="#7ce3cb" stroke-miterlimit="10" stroke-width="1"/>
      <line id="Línea_44" data-name="Línea 44" y2="70.202" transform="translate(92.191 50.023)" fill="none" stroke="#7ce3cb" stroke-miterlimit="10" stroke-width="1"/>
      <g id="icon-dapp" transform="translate(79.089 73.094)">
        <g id="data">
          <path id="Trazado_146375" data-name="Trazado 146375" d="M231.954,230h-26.2V205.56h20.814l5.39,5.031Z" transform="translate(-205.75 -205.56)" fill="#030303" stroke="#7ce3cb" stroke-miterlimit="10" stroke-width="1"/>
          <line id="Línea_45" data-name="Línea 45" x2="18.721" transform="translate(3.741 12.224)" fill="none" stroke="#7ce3cb" stroke-miterlimit="10" stroke-width="1"/>
          <line id="Línea_46" data-name="Línea 46" x2="18.721" transform="translate(3.741 15.717)" fill="none" stroke="#7ce3cb" stroke-miterlimit="10" stroke-width="1"/>
          <line id="Línea_47" data-name="Línea 47" x2="18.721" transform="translate(3.741 19.206)" fill="none" stroke="#7ce3cb" stroke-miterlimit="10" stroke-width="1"/>
        </g>
      </g>
      <g id="elementos_principales" data-name="elementos principales" transform="translate(2.029 10.147)">
        <g id="icon-api" transform="translate(114.971 -0.235)">
          <rect id="cell" width="24" height="24" transform="translate(0)" fill="none"/>
          <g id="icon-api_small">
            <rect id="cell-2" data-name="cell" width="24" height="24" fill="none"/>
            <g id="icon-api-2" data-name="icon-api" transform="translate(0.765 0.764)">
              <circle id="Elipse_66-2" data-name="Elipse 66-2" cx="6" cy="6" r="6" transform="translate(5.235 5.236)" fill="none" stroke="#7ce3cb" stroke-miterlimit="10" stroke-width="1"/>
              <path id="Trazado_146373" data-name="Trazado 146373" d="M324.643,50.164l1.45-.22a11.556,11.556,0,0,0,.083-1.36c0-.362-.019-.72-.052-1.074l-1.481-.223a10.1,10.1,0,0,0-.606-2.241l1.222-.963a11.449,11.449,0,0,0-1.176-2.1l-1.456.571a9.751,9.751,0,0,0-1.641-1.635l.6-1.516a11.48,11.48,0,0,0-2.039-1.22l-1.034,1.3a9.866,9.866,0,0,0-2.241-.606l-.254-1.69a11.631,11.631,0,0,0-1.315-.077c-.351,0-.7.019-1.04.049l-.257,1.749a9.868,9.868,0,0,0-2.241.606l-1.117-1.417a11.448,11.448,0,0,0-2.029,1.163l.653,1.664a10.211,10.211,0,0,0-1.641,1.635l-1.658-.651a11.457,11.457,0,0,0-1.162,2.03l1.389,1.1a10.066,10.066,0,0,0-.606,2.241l-1.718.258c-.031.345-.05.693-.05,1.046A11.551,11.551,0,0,0,303.3,49.9l1.684.253a10.079,10.079,0,0,0,.606,2.235l-1.3,1.035a11.474,11.474,0,0,0,1.235,2.061l1.5-.576a10.514,10.514,0,0,0,1.641,1.641l-.56,1.426a11.45,11.45,0,0,0,2.106,1.176l.943-1.2a10.084,10.084,0,0,0,2.241.606l.218,1.45c.358.033.72.052,1.087.052a11.507,11.507,0,0,0,1.344-.081l.218-1.446a10.094,10.094,0,0,0,2.241-.606l.889,1.129a11.462,11.462,0,0,0,2.114-1.233L321,56.529a10.225,10.225,0,0,0,1.635-1.641l1.3.51a11.452,11.452,0,0,0,1.233-2.109l-1.129-.89A10.3,10.3,0,0,0,324.643,50.164Z" transform="translate(-303.224 -37.108)" fill="none" stroke="#7ce3cb" stroke-width="1"/>
              <g id="icon_data" transform="translate(5.323 5.323)">
                <g id="icon-cryptomarket_solid" transform="translate(-0.088 -0.088)">
                  <path id="icon-cryptomarket" d="M66.485,86.405l.861-2.225,1.415,1.968.864-5.185,1.3,3.979.995-2.141,1.195,1.777,1.073-3.162" transform="translate(-64.182 -78.017)" fill="none" stroke="#7ce3cb" stroke-linecap="round" stroke-linejoin="round" stroke-width="1"/>
                  <rect id="cell-3" data-name="cell" width="12" height="12" fill="none"/>
                </g>
              </g>
            </g>
          </g>
        </g>
        <g id="icon-api-3" data-name="icon-api" transform="translate(114.971 122.765)">
          <rect id="cell-4" data-name="cell" width="24" height="24" transform="translate(0)" fill="none"/>
          <g id="icon-api_small-2" data-name="icon-api_small">
            <rect id="cell-5" data-name="cell" width="24" height="24" fill="none"/>
            <g id="icon-api-4" data-name="icon-api" transform="translate(0.765 0.764)">
              <circle id="Elipse_66-2-2" data-name="Elipse 66-2" cx="6" cy="6" r="6" transform="translate(5.235 5.236)" fill="none" stroke="#7ce3cb" stroke-miterlimit="10" stroke-width="1"/>
              <path id="Trazado_146373-2" data-name="Trazado 146373" d="M324.643,50.164l1.45-.22a11.556,11.556,0,0,0,.083-1.36c0-.362-.019-.72-.052-1.074l-1.481-.223a10.1,10.1,0,0,0-.606-2.241l1.222-.963a11.449,11.449,0,0,0-1.176-2.1l-1.456.571a9.751,9.751,0,0,0-1.641-1.635l.6-1.516a11.48,11.48,0,0,0-2.039-1.22l-1.034,1.3a9.866,9.866,0,0,0-2.241-.606l-.254-1.69a11.631,11.631,0,0,0-1.315-.077c-.351,0-.7.019-1.04.049l-.257,1.749a9.868,9.868,0,0,0-2.241.606l-1.117-1.417a11.448,11.448,0,0,0-2.029,1.163l.653,1.664a10.211,10.211,0,0,0-1.641,1.635l-1.658-.651a11.457,11.457,0,0,0-1.162,2.03l1.389,1.1a10.066,10.066,0,0,0-.606,2.241l-1.718.258c-.031.345-.05.693-.05,1.046A11.551,11.551,0,0,0,303.3,49.9l1.684.253a10.079,10.079,0,0,0,.606,2.235l-1.3,1.035a11.474,11.474,0,0,0,1.235,2.061l1.5-.576a10.514,10.514,0,0,0,1.641,1.641l-.56,1.426a11.45,11.45,0,0,0,2.106,1.176l.943-1.2a10.084,10.084,0,0,0,2.241.606l.218,1.45c.358.033.72.052,1.087.052a11.507,11.507,0,0,0,1.344-.081l.218-1.446a10.094,10.094,0,0,0,2.241-.606l.889,1.129a11.462,11.462,0,0,0,2.114-1.233L321,56.529a10.225,10.225,0,0,0,1.635-1.641l1.3.51a11.452,11.452,0,0,0,1.233-2.109l-1.129-.89A10.3,10.3,0,0,0,324.643,50.164Z" transform="translate(-303.224 -37.108)" fill="none" stroke="#7ce3cb" stroke-width="1"/>
              <g id="icon_data-2" data-name="icon_data" transform="translate(5.323 5.323)">
                <g id="icon-email-validation_solid" transform="translate(-0.088 -0.088)">
                  <rect id="cell-6" data-name="cell" width="12" height="12" fill="none"/>
                  <g id="Grupo_2557" data-name="Grupo 2557" transform="translate(2.295 3.965)">
                    <rect id="Rectángulo_1203" data-name="Rectángulo 1203" width="6.121" height="3.938" transform="translate(0.765 0.627)" fill="#7ce3cb"/>
                    <path id="Trazado_146328" data-name="Trazado 146328" d="M123.154,163.887H115.5l3.825,3.274Z" transform="translate(-115.504 -163.887)" fill="#030303"/>
                  </g>
                </g>
              </g>
            </g>
          </g>
        </g>
        <g id="icon-api-5" data-name="icon-api" transform="translate(152.971 63.765)">
          <rect id="cell-7" data-name="cell" width="24" height="24" transform="translate(0)" fill="none"/>
          <g id="icon-api_small-3" data-name="icon-api_small">
            <rect id="cell-8" data-name="cell" width="24" height="24" fill="none"/>
            <g id="icon-api-6" data-name="icon-api" transform="translate(0.765 0.764)">
              <circle id="Elipse_66-2-3" data-name="Elipse 66-2" cx="6" cy="6" r="6" transform="translate(5.235 5.236)" fill="none" stroke="#7ce3cb" stroke-miterlimit="10" stroke-width="1"/>
              <path id="Trazado_146373-3" data-name="Trazado 146373" d="M324.643,50.164l1.45-.22a11.556,11.556,0,0,0,.083-1.36c0-.362-.019-.72-.052-1.074l-1.481-.223a10.1,10.1,0,0,0-.606-2.241l1.222-.963a11.449,11.449,0,0,0-1.176-2.1l-1.456.571a9.751,9.751,0,0,0-1.641-1.635l.6-1.516a11.48,11.48,0,0,0-2.039-1.22l-1.034,1.3a9.866,9.866,0,0,0-2.241-.606l-.254-1.69a11.631,11.631,0,0,0-1.315-.077c-.351,0-.7.019-1.04.049l-.257,1.749a9.868,9.868,0,0,0-2.241.606l-1.117-1.417a11.448,11.448,0,0,0-2.029,1.163l.653,1.664a10.211,10.211,0,0,0-1.641,1.635l-1.658-.651a11.457,11.457,0,0,0-1.162,2.03l1.389,1.1a10.066,10.066,0,0,0-.606,2.241l-1.718.258c-.031.345-.05.693-.05,1.046A11.551,11.551,0,0,0,303.3,49.9l1.684.253a10.079,10.079,0,0,0,.606,2.235l-1.3,1.035a11.474,11.474,0,0,0,1.235,2.061l1.5-.576a10.514,10.514,0,0,0,1.641,1.641l-.56,1.426a11.45,11.45,0,0,0,2.106,1.176l.943-1.2a10.084,10.084,0,0,0,2.241.606l.218,1.45c.358.033.72.052,1.087.052a11.507,11.507,0,0,0,1.344-.081l.218-1.446a10.094,10.094,0,0,0,2.241-.606l.889,1.129a11.462,11.462,0,0,0,2.114-1.233L321,56.529a10.225,10.225,0,0,0,1.635-1.641l1.3.51a11.452,11.452,0,0,0,1.233-2.109l-1.129-.89A10.3,10.3,0,0,0,324.643,50.164Z" transform="translate(-303.224 -37.108)" fill="none" stroke="#7ce3cb" stroke-width="1"/>
              <g id="icon_data-3" data-name="icon_data" transform="translate(5.323 5.323)">
                <g id="icon-bitcoin_solid" transform="translate(-0.088 -0.088)">
                  <path id="icon-bitcoin" d="M73.211,123.188c.118-.8-.491-1.237-1.331-1.525l.274-1.09-.661-.165-.264,1.062c-.175-.043-.354-.085-.533-.123l.264-1.067-.661-.165L70.03,121.2q-.22-.05-.425-.1v0l-.916-.227-.174.708s.491.113.481.118a.35.35,0,0,1,.307.387l-.746,2.983a.241.241,0,0,1-.3.156c0,.009-.481-.118-.481-.118l-.33.76.864.217c.16.042.316.081.472.123l-.274,1.1.661.165.274-1.09c.179.047.359.095.529.137L69.7,127.6l.661.165.274-1.1c1.133.212,1.982.127,2.336-.9a1.166,1.166,0,0,0-.609-1.609,1.053,1.053,0,0,0,.85-.972ZM71.7,125.311c-.2.821-1.591.378-2.039.264l.363-1.458c.449.113,1.893.335,1.676,1.194Zm.208-2.138c-.189.751-1.341.368-1.713.274l.33-1.321c.373.094,1.576.269,1.383,1.048Z" transform="translate(-64.382 -117.819)" fill="#7ce2ca"/>
                  <rect id="cell-9" data-name="cell" width="12" height="12" fill="none"/>
                </g>
              </g>
            </g>
          </g>
        </g>
        <g id="icon-api-7" data-name="icon-api" transform="translate(38.971 -0.235)">
          <rect id="cell-10" data-name="cell" width="26" height="27" transform="translate(0)" fill="none"/>
          <g id="icon-api_small-4" data-name="icon-api_small">
            <rect id="cell-11" data-name="cell" width="26" height="26" fill="none"/>
            <g id="icon-api-8" data-name="icon-api" transform="translate(0.825 0.824)">
              <circle id="Elipse_66-2-4" data-name="Elipse 66-2" cx="6.599" cy="6.599" r="6.599" transform="translate(5.774 5.774)" fill="none" stroke="#7ce3cb" stroke-miterlimit="10" stroke-width="1"/>
              <path id="Trazado_146373-4" data-name="Trazado 146373" d="M326.317,51.184l1.563-.238a12.466,12.466,0,0,0,.09-1.466c0-.391-.02-.777-.056-1.158l-1.6-.24a10.885,10.885,0,0,0-.653-2.416l1.317-1.038a12.337,12.337,0,0,0-1.268-2.268l-1.57.616a10.515,10.515,0,0,0-1.769-1.763l.644-1.634a12.377,12.377,0,0,0-2.2-1.316l-1.114,1.4a10.637,10.637,0,0,0-2.416-.653l-.274-1.822a12.54,12.54,0,0,0-1.418-.083c-.378,0-.752.02-1.121.053l-.277,1.885a10.639,10.639,0,0,0-2.416.653l-1.2-1.527a12.342,12.342,0,0,0-2.188,1.254l.7,1.794a11.008,11.008,0,0,0-1.769,1.763l-1.788-.7a12.353,12.353,0,0,0-1.253,2.189l1.5,1.188a10.854,10.854,0,0,0-.653,2.416l-1.852.279c-.034.372-.054.748-.054,1.128a12.443,12.443,0,0,0,.083,1.418l1.816.272a10.869,10.869,0,0,0,.653,2.409l-1.4,1.116a12.37,12.37,0,0,0,1.332,2.222l1.612-.621a11.333,11.333,0,0,0,1.769,1.769l-.6,1.538a12.345,12.345,0,0,0,2.271,1.267l1.016-1.29a10.872,10.872,0,0,0,2.416.653l.235,1.563c.386.036.776.057,1.172.057a12.4,12.4,0,0,0,1.449-.087l.235-1.559a10.883,10.883,0,0,0,2.416-.653l.959,1.217a12.359,12.359,0,0,0,2.279-1.33l-.548-1.4a11.023,11.023,0,0,0,1.763-1.769l1.4.55a12.347,12.347,0,0,0,1.33-2.274l-1.217-.959A11.107,11.107,0,0,0,326.317,51.184Z" transform="translate(-303.224 -37.108)" fill="none" stroke="#7ce3cb" stroke-width="1"/>
              <g id="icon_data-4" data-name="icon_data" transform="translate(5.774 5.775)">
                <g id="icon-population-data_solid">
                  <g id="Grupo_2560" data-name="Grupo 2560" transform="translate(3.682 2.782)">
                    <path id="Trazado_146331" data-name="Trazado 146331" d="M67.74,179.319a3.039,3.039,0,0,1,6.077,0Z" transform="translate(-67.74 -172.203)" fill="#7ce3cb"/>
                    <ellipse id="Elipse_87" data-name="Elipse 87" cx="1.744" cy="1.715" rx="1.744" ry="1.715" transform="translate(1.295)" fill="#7ce2ca"/>
                  </g>
                  <rect id="cell-12" data-name="cell" width="13.198" height="13.198" fill="none"/>
                </g>
              </g>
            </g>
          </g>
        </g>
        <g id="icon-api-9" data-name="icon-api" transform="translate(39.971 122.765)">
          <rect id="cell-13" data-name="cell" width="24" height="24" transform="translate(0)" fill="none"/>
          <g id="icon-api_small-5" data-name="icon-api_small">
            <rect id="cell-14" data-name="cell" width="24" height="24" fill="none"/>
            <g id="icon-api-10" data-name="icon-api" transform="translate(0.765 0.766)">
              <circle id="Elipse_66-2-5" data-name="Elipse 66-2" cx="6" cy="6" r="6" transform="translate(5.235 5.234)" fill="none" stroke="#7ce3cb" stroke-miterlimit="10" stroke-width="1"/>
              <path id="Trazado_146373-5" data-name="Trazado 146373" d="M324.643,50.164l1.45-.22a11.556,11.556,0,0,0,.083-1.36c0-.362-.019-.72-.052-1.074l-1.481-.223a10.1,10.1,0,0,0-.606-2.241l1.222-.963a11.449,11.449,0,0,0-1.176-2.1l-1.456.571a9.751,9.751,0,0,0-1.641-1.635l.6-1.516a11.48,11.48,0,0,0-2.039-1.22l-1.034,1.3a9.866,9.866,0,0,0-2.241-.606l-.254-1.69a11.631,11.631,0,0,0-1.315-.077c-.351,0-.7.019-1.04.049l-.257,1.749a9.868,9.868,0,0,0-2.241.606l-1.117-1.417a11.448,11.448,0,0,0-2.029,1.163l.653,1.664a10.211,10.211,0,0,0-1.641,1.635l-1.658-.651a11.457,11.457,0,0,0-1.162,2.03l1.389,1.1a10.066,10.066,0,0,0-.606,2.241l-1.718.258c-.031.345-.05.693-.05,1.046A11.551,11.551,0,0,0,303.3,49.9l1.684.253a10.079,10.079,0,0,0,.606,2.235l-1.3,1.035a11.474,11.474,0,0,0,1.235,2.061l1.5-.576a10.514,10.514,0,0,0,1.641,1.641l-.56,1.426a11.45,11.45,0,0,0,2.106,1.176l.943-1.2a10.084,10.084,0,0,0,2.241.606l.218,1.45c.358.033.72.052,1.087.052a11.507,11.507,0,0,0,1.344-.081l.218-1.446a10.094,10.094,0,0,0,2.241-.606l.889,1.129a11.462,11.462,0,0,0,2.114-1.233L321,56.529a10.225,10.225,0,0,0,1.635-1.641l1.3.51a11.452,11.452,0,0,0,1.233-2.109l-1.129-.89A10.3,10.3,0,0,0,324.643,50.164Z" transform="translate(-303.224 -37.108)" fill="none" stroke="#7ce3cb" stroke-width="1"/>
              <g id="icon_data-5" data-name="icon_data" transform="translate(5.323 5.322)">
                <g id="icon-geolocation_solid" transform="translate(-0.088 -0.088)">
                  <rect id="cell-15" data-name="cell" width="12" height="12" fill="none"/>
                  <g id="Grupo_2555" data-name="Grupo 2555" transform="translate(3.825 3.06)">
                    <path id="Trazado_146282" data-name="Trazado 146282" d="M123.95,83.318h0a2.369,2.369,0,1,0-4.109.134l1.963,3.241s2.087-3.264,2.145-3.372Z" transform="translate(-119.488 -79.841)" fill="#7ce3cb"/>
                    <circle id="Elipse_72" data-name="Elipse 72" cx="1.034" cy="1.034" r="1.034" transform="translate(1.334 1.358)" fill="#030303"/>
                  </g>
                </g>
              </g>
            </g>
          </g>
        </g>
        <g id="icon-api-11" data-name="icon-api" transform="translate(-0.029 63.765)">
          <rect id="cell-16" data-name="cell" width="24" height="24" transform="translate(0)" fill="none"/>
          <g id="icon-api_small-6" data-name="icon-api_small">
            <rect id="cell-17" data-name="cell" width="24" height="24" fill="none"/>
            <g id="icon-api-12" data-name="icon-api" transform="translate(0.765 0.766)">
              <circle id="Elipse_66-2-6" data-name="Elipse 66-2" cx="6" cy="6" r="6" transform="translate(5.235 5.234)" fill="none" stroke="#7ce3cb" stroke-miterlimit="10" stroke-width="1"/>
              <path id="Trazado_146373-6" data-name="Trazado 146373" d="M324.643,50.164l1.45-.22a11.556,11.556,0,0,0,.083-1.36c0-.362-.019-.72-.052-1.074l-1.481-.223a10.1,10.1,0,0,0-.606-2.241l1.222-.963a11.449,11.449,0,0,0-1.176-2.1l-1.456.571a9.751,9.751,0,0,0-1.641-1.635l.6-1.516a11.48,11.48,0,0,0-2.039-1.22l-1.034,1.3a9.866,9.866,0,0,0-2.241-.606l-.254-1.69a11.631,11.631,0,0,0-1.315-.077c-.351,0-.7.019-1.04.049l-.257,1.749a9.868,9.868,0,0,0-2.241.606l-1.117-1.417a11.448,11.448,0,0,0-2.029,1.163l.653,1.664a10.211,10.211,0,0,0-1.641,1.635l-1.658-.651a11.457,11.457,0,0,0-1.162,2.03l1.389,1.1a10.066,10.066,0,0,0-.606,2.241l-1.718.258c-.031.345-.05.693-.05,1.046A11.551,11.551,0,0,0,303.3,49.9l1.684.253a10.079,10.079,0,0,0,.606,2.235l-1.3,1.035a11.474,11.474,0,0,0,1.235,2.061l1.5-.576a10.514,10.514,0,0,0,1.641,1.641l-.56,1.426a11.45,11.45,0,0,0,2.106,1.176l.943-1.2a10.084,10.084,0,0,0,2.241.606l.218,1.45c.358.033.72.052,1.087.052a11.507,11.507,0,0,0,1.344-.081l.218-1.446a10.094,10.094,0,0,0,2.241-.606l.889,1.129a11.462,11.462,0,0,0,2.114-1.233L321,56.529a10.225,10.225,0,0,0,1.635-1.641l1.3.51a11.452,11.452,0,0,0,1.233-2.109l-1.129-.89A10.3,10.3,0,0,0,324.643,50.164Z" transform="translate(-303.224 -37.108)" fill="none" stroke="#7ce3cb" stroke-width="1"/>
              <g id="icon_data-6" data-name="icon_data" transform="translate(5.323 5.322)">
                <g id="icon-wheater_solid" transform="translate(-0.088 -0.088)">
                  <rect id="cell-18" data-name="cell" width="12" height="12" fill="none"/>
                  <path id="icon-wheater" d="M120.023,125.935c-.023,0-.043.006-.066.007a2.1,2.1,0,0,0-3.995.9c0,.032.008.061.009.092a1.568,1.568,0,0,0,.709,2.9v.011h3.342a1.958,1.958,0,0,0,0-3.916Z" transform="translate(-112.156 -120.914)" fill="#7ce3cb"/>
                </g>
              </g>
            </g>
          </g>
        </g>
      </g>
    </g>
    <rect id="cell-19" data-name="cell" width="184" height="184" fill="none"/>
  </g>
</svg>
