<svg id="social-reddit" xmlns="http://www.w3.org/2000/svg" width="40" height="40" viewBox="0 0 40 40">
  <rect id="_60" data-name="60" width="40" height="40" fill="none"/>
  <path id="icon-reddit" d="M23.3,9.326a2.523,2.523,0,0,1,.779,1.857,2.559,2.559,0,0,1-.4,1.395,2.591,2.591,0,0,1-1.068.958,4.931,4.931,0,0,1,.161,1.269A5.861,5.861,0,0,1,21.345,18.6a9.646,9.646,0,0,1-3.9,2.756,14.062,14.062,0,0,1-5.375,1.011A14.012,14.012,0,0,1,6.7,21.355,9.652,9.652,0,0,1,2.8,18.6a5.861,5.861,0,0,1-1.431-3.794,5.352,5.352,0,0,1,.148-1.243,2.678,2.678,0,0,1-1.1-.972A2.6,2.6,0,0,1,.779,9.326a2.589,2.589,0,0,1,1.895-.773,2.613,2.613,0,0,1,1.948.833,12.7,12.7,0,0,1,6.92-2.141L13.1.357a.447.447,0,0,1,.2-.278.446.446,0,0,1,.349-.066l4.958,1.071A1.9,1.9,0,0,1,19.336.3a2.048,2.048,0,0,1,2.486.278,1.873,1.873,0,0,1,.591,1.395,1.894,1.894,0,0,1-.591,1.4,2.035,2.035,0,0,1-2.842.007A1.884,1.884,0,0,1,18.4,1.983L13.908,1l-1.4,6.239a12.822,12.822,0,0,1,6.974,2.115A2.7,2.7,0,0,1,23.3,9.326Zm-17.092,3.1a1.88,1.88,0,0,0-.591,1.388,1.905,1.905,0,0,0,.585,1.4,1.935,1.935,0,0,0,1.418.582,1.958,1.958,0,0,0,1.424-.582,1.894,1.894,0,0,0,.591-1.4,1.873,1.873,0,0,0-.591-1.395,1.969,1.969,0,0,0-1.424-.575A1.942,1.942,0,0,0,6.208,12.426Zm8.7,6.98a4,4,0,0,0,1.592-.9.473.473,0,0,0,0-.687.46.46,0,0,0-.336-.132.507.507,0,0,0-.349.132,3.379,3.379,0,0,1-1.626.82,8.874,8.874,0,0,1-4.3,0,3.379,3.379,0,0,1-1.626-.82.507.507,0,0,0-.349-.132.46.46,0,0,0-.336.132.432.432,0,0,0-.148.337.474.474,0,0,0,.148.35,4,4,0,0,0,1.592.9,8.045,8.045,0,0,0,1.646.39q.632.059,1.223.059t1.223-.059A8.045,8.045,0,0,0,14.909,19.406Zm.128-4.19a1.958,1.958,0,0,0,1.424.582,1.935,1.935,0,0,0,1.418-.582,1.905,1.905,0,0,0,.585-1.4,1.88,1.88,0,0,0-.591-1.388,1.942,1.942,0,0,0-1.411-.582,1.969,1.969,0,0,0-1.424.575,1.873,1.873,0,0,0-.591,1.395A1.894,1.894,0,0,0,15.036,15.215Z" transform="translate(8.074 8.667)" fill="#f3f3f3"/>
</svg>
