<svg id="social-telegram" xmlns="http://www.w3.org/2000/svg" width="40" height="40" viewBox="0 0 40 40">
  <rect id="_60" data-name="60" width="40" height="40" fill="none"/>
  <path id="Path_146511" data-name="Path 146511" d="M24.453,28.017q1.718.957,2.174-1.011L30.574,8.575A1.742,1.742,0,0,0,30.292,6.9a1.231,1.231,0,0,0-1.382-.186L5.716,15.57a2.353,2.353,0,0,0-1.06.665.571.571,0,0,0-.067.7,1.464,1.464,0,0,0,.859.519l5.933,1.835L25.151,10.7q.564-.372.859-.16.188.133-.107.4l-11.14,9.974-.43,6.064a1.729,1.729,0,0,0,1.208-.585l2.9-2.766Z" transform="translate(2.35 3.457)" fill="#f3f3f3"/>
</svg>
