<svg id="sosv_logo" xmlns="http://www.w3.org/2000/svg" width="72" height="31.155" viewBox="0 0 72 31.155">
  <g id="Group_2812" data-name="Group 2812" transform="translate(0 0)">
    <path id="Path_146537" data-name="Path 146537" d="M447.038,213.522H442.65v-.99a4.689,4.689,0,0,0-.709-2.6,2.625,2.625,0,0,0-2.388-1.1,2.879,2.879,0,0,0-1.484.344,2.539,2.539,0,0,0-.9.882,3.688,3.688,0,0,0-.45,1.247,8.274,8.274,0,0,0-.13,1.484,15.262,15.262,0,0,0,.065,1.53,2.713,2.713,0,0,0,.323,1.08,2.459,2.459,0,0,0,.753.8,6.8,6.8,0,0,0,1.355.689l3.355,1.333a8.34,8.34,0,0,1,2.365,1.312,5.325,5.325,0,0,1,1.4,1.764,7.474,7.474,0,0,1,.667,2.322,23.272,23.272,0,0,1,.172,2.99,15.717,15.717,0,0,1-.388,3.591,7.566,7.566,0,0,1-1.269,2.839,6.089,6.089,0,0,1-2.339,1.871,8.351,8.351,0,0,1-3.57.688,7.828,7.828,0,0,1-2.969-.559,7.158,7.158,0,0,1-4.515-6.708v-1.644h4.387v1.376a3.586,3.586,0,0,0,.71,2.172,2.766,2.766,0,0,0,2.387.967,3.846,3.846,0,0,0,1.742-.323,2.214,2.214,0,0,0,.946-.9,3.711,3.711,0,0,0,.408-1.44q.085-.86.09-1.889a18.7,18.7,0,0,0-.09-1.979,3.148,3.148,0,0,0-.365-1.247,2.24,2.24,0,0,0-.774-.774,10.3,10.3,0,0,0-1.312-.645l-3.139-1.29a6.953,6.953,0,0,1-3.806-3.075,10.571,10.571,0,0,1-.967-4.795,11.122,11.122,0,0,1,.473-3.269,7.619,7.619,0,0,1,1.4-2.667,6.665,6.665,0,0,1,2.339-1.784,7.715,7.715,0,0,1,3.312-.667,7.288,7.288,0,0,1,2.99.6,7.422,7.422,0,0,1,2.322,1.592,7.07,7.07,0,0,1,1.484,2.214,6.423,6.423,0,0,1,.516,2.519Z" transform="translate(-394.036 -204.451)" fill="#fff"/>
    <path id="Path_146538" data-name="Path 146538" d="M548.8,236.7h-3.869l-6.236-30.623h4.645l3.484,21.375h.09l3.527-21.375h4.639Z" transform="translate(-483.074 -205.809)" fill="#fff"/>
    <path id="Path_146539" data-name="Path 146539" d="M340.958,222.916a7.36,7.36,0,0,0-.823-1.395l-2.921,6.417v14.427a2.918,2.918,0,0,1-.882,2.346,3.27,3.27,0,0,1-4.174,0,2.918,2.918,0,0,1-.882-2.346v-1.377l-2.815,6.183a6.406,6.406,0,0,0,.771.81,7.307,7.307,0,0,0,2.366,1.4,7.636,7.636,0,0,0,5.293,0,7.324,7.324,0,0,0,2.366-1.4,6.868,6.868,0,0,0,1.7-2.323,7.783,7.783,0,0,0,.645-3.292V226.186a7.828,7.828,0,0,0-.645-3.271" transform="translate(-307.65 -218.698)" fill="#fff"/>
    <path id="Path_146540" data-name="Path 146540" d="M217.776,213.569h-4.387v-.99a4.679,4.679,0,0,0-.709-2.6,2.624,2.624,0,0,0-2.387-1.1,2.884,2.884,0,0,0-1.484.345,2.539,2.539,0,0,0-.9.882,3.653,3.653,0,0,0-.45,1.247,8.225,8.225,0,0,0-.13,1.484q0,.9.064,1.53a2.709,2.709,0,0,0,.323,1.075,2.461,2.461,0,0,0,.753.8,6.807,6.807,0,0,0,1.356.688l3.354,1.333a8.317,8.317,0,0,1,2.365,1.312,5.346,5.346,0,0,1,1.4,1.763,7.494,7.494,0,0,1,.667,2.323,23.351,23.351,0,0,1,.171,2.989,15.764,15.764,0,0,1-.387,3.592,7.581,7.581,0,0,1-1.269,2.839,6.09,6.09,0,0,1-2.344,1.871,8.351,8.351,0,0,1-3.569.688,7.828,7.828,0,0,1-2.969-.559,7.068,7.068,0,0,1-3.936-3.828,7.145,7.145,0,0,1-.58-2.879v-1.635h4.384v1.377a3.581,3.581,0,0,0,.71,2.171,2.763,2.763,0,0,0,2.387.968,3.853,3.853,0,0,0,1.741-.323,2.221,2.221,0,0,0,.947-.9,3.734,3.734,0,0,0,.408-1.44q.086-.86.085-1.889a18.723,18.723,0,0,0-.085-1.979,3.154,3.154,0,0,0-.366-1.247,2.234,2.234,0,0,0-.774-.774,10.413,10.413,0,0,0-1.312-.645l-3.14-1.29a6.953,6.953,0,0,1-3.806-3.075,10.581,10.581,0,0,1-.967-4.8,11.1,11.1,0,0,1,.473-3.269,7.615,7.615,0,0,1,1.4-2.667,6.671,6.671,0,0,1,2.344-1.785,7.714,7.714,0,0,1,3.312-.667,7.288,7.288,0,0,1,2.99.6,7.461,7.461,0,0,1,2.322,1.592,7.075,7.075,0,0,1,1.484,2.215,6.417,6.417,0,0,1,.516,2.519Z" transform="translate(-202.728 -204.49)" fill="#e5e5e5"/>
    <path id="Path_146541" data-name="Path 146541" d="M323.342,211.958a2.92,2.92,0,0,1,.882-2.346,3.112,3.112,0,0,1,2.087-.752c.116,0,.235.005.346.016l1.857-4.077a7.667,7.667,0,0,0-2.2-.329,7.768,7.768,0,0,0-2.647.473,7.339,7.339,0,0,0-2.366,1.4,6.822,6.822,0,0,0-1.7,2.345,7.835,7.835,0,0,0-.645,3.271v16.179a7.792,7.792,0,0,0,.645,3.291,7.3,7.3,0,0,0,.929,1.515l2.814-6.183Z" transform="translate(-299.716 -204.47)" fill="#e5e5e5"/>
  </g>
</svg>
