<svg id="streamr-logo" xmlns="http://www.w3.org/2000/svg" width="114.3" height="55.265" viewBox="0 0 114.3 55.265">
  <g id="Group_2838" data-name="Group 2838" transform="translate(44.916 41.221)">
    <path id="Path_146641" data-name="Path 146641" d="M256.6,405.434l1.944-1.963a4.406,4.406,0,0,0,3.392,1.544c1.429,0,2.134-.648,2.134-1.639,0-.743-.3-1.277-1.582-1.448l-1.334-.172c-2.858-.362-4.154-1.772-4.154-4.04,0-2.42,1.906-4.116,5.088-4.116a6.091,6.091,0,0,1,4.707,1.906l-1.963,1.982a3.526,3.526,0,0,0-2.916-1.277c-1.315,0-1.963.514-1.963,1.315,0,.934.476,1.277,1.62,1.448l1.334.21c2.782.438,4.116,1.7,4.116,4.021,0,2.592-1.906,4.4-5.279,4.4a6.507,6.507,0,0,1-5.145-2.172" transform="translate(-256.6 -393.6)" fill="#fff"/>
    <path id="Path_146642" data-name="Path 146642" d="M319.478,410.958a2.684,2.684,0,0,1-3.03-2.973v-4.993H315v-2.23h.724c.781,0,1.01-.381,1.01-1.086V398h2.573v2.763h2.02v2.23h-2.02v5.736h1.868v2.23Z" transform="translate(-303.871 -397.161)" fill="#fff"/>
    <path id="Path_146643" data-name="Path 146643" d="M355.2,422.7V412.5h2.878v2.211h.1a2.555,2.555,0,0,1,2.611-2.211h.5v2.687h-.724c-1.677,0-2.477.362-2.477,1.544V422.7Z" transform="translate(-336.411 -408.898)" fill="#fff"/>
    <path id="Path_146644" data-name="Path 146644" d="M389.9,416.617c0-3.221,1.715-5.317,4.783-5.317,3.373,0,4.745,2.439,4.745,5.2v.858h-6.536v.152a2,2,0,0,0,2.249,2.191,3.234,3.234,0,0,0,2.5-1.22l1.429,1.791a5.521,5.521,0,0,1-4.269,1.7c-3.125-.019-4.9-2.1-4.9-5.355m2.973-1.105v.152h3.563v-.171c0-1.239-.572-2.077-1.715-2.077a1.855,1.855,0,0,0-1.848,2.1" transform="translate(-364.498 -407.927)" fill="#fff"/>
    <path id="Path_146645" data-name="Path 146645" d="M452.613,421.643a1.945,1.945,0,0,1-1.944-1.791h-.114a2.751,2.751,0,0,1-2.992,2.02A2.838,2.838,0,0,1,444.4,418.9c0-2.153,1.677-3.182,4.364-3.182h1.62v-.648c0-.991-.476-1.62-1.7-1.62a2.527,2.527,0,0,0-2.191,1.2l-1.715-1.505A4.458,4.458,0,0,1,448.9,411.2c2.878,0,4.345,1.315,4.345,3.735v4.459h.953v2.249Zm-2.23-3.087v-1.2h-1.391c-1.105,0-1.7.4-1.7,1.143v.286c0,.743.476,1.086,1.334,1.086.953,0,1.753-.381,1.753-1.315" transform="translate(-408.612 -407.846)" fill="#fff"/>
    <path id="Path_146646" data-name="Path 146646" d="M502.4,421.724v-10.2h2.878v1.734h.114a2.716,2.716,0,0,1,2.744-1.963,2.845,2.845,0,0,1,2.858,2.058h.057a3.154,3.154,0,0,1,3.106-2.058c1.963,0,3.049,1.467,3.049,4.04v6.384h-2.877v-6.155c0-1.315-.438-1.944-1.391-1.944a1.528,1.528,0,0,0-1.7,1.486v6.613h-2.878v-6.155c0-1.315-.457-1.944-1.391-1.944a1.538,1.538,0,0,0-1.7,1.486v6.613Z" transform="translate(-455.56 -407.927)" fill="#fff"/>
  </g>
  <g id="Group_2839" data-name="Group 2839">
    <path id="Path_146647" data-name="Path 146647" d="M588.9,422.7V412.5h2.878v2.211h.1a2.549,2.549,0,0,1,2.592-2.211h.5v2.687h-.705c-1.677,0-2.477.362-2.477,1.544V422.7Z" transform="translate(-480.66 -367.677)" fill="#fff"/>
    <path id="Path_146648" data-name="Path 146648" d="M55.275,179.825v-1.582a.962.962,0,0,0-1.029-.953,20.638,20.638,0,0,0-19.609,19.78.837.837,0,0,0,.877.838h1.62a.944.944,0,0,0,.953-.9A17.227,17.227,0,0,1,54.4,180.7c.667-.057.877-.438.877-.877m-14.5,18.084h1.544a.955.955,0,0,0,.953-.877,12.042,12.042,0,0,1,11.205-11.148.853.853,0,0,0,.8-.915v-1.563a.962.962,0,0,0-1.029-.953A15.5,15.5,0,0,0,39.8,196.88a.978.978,0,0,0,.972,1.029m14.5-9.319v1.582a.926.926,0,0,1-.838.915,6.9,6.9,0,0,0-6,5.984.968.968,0,0,1-.953.858H46.128c-.743,0-1.181-.476-1.124-1.029a10.332,10.332,0,0,1,9.242-9.242.926.926,0,0,1,1.029.934M73.359,211.63c-.438,0-.819-.21-.9-.9a17.227,17.227,0,0,0-16.312-16.312.958.958,0,0,1-.9-.953v-1.62a.827.827,0,0,1,.838-.877A20.656,20.656,0,0,1,75.875,210.6a.957.957,0,0,1-.953,1.01H73.359Zm-18.1-14.5a.962.962,0,0,1,1.029-.953A15.482,15.482,0,0,1,70.71,210.6a.962.962,0,0,1-.953,1.029H68.195a.867.867,0,0,1-.915-.8,12.042,12.042,0,0,0-11.148-11.205.955.955,0,0,1-.877-.953v-1.544Zm9.338,14.5H63.012a.926.926,0,0,1-.915-.838,6.9,6.9,0,0,0-5.984-6,.968.968,0,0,1-.858-.953v-1.544a.951.951,0,0,1,1.029-.953,10.332,10.332,0,0,1,9.242,9.242.943.943,0,0,1-.934,1.048m-41.181-13.72c.438,0,.819.21.9.877A17.227,17.227,0,0,0,40.621,215.1a.958.958,0,0,1,.9.953v1.62a.827.827,0,0,1-.838.877A20.656,20.656,0,0,1,20.9,198.919a.957.957,0,0,1,.953-1.01Zm18.084,14.5a.962.962,0,0,1-1.029.953,15.482,15.482,0,0,1-14.426-14.426A.962.962,0,0,1,27,197.909h1.563a.867.867,0,0,1,.915.8,12.042,12.042,0,0,0,11.148,11.205.955.955,0,0,1,.877.953Zm-9.319-14.5H33.76a.926.926,0,0,1,.915.838,6.917,6.917,0,0,0,5.984,6,.968.968,0,0,1,.858.953v1.544a.951.951,0,0,1-1.029.953,10.332,10.332,0,0,1-9.242-9.242.932.932,0,0,1,.934-1.048M41.5,229.771c0-.438.21-.819.9-.9A17.227,17.227,0,0,0,58.7,212.563a.942.942,0,0,1,.953-.877h1.62a.827.827,0,0,1,.877.838,20.67,20.67,0,0,1-19.628,19.78.957.957,0,0,1-1.01-.953v-1.582Zm14.521-18.084a.962.962,0,0,1,.953,1.029,15.482,15.482,0,0,1-14.426,14.426.962.962,0,0,1-1.029-.953v-1.563a.867.867,0,0,1,.8-.915,12.042,12.042,0,0,0,11.205-11.148.955.955,0,0,1,.953-.877ZM41.5,221.005v-1.582a.926.926,0,0,1,.838-.915,6.917,6.917,0,0,0,6-5.984.968.968,0,0,1,.953-.858h1.353a1.014,1.014,0,0,1,1.143,1.029,10.35,10.35,0,0,1-9.242,9.242.942.942,0,0,1-1.048-.934m0,8.766c0-.438.21-.819.9-.9A17.227,17.227,0,0,0,58.7,212.563a.942.942,0,0,1,.953-.877h1.62a.827.827,0,0,1,.877.838,20.67,20.67,0,0,1-19.628,19.78.957.957,0,0,1-1.01-.953v-1.582Zm14.521-18.084a.962.962,0,0,1,.953,1.029,15.482,15.482,0,0,1-14.426,14.426.962.962,0,0,1-1.029-.953v-1.563a.867.867,0,0,1,.8-.915,12.042,12.042,0,0,0,11.205-11.148.955.955,0,0,1,.953-.877ZM41.5,221.005v-1.582a.926.926,0,0,1,.838-.915,6.917,6.917,0,0,0,6-5.984.968.968,0,0,1,.953-.858h1.353a1.014,1.014,0,0,1,1.143,1.029,10.35,10.35,0,0,1-9.242,9.242.942.942,0,0,1-1.048-.934" transform="translate(-20.897 -177.288)" fill="#fff"/>
  </g>
</svg>
